G04 #@! TF.GenerationSoftware,KiCad,Pcbnew,9.0.7*
G04 #@! TF.CreationDate,2026-02-19T12:47:42+01:00*
G04 #@! TF.ProjectId,FishIoT,46697368-496f-4542-9e6b-696361645f70,version 26.0*
G04 #@! TF.SameCoordinates,Original*
G04 #@! TF.FileFunction,Soldermask,Top*
G04 #@! TF.FilePolarity,Negative*
%FSLAX46Y46*%
G04 Gerber Fmt 4.6, Leading zero omitted, Abs format (unit mm)*
G04 Created by KiCad (PCBNEW 9.0.7) date 2026-02-19 12:47:42*
%MOMM*%
%LPD*%
G01*
G04 APERTURE LIST*
G04 Aperture macros list*
%AMRoundRect*
0 Rectangle with rounded corners*
0 $1 Rounding radius*
0 $2 $3 $4 $5 $6 $7 $8 $9 X,Y pos of 4 corners*
0 Add a 4 corners polygon primitive as box body*
4,1,4,$2,$3,$4,$5,$6,$7,$8,$9,$2,$3,0*
0 Add four circle primitives for the rounded corners*
1,1,$1+$1,$2,$3*
1,1,$1+$1,$4,$5*
1,1,$1+$1,$6,$7*
1,1,$1+$1,$8,$9*
0 Add four rect primitives between the rounded corners*
20,1,$1+$1,$2,$3,$4,$5,0*
20,1,$1+$1,$4,$5,$6,$7,0*
20,1,$1+$1,$6,$7,$8,$9,0*
20,1,$1+$1,$8,$9,$2,$3,0*%
%AMFreePoly0*
4,1,21,-0.125000,1.200000,0.125000,1.200000,0.125000,1.700000,0.375000,1.700000,0.375000,1.200000,0.825000,1.200000,0.825000,-1.200000,0.375000,-1.200000,0.375000,-1.700000,0.125000,-1.700000,0.125000,-1.200000,-0.125000,-1.200000,-0.125000,-1.700000,-0.375000,-1.700000,-0.375000,-1.200000,-0.825000,-1.200000,-0.825000,1.200000,-0.375000,1.200000,-0.375000,1.700000,-0.125000,1.700000,
-0.125000,1.200000,-0.125000,1.200000,$1*%
%AMFreePoly1*
4,1,23,0.500000,-0.750000,0.000000,-0.750000,0.000000,-0.745722,-0.065263,-0.745722,-0.191342,-0.711940,-0.304381,-0.646677,-0.396677,-0.554381,-0.461940,-0.441342,-0.495722,-0.315263,-0.495722,-0.250000,-0.500000,-0.250000,-0.500000,0.250000,-0.495722,0.250000,-0.495722,0.315263,-0.461940,0.441342,-0.396677,0.554381,-0.304381,0.646677,-0.191342,0.711940,-0.065263,0.745722,0.000000,0.745722,
0.000000,0.750000,0.500000,0.750000,0.500000,-0.750000,0.500000,-0.750000,$1*%
%AMFreePoly2*
4,1,23,0.000000,0.745722,0.065263,0.745722,0.191342,0.711940,0.304381,0.646677,0.396677,0.554381,0.461940,0.441342,0.495722,0.315263,0.495722,0.250000,0.500000,0.250000,0.500000,-0.250000,0.495722,-0.250000,0.495722,-0.315263,0.461940,-0.441342,0.396677,-0.554381,0.304381,-0.646677,0.191342,-0.711940,0.065263,-0.745722,0.000000,-0.745722,0.000000,-0.750000,-0.500000,-0.750000,
-0.500000,0.750000,0.000000,0.750000,0.000000,0.745722,0.000000,0.745722,$1*%
G04 Aperture macros list end*
%ADD10C,0.010000*%
%ADD11RoundRect,0.250000X0.550000X-1.500000X0.550000X1.500000X-0.550000X1.500000X-0.550000X-1.500000X0*%
%ADD12RoundRect,0.225000X-0.225000X-0.250000X0.225000X-0.250000X0.225000X0.250000X-0.225000X0.250000X0*%
%ADD13R,1.550000X1.300000*%
%ADD14RoundRect,0.218750X-0.218750X-0.256250X0.218750X-0.256250X0.218750X0.256250X-0.218750X0.256250X0*%
%ADD15RoundRect,0.225000X0.225000X0.250000X-0.225000X0.250000X-0.225000X-0.250000X0.225000X-0.250000X0*%
%ADD16R,0.254000X0.812800*%
%ADD17RoundRect,0.218750X0.218750X0.256250X-0.218750X0.256250X-0.218750X-0.256250X0.218750X-0.256250X0*%
%ADD18RoundRect,0.200000X0.275000X-0.200000X0.275000X0.200000X-0.275000X0.200000X-0.275000X-0.200000X0*%
%ADD19RoundRect,0.225000X0.250000X-0.225000X0.250000X0.225000X-0.250000X0.225000X-0.250000X-0.225000X0*%
%ADD20C,1.000000*%
%ADD21RoundRect,0.200000X-0.200000X-0.275000X0.200000X-0.275000X0.200000X0.275000X-0.200000X0.275000X0*%
%ADD22RoundRect,0.200000X-0.275000X0.200000X-0.275000X-0.200000X0.275000X-0.200000X0.275000X0.200000X0*%
%ADD23R,1.700000X1.700000*%
%ADD24C,1.700000*%
%ADD25RoundRect,0.225000X-0.250000X0.225000X-0.250000X-0.225000X0.250000X-0.225000X0.250000X0.225000X0*%
%ADD26R,0.300000X0.300000*%
%ADD27R,0.900000X0.300000*%
%ADD28R,0.300000X0.900000*%
%ADD29R,1.800000X1.800000*%
%ADD30RoundRect,0.150000X-0.150000X-0.200000X0.150000X-0.200000X0.150000X0.200000X-0.150000X0.200000X0*%
%ADD31RoundRect,0.200000X0.200000X0.275000X-0.200000X0.275000X-0.200000X-0.275000X0.200000X-0.275000X0*%
%ADD32RoundRect,0.250000X-0.500000X-0.350000X0.500000X-0.350000X0.500000X0.350000X-0.500000X0.350000X0*%
%ADD33RoundRect,0.102000X-0.350000X0.450000X-0.350000X-0.450000X0.350000X-0.450000X0.350000X0.450000X0*%
%ADD34RoundRect,0.102000X-0.350000X0.350000X-0.350000X-0.350000X0.350000X-0.350000X0.350000X0.350000X0*%
%ADD35RoundRect,0.102000X-0.325000X0.600000X-0.325000X-0.600000X0.325000X-0.600000X0.325000X0.600000X0*%
%ADD36RoundRect,0.102000X-1.450000X0.225000X-1.450000X-0.225000X1.450000X-0.225000X1.450000X0.225000X0*%
%ADD37RoundRect,0.102000X-0.950000X0.225000X-0.950000X-0.225000X0.950000X-0.225000X0.950000X0.225000X0*%
%ADD38RoundRect,0.102000X-0.350000X0.375000X-0.350000X-0.375000X0.350000X-0.375000X0.350000X0.375000X0*%
%ADD39RoundRect,0.102000X-0.250000X0.700000X-0.250000X-0.700000X0.250000X-0.700000X0.250000X0.700000X0*%
%ADD40RoundRect,0.102000X-1.200000X0.225000X-1.200000X-0.225000X1.200000X-0.225000X1.200000X0.225000X0*%
%ADD41RoundRect,0.102000X-0.300000X0.150000X-0.300000X-0.150000X0.300000X-0.150000X0.300000X0.150000X0*%
%ADD42RoundRect,0.093750X0.156250X0.093750X-0.156250X0.093750X-0.156250X-0.093750X0.156250X-0.093750X0*%
%ADD43RoundRect,0.075000X0.250000X0.075000X-0.250000X0.075000X-0.250000X-0.075000X0.250000X-0.075000X0*%
%ADD44R,2.795000X0.740000*%
%ADD45RoundRect,0.218750X0.256250X-0.218750X0.256250X0.218750X-0.256250X0.218750X-0.256250X-0.218750X0*%
%ADD46RoundRect,0.102000X0.500000X0.525000X-0.500000X0.525000X-0.500000X-0.525000X0.500000X-0.525000X0*%
%ADD47RoundRect,0.102000X0.525000X1.100000X-0.525000X1.100000X-0.525000X-1.100000X0.525000X-1.100000X0*%
%ADD48R,0.800000X0.500000*%
%ADD49RoundRect,0.050800X0.200000X-0.400000X0.200000X0.400000X-0.200000X0.400000X-0.200000X-0.400000X0*%
%ADD50RoundRect,0.050800X0.400000X0.200000X-0.400000X0.200000X-0.400000X-0.200000X0.400000X-0.200000X0*%
%ADD51RoundRect,0.050800X-0.200000X0.400000X-0.200000X-0.400000X0.200000X-0.400000X0.200000X0.400000X0*%
%ADD52RoundRect,0.050800X-0.400000X-0.200000X0.400000X-0.200000X0.400000X0.200000X-0.400000X0.200000X0*%
%ADD53RoundRect,0.050800X0.400000X-0.400000X0.400000X0.400000X-0.400000X0.400000X-0.400000X-0.400000X0*%
%ADD54RoundRect,0.050800X0.400000X0.400000X-0.400000X0.400000X-0.400000X-0.400000X0.400000X-0.400000X0*%
%ADD55RoundRect,0.050800X0.500000X0.500000X-0.500000X0.500000X-0.500000X-0.500000X0.500000X-0.500000X0*%
%ADD56RoundRect,0.050800X-0.500000X-0.500000X0.500000X-0.500000X0.500000X0.500000X-0.500000X0.500000X0*%
%ADD57RoundRect,0.060000X0.060000X-0.240000X0.060000X0.240000X-0.060000X0.240000X-0.060000X-0.240000X0*%
%ADD58FreePoly0,90.000000*%
%ADD59RoundRect,0.218750X-0.256250X0.218750X-0.256250X-0.218750X0.256250X-0.218750X0.256250X0.218750X0*%
%ADD60RoundRect,0.175000X-0.725000X-0.175000X0.725000X-0.175000X0.725000X0.175000X-0.725000X0.175000X0*%
%ADD61RoundRect,0.200000X-0.700000X-0.200000X0.700000X-0.200000X0.700000X0.200000X-0.700000X0.200000X0*%
%ADD62C,0.800000*%
%ADD63C,6.000000*%
%ADD64FreePoly1,270.000000*%
%ADD65FreePoly2,270.000000*%
%ADD66C,0.650000*%
%ADD67RoundRect,0.102000X0.300000X0.575000X-0.300000X0.575000X-0.300000X-0.575000X0.300000X-0.575000X0*%
%ADD68RoundRect,0.102000X0.150000X0.575000X-0.150000X0.575000X-0.150000X-0.575000X0.150000X-0.575000X0*%
%ADD69O,1.204000X2.304000*%
%ADD70O,1.204000X2.004000*%
%ADD71RoundRect,0.076200X0.877500X-0.877500X0.877500X0.877500X-0.877500X0.877500X-0.877500X-0.877500X0*%
%ADD72C,1.907400*%
%ADD73RoundRect,0.014220X-0.472780X-0.222780X0.472780X-0.222780X0.472780X0.222780X-0.472780X0.222780X0*%
%ADD74RoundRect,0.102000X-0.200000X-0.850000X0.200000X-0.850000X0.200000X0.850000X-0.200000X0.850000X0*%
%ADD75R,2.400000X0.800000*%
%ADD76R,3.300000X1.800000*%
%ADD77R,1.100000X0.400000*%
%ADD78C,0.600000*%
G04 APERTURE END LIST*
G36*
X117000000Y-80100000D02*
G01*
X115500000Y-80100000D01*
X115500000Y-80400000D01*
X117000000Y-80400000D01*
X117000000Y-80100000D01*
G37*
D10*
X102450000Y-76750000D02*
X101900000Y-76750000D01*
X101900000Y-76350000D01*
X102450000Y-76350000D01*
X102450000Y-76750000D01*
G36*
X102450000Y-76750000D02*
G01*
X101900000Y-76750000D01*
X101900000Y-76350000D01*
X102450000Y-76350000D01*
X102450000Y-76750000D01*
G37*
X102450000Y-77250000D02*
X101900000Y-77250000D01*
X101900000Y-76850000D01*
X102450000Y-76850000D01*
X102450000Y-77250000D01*
G36*
X102450000Y-77250000D02*
G01*
X101900000Y-77250000D01*
X101900000Y-76850000D01*
X102450000Y-76850000D01*
X102450000Y-77250000D01*
G37*
X102450000Y-77750000D02*
X101900000Y-77750000D01*
X101900000Y-77350000D01*
X102450000Y-77350000D01*
X102450000Y-77750000D01*
G36*
X102450000Y-77750000D02*
G01*
X101900000Y-77750000D01*
X101900000Y-77350000D01*
X102450000Y-77350000D01*
X102450000Y-77750000D01*
G37*
X102450000Y-78250000D02*
X101900000Y-78250000D01*
X101900000Y-77850000D01*
X102450000Y-77850000D01*
X102450000Y-78250000D01*
G36*
X102450000Y-78250000D02*
G01*
X101900000Y-78250000D01*
X101900000Y-77850000D01*
X102450000Y-77850000D01*
X102450000Y-78250000D01*
G37*
X102450000Y-78750000D02*
X101900000Y-78750000D01*
X101900000Y-78350000D01*
X102450000Y-78350000D01*
X102450000Y-78750000D01*
G36*
X102450000Y-78750000D02*
G01*
X101900000Y-78750000D01*
X101900000Y-78350000D01*
X102450000Y-78350000D01*
X102450000Y-78750000D01*
G37*
X102450000Y-79250000D02*
X101900000Y-79250000D01*
X101900000Y-78850000D01*
X102450000Y-78850000D01*
X102450000Y-79250000D01*
G36*
X102450000Y-79250000D02*
G01*
X101900000Y-79250000D01*
X101900000Y-78850000D01*
X102450000Y-78850000D01*
X102450000Y-79250000D01*
G37*
X102450000Y-79750000D02*
X101900000Y-79750000D01*
X101900000Y-79350000D01*
X102450000Y-79350000D01*
X102450000Y-79750000D01*
G36*
X102450000Y-79750000D02*
G01*
X101900000Y-79750000D01*
X101900000Y-79350000D01*
X102450000Y-79350000D01*
X102450000Y-79750000D01*
G37*
X102450000Y-80250000D02*
X101900000Y-80250000D01*
X101900000Y-79850000D01*
X102450000Y-79850000D01*
X102450000Y-80250000D01*
G36*
X102450000Y-80250000D02*
G01*
X101900000Y-80250000D01*
X101900000Y-79850000D01*
X102450000Y-79850000D01*
X102450000Y-80250000D01*
G37*
X102450000Y-80750000D02*
X101900000Y-80750000D01*
X101900000Y-80350000D01*
X102450000Y-80350000D01*
X102450000Y-80750000D01*
G36*
X102450000Y-80750000D02*
G01*
X101900000Y-80750000D01*
X101900000Y-80350000D01*
X102450000Y-80350000D01*
X102450000Y-80750000D01*
G37*
X102450000Y-81250000D02*
X101900000Y-81250000D01*
X101900000Y-80850000D01*
X102450000Y-80850000D01*
X102450000Y-81250000D01*
G36*
X102450000Y-81250000D02*
G01*
X101900000Y-81250000D01*
X101900000Y-80850000D01*
X102450000Y-80850000D01*
X102450000Y-81250000D01*
G37*
X102450000Y-81750000D02*
X101900000Y-81750000D01*
X101900000Y-81350000D01*
X102450000Y-81350000D01*
X102450000Y-81750000D01*
G36*
X102450000Y-81750000D02*
G01*
X101900000Y-81750000D01*
X101900000Y-81350000D01*
X102450000Y-81350000D01*
X102450000Y-81750000D01*
G37*
X102450000Y-82250000D02*
X101900000Y-82250000D01*
X101900000Y-81850000D01*
X102450000Y-81850000D01*
X102450000Y-82250000D01*
G36*
X102450000Y-82250000D02*
G01*
X101900000Y-82250000D01*
X101900000Y-81850000D01*
X102450000Y-81850000D01*
X102450000Y-82250000D01*
G37*
X102450000Y-82750000D02*
X101900000Y-82750000D01*
X101900000Y-82350000D01*
X102450000Y-82350000D01*
X102450000Y-82750000D01*
G36*
X102450000Y-82750000D02*
G01*
X101900000Y-82750000D01*
X101900000Y-82350000D01*
X102450000Y-82350000D01*
X102450000Y-82750000D01*
G37*
X102450000Y-83250000D02*
X101900000Y-83250000D01*
X101900000Y-82850000D01*
X102450000Y-82850000D01*
X102450000Y-83250000D01*
G36*
X102450000Y-83250000D02*
G01*
X101900000Y-83250000D01*
X101900000Y-82850000D01*
X102450000Y-82850000D01*
X102450000Y-83250000D01*
G37*
X102450000Y-83750000D02*
X101900000Y-83750000D01*
X101900000Y-83350000D01*
X102450000Y-83350000D01*
X102450000Y-83750000D01*
G36*
X102450000Y-83750000D02*
G01*
X101900000Y-83750000D01*
X101900000Y-83350000D01*
X102450000Y-83350000D01*
X102450000Y-83750000D01*
G37*
X102450000Y-84250000D02*
X101900000Y-84250000D01*
X101900000Y-83850000D01*
X102450000Y-83850000D01*
X102450000Y-84250000D01*
G36*
X102450000Y-84250000D02*
G01*
X101900000Y-84250000D01*
X101900000Y-83850000D01*
X102450000Y-83850000D01*
X102450000Y-84250000D01*
G37*
X102450000Y-84750000D02*
X101900000Y-84750000D01*
X101900000Y-84350000D01*
X102450000Y-84350000D01*
X102450000Y-84750000D01*
G36*
X102450000Y-84750000D02*
G01*
X101900000Y-84750000D01*
X101900000Y-84350000D01*
X102450000Y-84350000D01*
X102450000Y-84750000D01*
G37*
X102450000Y-85250000D02*
X101900000Y-85250000D01*
X101900000Y-84850000D01*
X102450000Y-84850000D01*
X102450000Y-85250000D01*
G36*
X102450000Y-85250000D02*
G01*
X101900000Y-85250000D01*
X101900000Y-84850000D01*
X102450000Y-84850000D01*
X102450000Y-85250000D01*
G37*
X102700000Y-86200000D02*
X101900000Y-86200000D01*
X101900000Y-85400000D01*
X102700000Y-85400000D01*
X102700000Y-86200000D01*
G36*
X102700000Y-86200000D02*
G01*
X101900000Y-86200000D01*
X101900000Y-85400000D01*
X102700000Y-85400000D01*
X102700000Y-86200000D01*
G37*
X103250000Y-75950000D02*
X102850000Y-75950000D01*
X102850000Y-75400000D01*
X103250000Y-75400000D01*
X103250000Y-75950000D01*
G36*
X103250000Y-75950000D02*
G01*
X102850000Y-75950000D01*
X102850000Y-75400000D01*
X103250000Y-75400000D01*
X103250000Y-75950000D01*
G37*
X103250000Y-86200000D02*
X102850000Y-86200000D01*
X102850000Y-85650000D01*
X103250000Y-85650000D01*
X103250000Y-86200000D01*
G36*
X103250000Y-86200000D02*
G01*
X102850000Y-86200000D01*
X102850000Y-85650000D01*
X103250000Y-85650000D01*
X103250000Y-86200000D01*
G37*
X103750000Y-75950000D02*
X103350000Y-75950000D01*
X103350000Y-75400000D01*
X103750000Y-75400000D01*
X103750000Y-75950000D01*
G36*
X103750000Y-75950000D02*
G01*
X103350000Y-75950000D01*
X103350000Y-75400000D01*
X103750000Y-75400000D01*
X103750000Y-75950000D01*
G37*
X103750000Y-86200000D02*
X103350000Y-86200000D01*
X103350000Y-85650000D01*
X103750000Y-85650000D01*
X103750000Y-86200000D01*
G36*
X103750000Y-86200000D02*
G01*
X103350000Y-86200000D01*
X103350000Y-85650000D01*
X103750000Y-85650000D01*
X103750000Y-86200000D01*
G37*
X104250000Y-75950000D02*
X103850000Y-75950000D01*
X103850000Y-75400000D01*
X104250000Y-75400000D01*
X104250000Y-75950000D01*
G36*
X104250000Y-75950000D02*
G01*
X103850000Y-75950000D01*
X103850000Y-75400000D01*
X104250000Y-75400000D01*
X104250000Y-75950000D01*
G37*
X104250000Y-86200000D02*
X103850000Y-86200000D01*
X103850000Y-85650000D01*
X104250000Y-85650000D01*
X104250000Y-86200000D01*
G36*
X104250000Y-86200000D02*
G01*
X103850000Y-86200000D01*
X103850000Y-85650000D01*
X104250000Y-85650000D01*
X104250000Y-86200000D01*
G37*
X105800000Y-78800000D02*
X104100000Y-78800000D01*
X104100000Y-77100000D01*
X105800000Y-77100000D01*
X105800000Y-78800000D01*
G36*
X105800000Y-78800000D02*
G01*
X104100000Y-78800000D01*
X104100000Y-77100000D01*
X105800000Y-77100000D01*
X105800000Y-78800000D01*
G37*
X105800000Y-81650000D02*
X104100000Y-81650000D01*
X104100000Y-79950000D01*
X105800000Y-79950000D01*
X105800000Y-81650000D01*
G36*
X105800000Y-81650000D02*
G01*
X104100000Y-81650000D01*
X104100000Y-79950000D01*
X105800000Y-79950000D01*
X105800000Y-81650000D01*
G37*
X105800000Y-84500000D02*
X104100000Y-84500000D01*
X104100000Y-82800000D01*
X105800000Y-82800000D01*
X105800000Y-84500000D01*
G36*
X105800000Y-84500000D02*
G01*
X104100000Y-84500000D01*
X104100000Y-82800000D01*
X105800000Y-82800000D01*
X105800000Y-84500000D01*
G37*
X104750000Y-75950000D02*
X104350000Y-75950000D01*
X104350000Y-75400000D01*
X104750000Y-75400000D01*
X104750000Y-75950000D01*
G36*
X104750000Y-75950000D02*
G01*
X104350000Y-75950000D01*
X104350000Y-75400000D01*
X104750000Y-75400000D01*
X104750000Y-75950000D01*
G37*
X104750000Y-86200000D02*
X104350000Y-86200000D01*
X104350000Y-85650000D01*
X104750000Y-85650000D01*
X104750000Y-86200000D01*
G36*
X104750000Y-86200000D02*
G01*
X104350000Y-86200000D01*
X104350000Y-85650000D01*
X104750000Y-85650000D01*
X104750000Y-86200000D01*
G37*
X105250000Y-75950000D02*
X104850000Y-75950000D01*
X104850000Y-75400000D01*
X105250000Y-75400000D01*
X105250000Y-75950000D01*
G36*
X105250000Y-75950000D02*
G01*
X104850000Y-75950000D01*
X104850000Y-75400000D01*
X105250000Y-75400000D01*
X105250000Y-75950000D01*
G37*
X105250000Y-86200000D02*
X104850000Y-86200000D01*
X104850000Y-85650000D01*
X105250000Y-85650000D01*
X105250000Y-86200000D01*
G36*
X105250000Y-86200000D02*
G01*
X104850000Y-86200000D01*
X104850000Y-85650000D01*
X105250000Y-85650000D01*
X105250000Y-86200000D01*
G37*
X105750000Y-75950000D02*
X105350000Y-75950000D01*
X105350000Y-75400000D01*
X105750000Y-75400000D01*
X105750000Y-75950000D01*
G36*
X105750000Y-75950000D02*
G01*
X105350000Y-75950000D01*
X105350000Y-75400000D01*
X105750000Y-75400000D01*
X105750000Y-75950000D01*
G37*
X105750000Y-86200000D02*
X105350000Y-86200000D01*
X105350000Y-85650000D01*
X105750000Y-85650000D01*
X105750000Y-86200000D01*
G36*
X105750000Y-86200000D02*
G01*
X105350000Y-86200000D01*
X105350000Y-85650000D01*
X105750000Y-85650000D01*
X105750000Y-86200000D01*
G37*
X106250000Y-75950000D02*
X105850000Y-75950000D01*
X105850000Y-75400000D01*
X106250000Y-75400000D01*
X106250000Y-75950000D01*
G36*
X106250000Y-75950000D02*
G01*
X105850000Y-75950000D01*
X105850000Y-75400000D01*
X106250000Y-75400000D01*
X106250000Y-75950000D01*
G37*
X106250000Y-86200000D02*
X105850000Y-86200000D01*
X105850000Y-85650000D01*
X106250000Y-85650000D01*
X106250000Y-86200000D01*
G36*
X106250000Y-86200000D02*
G01*
X105850000Y-86200000D01*
X105850000Y-85650000D01*
X106250000Y-85650000D01*
X106250000Y-86200000D01*
G37*
X106750000Y-75950000D02*
X106350000Y-75950000D01*
X106350000Y-75400000D01*
X106750000Y-75400000D01*
X106750000Y-75950000D01*
G36*
X106750000Y-75950000D02*
G01*
X106350000Y-75950000D01*
X106350000Y-75400000D01*
X106750000Y-75400000D01*
X106750000Y-75950000D01*
G37*
X106750000Y-86200000D02*
X106350000Y-86200000D01*
X106350000Y-85650000D01*
X106750000Y-85650000D01*
X106750000Y-86200000D01*
G36*
X106750000Y-86200000D02*
G01*
X106350000Y-86200000D01*
X106350000Y-85650000D01*
X106750000Y-85650000D01*
X106750000Y-86200000D01*
G37*
X107250000Y-75950000D02*
X106850000Y-75950000D01*
X106850000Y-75400000D01*
X107250000Y-75400000D01*
X107250000Y-75950000D01*
G36*
X107250000Y-75950000D02*
G01*
X106850000Y-75950000D01*
X106850000Y-75400000D01*
X107250000Y-75400000D01*
X107250000Y-75950000D01*
G37*
X107250000Y-86200000D02*
X106850000Y-86200000D01*
X106850000Y-85650000D01*
X107250000Y-85650000D01*
X107250000Y-86200000D01*
G36*
X107250000Y-86200000D02*
G01*
X106850000Y-86200000D01*
X106850000Y-85650000D01*
X107250000Y-85650000D01*
X107250000Y-86200000D01*
G37*
X108650000Y-78250000D02*
X106950000Y-78250000D01*
X106950000Y-76200000D01*
X108650000Y-76200000D01*
X108650000Y-78250000D01*
G36*
X108650000Y-78250000D02*
G01*
X106950000Y-78250000D01*
X106950000Y-76200000D01*
X108650000Y-76200000D01*
X108650000Y-78250000D01*
G37*
X108650000Y-81650000D02*
X106950000Y-81650000D01*
X106950000Y-79950000D01*
X108650000Y-79950000D01*
X108650000Y-81650000D01*
G36*
X108650000Y-81650000D02*
G01*
X106950000Y-81650000D01*
X106950000Y-79950000D01*
X108650000Y-79950000D01*
X108650000Y-81650000D01*
G37*
X108650000Y-85400000D02*
X106950000Y-85400000D01*
X106950000Y-83350000D01*
X108650000Y-83350000D01*
X108650000Y-85400000D01*
G36*
X108650000Y-85400000D02*
G01*
X106950000Y-85400000D01*
X106950000Y-83350000D01*
X108650000Y-83350000D01*
X108650000Y-85400000D01*
G37*
X107750000Y-75950000D02*
X107350000Y-75950000D01*
X107350000Y-75400000D01*
X107750000Y-75400000D01*
X107750000Y-75950000D01*
G36*
X107750000Y-75950000D02*
G01*
X107350000Y-75950000D01*
X107350000Y-75400000D01*
X107750000Y-75400000D01*
X107750000Y-75950000D01*
G37*
X107750000Y-86200000D02*
X107350000Y-86200000D01*
X107350000Y-85650000D01*
X107750000Y-85650000D01*
X107750000Y-86200000D01*
G36*
X107750000Y-86200000D02*
G01*
X107350000Y-86200000D01*
X107350000Y-85650000D01*
X107750000Y-85650000D01*
X107750000Y-86200000D01*
G37*
X108250000Y-75950000D02*
X107850000Y-75950000D01*
X107850000Y-75400000D01*
X108250000Y-75400000D01*
X108250000Y-75950000D01*
G36*
X108250000Y-75950000D02*
G01*
X107850000Y-75950000D01*
X107850000Y-75400000D01*
X108250000Y-75400000D01*
X108250000Y-75950000D01*
G37*
X108250000Y-86200000D02*
X107850000Y-86200000D01*
X107850000Y-85650000D01*
X108250000Y-85650000D01*
X108250000Y-86200000D01*
G36*
X108250000Y-86200000D02*
G01*
X107850000Y-86200000D01*
X107850000Y-85650000D01*
X108250000Y-85650000D01*
X108250000Y-86200000D01*
G37*
X108750000Y-75950000D02*
X108350000Y-75950000D01*
X108350000Y-75400000D01*
X108750000Y-75400000D01*
X108750000Y-75950000D01*
G36*
X108750000Y-75950000D02*
G01*
X108350000Y-75950000D01*
X108350000Y-75400000D01*
X108750000Y-75400000D01*
X108750000Y-75950000D01*
G37*
X108750000Y-86200000D02*
X108350000Y-86200000D01*
X108350000Y-85650000D01*
X108750000Y-85650000D01*
X108750000Y-86200000D01*
G36*
X108750000Y-86200000D02*
G01*
X108350000Y-86200000D01*
X108350000Y-85650000D01*
X108750000Y-85650000D01*
X108750000Y-86200000D01*
G37*
X109250000Y-75950000D02*
X108850000Y-75950000D01*
X108850000Y-75400000D01*
X109250000Y-75400000D01*
X109250000Y-75950000D01*
G36*
X109250000Y-75950000D02*
G01*
X108850000Y-75950000D01*
X108850000Y-75400000D01*
X109250000Y-75400000D01*
X109250000Y-75950000D01*
G37*
X109250000Y-86200000D02*
X108850000Y-86200000D01*
X108850000Y-85650000D01*
X109250000Y-85650000D01*
X109250000Y-86200000D01*
G36*
X109250000Y-86200000D02*
G01*
X108850000Y-86200000D01*
X108850000Y-85650000D01*
X109250000Y-85650000D01*
X109250000Y-86200000D01*
G37*
X109750000Y-75950000D02*
X109350000Y-75950000D01*
X109350000Y-75400000D01*
X109750000Y-75400000D01*
X109750000Y-75950000D01*
G36*
X109750000Y-75950000D02*
G01*
X109350000Y-75950000D01*
X109350000Y-75400000D01*
X109750000Y-75400000D01*
X109750000Y-75950000D01*
G37*
X109750000Y-86200000D02*
X109350000Y-86200000D01*
X109350000Y-85650000D01*
X109750000Y-85650000D01*
X109750000Y-86200000D01*
G36*
X109750000Y-86200000D02*
G01*
X109350000Y-86200000D01*
X109350000Y-85650000D01*
X109750000Y-85650000D01*
X109750000Y-86200000D01*
G37*
X111500000Y-78800000D02*
X109800000Y-78800000D01*
X109800000Y-77100000D01*
X111500000Y-77100000D01*
X111500000Y-78800000D01*
G36*
X111500000Y-78800000D02*
G01*
X109800000Y-78800000D01*
X109800000Y-77100000D01*
X111500000Y-77100000D01*
X111500000Y-78800000D01*
G37*
X111500000Y-81650000D02*
X109800000Y-81650000D01*
X109800000Y-79950000D01*
X111500000Y-79950000D01*
X111500000Y-81650000D01*
G36*
X111500000Y-81650000D02*
G01*
X109800000Y-81650000D01*
X109800000Y-79950000D01*
X111500000Y-79950000D01*
X111500000Y-81650000D01*
G37*
X111500000Y-84500000D02*
X109800000Y-84500000D01*
X109800000Y-82800000D01*
X111500000Y-82800000D01*
X111500000Y-84500000D01*
G36*
X111500000Y-84500000D02*
G01*
X109800000Y-84500000D01*
X109800000Y-82800000D01*
X111500000Y-82800000D01*
X111500000Y-84500000D01*
G37*
X110250000Y-75950000D02*
X109850000Y-75950000D01*
X109850000Y-75400000D01*
X110250000Y-75400000D01*
X110250000Y-75950000D01*
G36*
X110250000Y-75950000D02*
G01*
X109850000Y-75950000D01*
X109850000Y-75400000D01*
X110250000Y-75400000D01*
X110250000Y-75950000D01*
G37*
X110250000Y-86200000D02*
X109850000Y-86200000D01*
X109850000Y-85650000D01*
X110250000Y-85650000D01*
X110250000Y-86200000D01*
G36*
X110250000Y-86200000D02*
G01*
X109850000Y-86200000D01*
X109850000Y-85650000D01*
X110250000Y-85650000D01*
X110250000Y-86200000D01*
G37*
X110750000Y-75950000D02*
X110350000Y-75950000D01*
X110350000Y-75400000D01*
X110750000Y-75400000D01*
X110750000Y-75950000D01*
G36*
X110750000Y-75950000D02*
G01*
X110350000Y-75950000D01*
X110350000Y-75400000D01*
X110750000Y-75400000D01*
X110750000Y-75950000D01*
G37*
X110750000Y-86200000D02*
X110350000Y-86200000D01*
X110350000Y-85650000D01*
X110750000Y-85650000D01*
X110750000Y-86200000D01*
G36*
X110750000Y-86200000D02*
G01*
X110350000Y-86200000D01*
X110350000Y-85650000D01*
X110750000Y-85650000D01*
X110750000Y-86200000D01*
G37*
X111250000Y-75950000D02*
X110850000Y-75950000D01*
X110850000Y-75400000D01*
X111250000Y-75400000D01*
X111250000Y-75950000D01*
G36*
X111250000Y-75950000D02*
G01*
X110850000Y-75950000D01*
X110850000Y-75400000D01*
X111250000Y-75400000D01*
X111250000Y-75950000D01*
G37*
X111250000Y-86200000D02*
X110850000Y-86200000D01*
X110850000Y-85650000D01*
X111250000Y-85650000D01*
X111250000Y-86200000D01*
G36*
X111250000Y-86200000D02*
G01*
X110850000Y-86200000D01*
X110850000Y-85650000D01*
X111250000Y-85650000D01*
X111250000Y-86200000D01*
G37*
X111750000Y-75950000D02*
X111350000Y-75950000D01*
X111350000Y-75400000D01*
X111750000Y-75400000D01*
X111750000Y-75950000D01*
G36*
X111750000Y-75950000D02*
G01*
X111350000Y-75950000D01*
X111350000Y-75400000D01*
X111750000Y-75400000D01*
X111750000Y-75950000D01*
G37*
X111750000Y-86200000D02*
X111350000Y-86200000D01*
X111350000Y-85650000D01*
X111750000Y-85650000D01*
X111750000Y-86200000D01*
G36*
X111750000Y-86200000D02*
G01*
X111350000Y-86200000D01*
X111350000Y-85650000D01*
X111750000Y-85650000D01*
X111750000Y-86200000D01*
G37*
X112250000Y-75950000D02*
X111850000Y-75950000D01*
X111850000Y-75400000D01*
X112250000Y-75400000D01*
X112250000Y-75950000D01*
G36*
X112250000Y-75950000D02*
G01*
X111850000Y-75950000D01*
X111850000Y-75400000D01*
X112250000Y-75400000D01*
X112250000Y-75950000D01*
G37*
X112250000Y-86200000D02*
X111850000Y-86200000D01*
X111850000Y-85650000D01*
X112250000Y-85650000D01*
X112250000Y-86200000D01*
G36*
X112250000Y-86200000D02*
G01*
X111850000Y-86200000D01*
X111850000Y-85650000D01*
X112250000Y-85650000D01*
X112250000Y-86200000D01*
G37*
X112750000Y-75950000D02*
X112350000Y-75950000D01*
X112350000Y-75400000D01*
X112750000Y-75400000D01*
X112750000Y-75950000D01*
G36*
X112750000Y-75950000D02*
G01*
X112350000Y-75950000D01*
X112350000Y-75400000D01*
X112750000Y-75400000D01*
X112750000Y-75950000D01*
G37*
X112750000Y-86200000D02*
X112350000Y-86200000D01*
X112350000Y-85650000D01*
X112750000Y-85650000D01*
X112750000Y-86200000D01*
G36*
X112750000Y-86200000D02*
G01*
X112350000Y-86200000D01*
X112350000Y-85650000D01*
X112750000Y-85650000D01*
X112750000Y-86200000D01*
G37*
X113700000Y-76200000D02*
X112900000Y-76200000D01*
X112900000Y-75400000D01*
X113700000Y-75400000D01*
X113700000Y-76200000D01*
G36*
X113700000Y-76200000D02*
G01*
X112900000Y-76200000D01*
X112900000Y-75400000D01*
X113700000Y-75400000D01*
X113700000Y-76200000D01*
G37*
X113700000Y-86200000D02*
X112900000Y-86200000D01*
X112900000Y-85400000D01*
X113700000Y-85400000D01*
X113700000Y-86200000D01*
G36*
X113700000Y-86200000D02*
G01*
X112900000Y-86200000D01*
X112900000Y-85400000D01*
X113700000Y-85400000D01*
X113700000Y-86200000D01*
G37*
X113700000Y-76750000D02*
X113150000Y-76750000D01*
X113150000Y-76350000D01*
X113700000Y-76350000D01*
X113700000Y-76750000D01*
G36*
X113700000Y-76750000D02*
G01*
X113150000Y-76750000D01*
X113150000Y-76350000D01*
X113700000Y-76350000D01*
X113700000Y-76750000D01*
G37*
X113700000Y-77250000D02*
X113150000Y-77250000D01*
X113150000Y-76850000D01*
X113700000Y-76850000D01*
X113700000Y-77250000D01*
G36*
X113700000Y-77250000D02*
G01*
X113150000Y-77250000D01*
X113150000Y-76850000D01*
X113700000Y-76850000D01*
X113700000Y-77250000D01*
G37*
X113700000Y-77750000D02*
X113150000Y-77750000D01*
X113150000Y-77350000D01*
X113700000Y-77350000D01*
X113700000Y-77750000D01*
G36*
X113700000Y-77750000D02*
G01*
X113150000Y-77750000D01*
X113150000Y-77350000D01*
X113700000Y-77350000D01*
X113700000Y-77750000D01*
G37*
X113700000Y-78250000D02*
X113150000Y-78250000D01*
X113150000Y-77850000D01*
X113700000Y-77850000D01*
X113700000Y-78250000D01*
G36*
X113700000Y-78250000D02*
G01*
X113150000Y-78250000D01*
X113150000Y-77850000D01*
X113700000Y-77850000D01*
X113700000Y-78250000D01*
G37*
X113700000Y-78750000D02*
X113150000Y-78750000D01*
X113150000Y-78350000D01*
X113700000Y-78350000D01*
X113700000Y-78750000D01*
G36*
X113700000Y-78750000D02*
G01*
X113150000Y-78750000D01*
X113150000Y-78350000D01*
X113700000Y-78350000D01*
X113700000Y-78750000D01*
G37*
X113700000Y-79250000D02*
X113150000Y-79250000D01*
X113150000Y-78850000D01*
X113700000Y-78850000D01*
X113700000Y-79250000D01*
G36*
X113700000Y-79250000D02*
G01*
X113150000Y-79250000D01*
X113150000Y-78850000D01*
X113700000Y-78850000D01*
X113700000Y-79250000D01*
G37*
X113700000Y-79750000D02*
X113150000Y-79750000D01*
X113150000Y-79350000D01*
X113700000Y-79350000D01*
X113700000Y-79750000D01*
G36*
X113700000Y-79750000D02*
G01*
X113150000Y-79750000D01*
X113150000Y-79350000D01*
X113700000Y-79350000D01*
X113700000Y-79750000D01*
G37*
X113700000Y-80250000D02*
X113150000Y-80250000D01*
X113150000Y-79850000D01*
X113700000Y-79850000D01*
X113700000Y-80250000D01*
G36*
X113700000Y-80250000D02*
G01*
X113150000Y-80250000D01*
X113150000Y-79850000D01*
X113700000Y-79850000D01*
X113700000Y-80250000D01*
G37*
X113700000Y-80750000D02*
X113150000Y-80750000D01*
X113150000Y-80350000D01*
X113700000Y-80350000D01*
X113700000Y-80750000D01*
G36*
X113700000Y-80750000D02*
G01*
X113150000Y-80750000D01*
X113150000Y-80350000D01*
X113700000Y-80350000D01*
X113700000Y-80750000D01*
G37*
X113700000Y-81250000D02*
X113150000Y-81250000D01*
X113150000Y-80850000D01*
X113700000Y-80850000D01*
X113700000Y-81250000D01*
G36*
X113700000Y-81250000D02*
G01*
X113150000Y-81250000D01*
X113150000Y-80850000D01*
X113700000Y-80850000D01*
X113700000Y-81250000D01*
G37*
X113700000Y-81750000D02*
X113150000Y-81750000D01*
X113150000Y-81350000D01*
X113700000Y-81350000D01*
X113700000Y-81750000D01*
G36*
X113700000Y-81750000D02*
G01*
X113150000Y-81750000D01*
X113150000Y-81350000D01*
X113700000Y-81350000D01*
X113700000Y-81750000D01*
G37*
X113700000Y-82250000D02*
X113150000Y-82250000D01*
X113150000Y-81850000D01*
X113700000Y-81850000D01*
X113700000Y-82250000D01*
G36*
X113700000Y-82250000D02*
G01*
X113150000Y-82250000D01*
X113150000Y-81850000D01*
X113700000Y-81850000D01*
X113700000Y-82250000D01*
G37*
X113700000Y-82750000D02*
X113150000Y-82750000D01*
X113150000Y-82350000D01*
X113700000Y-82350000D01*
X113700000Y-82750000D01*
G36*
X113700000Y-82750000D02*
G01*
X113150000Y-82750000D01*
X113150000Y-82350000D01*
X113700000Y-82350000D01*
X113700000Y-82750000D01*
G37*
X113700000Y-83250000D02*
X113150000Y-83250000D01*
X113150000Y-82850000D01*
X113700000Y-82850000D01*
X113700000Y-83250000D01*
G36*
X113700000Y-83250000D02*
G01*
X113150000Y-83250000D01*
X113150000Y-82850000D01*
X113700000Y-82850000D01*
X113700000Y-83250000D01*
G37*
X113700000Y-83750000D02*
X113150000Y-83750000D01*
X113150000Y-83350000D01*
X113700000Y-83350000D01*
X113700000Y-83750000D01*
G36*
X113700000Y-83750000D02*
G01*
X113150000Y-83750000D01*
X113150000Y-83350000D01*
X113700000Y-83350000D01*
X113700000Y-83750000D01*
G37*
X113700000Y-84250000D02*
X113150000Y-84250000D01*
X113150000Y-83850000D01*
X113700000Y-83850000D01*
X113700000Y-84250000D01*
G36*
X113700000Y-84250000D02*
G01*
X113150000Y-84250000D01*
X113150000Y-83850000D01*
X113700000Y-83850000D01*
X113700000Y-84250000D01*
G37*
X113700000Y-84750000D02*
X113150000Y-84750000D01*
X113150000Y-84350000D01*
X113700000Y-84350000D01*
X113700000Y-84750000D01*
G36*
X113700000Y-84750000D02*
G01*
X113150000Y-84750000D01*
X113150000Y-84350000D01*
X113700000Y-84350000D01*
X113700000Y-84750000D01*
G37*
X113700000Y-85250000D02*
X113150000Y-85250000D01*
X113150000Y-84850000D01*
X113700000Y-84850000D01*
X113700000Y-85250000D01*
G36*
X113700000Y-85250000D02*
G01*
X113150000Y-85250000D01*
X113150000Y-84850000D01*
X113700000Y-84850000D01*
X113700000Y-85250000D01*
G37*
X102700000Y-75922000D02*
X102422000Y-76200000D01*
X101900000Y-76200000D01*
X101900000Y-75400000D01*
X102700000Y-75400000D01*
X102700000Y-75922000D01*
G36*
X102700000Y-75922000D02*
G01*
X102422000Y-76200000D01*
X101900000Y-76200000D01*
X101900000Y-75400000D01*
X102700000Y-75400000D01*
X102700000Y-75922000D01*
G37*
D11*
X122500000Y-31200000D03*
X122500000Y-36300000D03*
D12*
X110525000Y-73400000D03*
X112075000Y-73400000D03*
D13*
X101475000Y-46000000D03*
X93525000Y-50500000D03*
X101475000Y-50500000D03*
X93525000Y-46000000D03*
D14*
X114962500Y-92500000D03*
X116537500Y-92500000D03*
D15*
X113525000Y-47750000D03*
X111975000Y-47750000D03*
D16*
X123999748Y-91000000D03*
X124499874Y-91000000D03*
X125000000Y-91000000D03*
X125000000Y-89501400D03*
X124499874Y-89501400D03*
X123999748Y-89501400D03*
D17*
X131037500Y-91000000D03*
X129462500Y-91000000D03*
D18*
X103250000Y-47575000D03*
X103250000Y-45925000D03*
D19*
X99075000Y-82275000D03*
X99075000Y-80725000D03*
D18*
X101500000Y-33075000D03*
X101500000Y-31425000D03*
D20*
X98756154Y-67415373D03*
X113750000Y-51500000D03*
D21*
X123675000Y-88000000D03*
X125325000Y-88000000D03*
D18*
X118000000Y-72075000D03*
X118000000Y-70425000D03*
D22*
X116500000Y-73425000D03*
X116500000Y-75075000D03*
D23*
X127210000Y-41984505D03*
D24*
X129750000Y-41984505D03*
X132290000Y-41984505D03*
D20*
X110450000Y-69750000D03*
D18*
X97575000Y-82325000D03*
X97575000Y-80675000D03*
D25*
X103250000Y-48975000D03*
X103250000Y-50525000D03*
D26*
X108550000Y-42800000D03*
D27*
X108850000Y-42300000D03*
X108850000Y-41800000D03*
X108850000Y-41300000D03*
X108850000Y-40800000D03*
D26*
X108550000Y-40300000D03*
D28*
X108050000Y-40000000D03*
X107550000Y-40000000D03*
X107050000Y-40000000D03*
X106550000Y-40000000D03*
D26*
X106050000Y-40300000D03*
D27*
X105750000Y-40800000D03*
X105750000Y-41300000D03*
X105750000Y-41800000D03*
X105750000Y-42300000D03*
D26*
X106050000Y-42800000D03*
D28*
X106550000Y-43100000D03*
X107050000Y-43100000D03*
X107550000Y-43100000D03*
X108050000Y-43100000D03*
D29*
X107300000Y-41550000D03*
D21*
X117925000Y-92500000D03*
X119575000Y-92500000D03*
D22*
X101500000Y-34425000D03*
X101500000Y-36075000D03*
D30*
X123450000Y-54000000D03*
X122050000Y-54000000D03*
D14*
X114962500Y-94000000D03*
X116537500Y-94000000D03*
D19*
X106000000Y-33025000D03*
X106000000Y-31475000D03*
D22*
X118000000Y-73425000D03*
X118000000Y-75075000D03*
D31*
X112125000Y-40300000D03*
X110475000Y-40300000D03*
D32*
X115650000Y-49850000D03*
X118350000Y-49850000D03*
D19*
X99075000Y-79275000D03*
X99075000Y-77725000D03*
D25*
X100500000Y-83725000D03*
X100500000Y-85275000D03*
D18*
X124650000Y-65975000D03*
X124650000Y-64325000D03*
D33*
X95200000Y-94440000D03*
X95200000Y-92000000D03*
X95200000Y-89560000D03*
X98370000Y-94540000D03*
X98370000Y-92000000D03*
X98370000Y-89460000D03*
D34*
X101700000Y-87730000D03*
D35*
X105375000Y-91450000D03*
D36*
X94500000Y-87405000D03*
D37*
X99350000Y-87405000D03*
D38*
X103500000Y-87905000D03*
D39*
X106450000Y-89800000D03*
X106450000Y-94200000D03*
D40*
X104500000Y-98555000D03*
D37*
X99350000Y-98555000D03*
D36*
X94500000Y-98555000D03*
D41*
X93350000Y-93220000D03*
X93350000Y-90780000D03*
D23*
X129790000Y-45734505D03*
D24*
X127250000Y-45734505D03*
D20*
X132500000Y-79000000D03*
D42*
X115150000Y-41587500D03*
D43*
X115225000Y-41050000D03*
D42*
X115150000Y-40512500D03*
X113450000Y-40512500D03*
D43*
X113375000Y-41050000D03*
D42*
X113450000Y-41587500D03*
D44*
X99565000Y-62500000D03*
X95500000Y-62500000D03*
X99565000Y-61230000D03*
X95500000Y-61230000D03*
X99565000Y-59960000D03*
X95500000Y-59960000D03*
X99565000Y-58690000D03*
X95500000Y-58690000D03*
X99565000Y-57420000D03*
X95500000Y-57420000D03*
D19*
X103250000Y-40725000D03*
X103250000Y-39175000D03*
D21*
X117925000Y-91000000D03*
X119575000Y-91000000D03*
D19*
X94575000Y-82275000D03*
X94575000Y-80725000D03*
X107500000Y-33000000D03*
X107500000Y-31450000D03*
X120000000Y-46300000D03*
X120000000Y-44750000D03*
D45*
X117000000Y-40787500D03*
X117000000Y-39212500D03*
D20*
X124400000Y-62650000D03*
D19*
X118750000Y-59525000D03*
X118750000Y-57975000D03*
D46*
X110000000Y-93225000D03*
D47*
X111475000Y-94750000D03*
X108525000Y-94750000D03*
D14*
X114962500Y-89500000D03*
X116537500Y-89500000D03*
D48*
X120650000Y-71300000D03*
X120650000Y-72200000D03*
X120650000Y-73100000D03*
X120650000Y-74000000D03*
X121850000Y-74000000D03*
X121850000Y-73100000D03*
X121850000Y-72200000D03*
X121850000Y-71300000D03*
D31*
X113575000Y-46250000D03*
X111925000Y-46250000D03*
D49*
X116300000Y-53250000D03*
X115400000Y-53250000D03*
X114500000Y-53250000D03*
X113600000Y-53250000D03*
X112700000Y-53250000D03*
X111800000Y-53250000D03*
X110900000Y-53250000D03*
X110000000Y-53250000D03*
X109100000Y-53250000D03*
X108200000Y-53250000D03*
X107300000Y-53250000D03*
X106399990Y-53250000D03*
X105499990Y-53250000D03*
D50*
X104550000Y-54200000D03*
X104550000Y-54900000D03*
X104550000Y-55600000D03*
X104550000Y-56300000D03*
X104550000Y-61200000D03*
X104550000Y-61900000D03*
X104550000Y-62600000D03*
X104550000Y-63300000D03*
X104550000Y-64000000D03*
D49*
X105500000Y-64950000D03*
X106700000Y-64950000D03*
X107900000Y-64950000D03*
X110250110Y-64950000D03*
X111050280Y-64950000D03*
X111850110Y-64950000D03*
D51*
X113900000Y-64950000D03*
X115100000Y-64950000D03*
X116300000Y-64950000D03*
D52*
X117250010Y-64000000D03*
X117250010Y-63300000D03*
X117250010Y-62600000D03*
X117250010Y-61900000D03*
X117250010Y-61200000D03*
D50*
X117249890Y-55599910D03*
X117249890Y-54899910D03*
X117249890Y-54199920D03*
D53*
X117250010Y-53250000D03*
D54*
X104550000Y-53250000D03*
X104550000Y-64950000D03*
X117250010Y-64950000D03*
D55*
X113200000Y-61600000D03*
X113200000Y-56600000D03*
D56*
X108600000Y-61600000D03*
X108600000Y-56600000D03*
D22*
X131000000Y-86425000D03*
X131000000Y-88075000D03*
D57*
X116000000Y-47400000D03*
X116500000Y-47400000D03*
X117000000Y-47400000D03*
X117500000Y-47400000D03*
X118000000Y-47400000D03*
X118000000Y-44600000D03*
X117500000Y-44600000D03*
X117000000Y-44600000D03*
X116500000Y-44600000D03*
X116000000Y-44600000D03*
D58*
X117000000Y-46000000D03*
D20*
X133000000Y-59750000D03*
D59*
X96075000Y-80712500D03*
X96075000Y-82287500D03*
D22*
X103000000Y-31425000D03*
X103000000Y-33075000D03*
D25*
X106000000Y-34475000D03*
X106000000Y-36025000D03*
D22*
X104500000Y-34425000D03*
X104500000Y-36075000D03*
D20*
X125000000Y-49000000D03*
X124400000Y-73650000D03*
D46*
X131000000Y-93225000D03*
D47*
X132475000Y-94750000D03*
X129525000Y-94750000D03*
D60*
X119500000Y-76850000D03*
D61*
X119500000Y-77950000D03*
X119500000Y-79050000D03*
X119500000Y-80150000D03*
X119500000Y-81250000D03*
X119500000Y-82350000D03*
X119500000Y-83450000D03*
X119500000Y-84550000D03*
D60*
X119500000Y-85650000D03*
X129000000Y-85650000D03*
D61*
X129000000Y-84550000D03*
X129000000Y-83450000D03*
X129000000Y-82350000D03*
X129000000Y-81250000D03*
X129000000Y-80150000D03*
X129000000Y-79050000D03*
X129000000Y-77950000D03*
D60*
X129000000Y-76850000D03*
D13*
X93525000Y-74000000D03*
X101475000Y-69500000D03*
X93525000Y-69500000D03*
X101475000Y-74000000D03*
D25*
X118750000Y-54475000D03*
X118750000Y-56025000D03*
D62*
X95250000Y-34000000D03*
X95909010Y-32409010D03*
X95909010Y-35590990D03*
X97500000Y-31750000D03*
D63*
X97500000Y-34000000D03*
D62*
X97500000Y-36250000D03*
X99090990Y-32409010D03*
X99090990Y-35590990D03*
X99750000Y-34000000D03*
D64*
X116250000Y-79600000D03*
D65*
X116250000Y-80900000D03*
D66*
X116390000Y-35215990D03*
X110610000Y-35215990D03*
D67*
X116700000Y-36290990D03*
X115900000Y-36290990D03*
D68*
X114750000Y-36290990D03*
X113750000Y-36290990D03*
X113250000Y-36290990D03*
X112250000Y-36290990D03*
D67*
X110300000Y-36290990D03*
X111100000Y-36290990D03*
D68*
X111750000Y-36290990D03*
X112750000Y-36290990D03*
X114250000Y-36290990D03*
X115250000Y-36290990D03*
D69*
X117820000Y-35715990D03*
X109180000Y-35715990D03*
D70*
X117820000Y-31535990D03*
X109180000Y-31535990D03*
D71*
X131100990Y-52204505D03*
D72*
X131100990Y-54744505D03*
D73*
X95940000Y-83750000D03*
X95940000Y-84250000D03*
X95940000Y-84750000D03*
X95940000Y-85250000D03*
X97500000Y-85250000D03*
X97500000Y-84750000D03*
X97500000Y-84250000D03*
X97500000Y-83750000D03*
D74*
X96720000Y-84500000D03*
D15*
X122000000Y-63250000D03*
X120450000Y-63250000D03*
D18*
X103000000Y-36075000D03*
X103000000Y-34425000D03*
D31*
X119575000Y-95500000D03*
X117925000Y-95500000D03*
D21*
X111925000Y-44750000D03*
X113575000Y-44750000D03*
D15*
X131025000Y-89500000D03*
X129475000Y-89500000D03*
D21*
X117925000Y-94000000D03*
X119575000Y-94000000D03*
D25*
X107500000Y-34500000D03*
X107500000Y-36050000D03*
D31*
X112125000Y-41800000D03*
X110475000Y-41800000D03*
D12*
X117975000Y-88000000D03*
X119525000Y-88000000D03*
D18*
X124650000Y-71975000D03*
X124650000Y-70325000D03*
D14*
X114962500Y-91000000D03*
X116537500Y-91000000D03*
D15*
X123525000Y-57000000D03*
X121975000Y-57000000D03*
D21*
X117925000Y-89500000D03*
X119575000Y-89500000D03*
D18*
X124650000Y-68975000D03*
X124650000Y-67325000D03*
X115000000Y-72075000D03*
X115000000Y-70425000D03*
X116500000Y-72075000D03*
X116500000Y-70425000D03*
D22*
X103250000Y-42100000D03*
X103250000Y-43750000D03*
D75*
X127200000Y-65900000D03*
X127200000Y-67400000D03*
X127200000Y-68900000D03*
X127200000Y-70400000D03*
X127200000Y-71900000D03*
D76*
X132250000Y-63300000D03*
X132250000Y-74500000D03*
D59*
X131000000Y-83462500D03*
X131000000Y-85037500D03*
D20*
X101184157Y-67440665D03*
D62*
X127250000Y-34000000D03*
X127909010Y-32409010D03*
X127909010Y-35590990D03*
X129500000Y-31750000D03*
D63*
X129500000Y-34000000D03*
D62*
X129500000Y-36250000D03*
X131090990Y-32409010D03*
X131090990Y-35590990D03*
X131750000Y-34000000D03*
D18*
X121500000Y-46350000D03*
X121500000Y-44700000D03*
D21*
X121925000Y-55500000D03*
X123575000Y-55500000D03*
D31*
X128075000Y-91000000D03*
X126425000Y-91000000D03*
D77*
X117750000Y-66425000D03*
X117750000Y-67075000D03*
X117750000Y-67725000D03*
X117750000Y-68375000D03*
X122050000Y-68375000D03*
X122050000Y-67725000D03*
X122050000Y-67075000D03*
X122050000Y-66425000D03*
D18*
X103250000Y-61825000D03*
X103250000Y-60175000D03*
X97575000Y-79325000D03*
X97575000Y-77675000D03*
D21*
X121925000Y-60000000D03*
X123575000Y-60000000D03*
D12*
X110525000Y-71900000D03*
X112075000Y-71900000D03*
X120475000Y-64750000D03*
X122025000Y-64750000D03*
D25*
X123000000Y-44750000D03*
X123000000Y-46300000D03*
D31*
X123575000Y-58500000D03*
X121925000Y-58500000D03*
D15*
X128025000Y-92500000D03*
X126475000Y-92500000D03*
D14*
X114962500Y-95500000D03*
X116537500Y-95500000D03*
D19*
X104500000Y-33025000D03*
X104500000Y-31475000D03*
D13*
X101475000Y-43750000D03*
X101475000Y-39250000D03*
X93525000Y-39250000D03*
X93525000Y-43750000D03*
D15*
X113525000Y-49250000D03*
X111975000Y-49250000D03*
D78*
X100750000Y-86500000D03*
X96250000Y-86500000D03*
X94250000Y-86500000D03*
X99210000Y-86500000D03*
M02*
