M48
; DRILL file {KiCad 9.0.7} date 2026-02-19T12:48:50+0100
; FORMAT={-:-/ absolute / metric / decimal}
; #@! TF.CreationDate,2026-02-19T12:48:50+01:00
; #@! TF.GenerationSoftware,Kicad,Pcbnew,9.0.7
; #@! TF.FileFunction,Plated,1,4,PTH
FMAT,2
METRIC
; #@! TA.AperFunction,Plated,PTH,ComponentDrill
T1C0.200
; #@! TA.AperFunction,Plated,PTH,ViaDrill
T2C0.300
; #@! TA.AperFunction,Plated,PTH,ComponentDrill
T3C0.500
; #@! TA.AperFunction,Plated,PTH,ComponentDrill
T4C0.600
; #@! TA.AperFunction,Plated,PTH,ComponentDrill
T5C1.000
; #@! TA.AperFunction,Plated,PTH,ComponentDrill
T6C1.170
; #@! TA.AperFunction,Plated,PTH,ComponentDrill
T7C3.000
%
G90
G05
T1
X116.05Y-46.0
X117.0Y-45.425
X117.0Y-46.575
X117.95Y-46.0
T2
X93.25Y-83.5
X93.5Y-68.0
X94.25Y-86.5
X94.25Y-92.0
X94.506Y-65.994
X94.575Y-79.75
X95.325Y-79.75
X95.5Y-56.5
X96.075Y-79.75
X96.19Y-89.56
X96.25Y-86.5
X96.25Y-94.5
X97.187Y-93.224
X97.198Y-90.781
X97.5Y-41.5
X97.5Y-46.75
X97.5Y-50.75
X97.5Y-74.25
X97.54Y-57.41
X97.54Y-60.6
X98.75Y-84.5
X99.21Y-86.5
X99.21Y-89.46
X99.25Y-94.5
X99.524Y-83.596
X99.565Y-63.315
X100.5Y-80.25
X100.75Y-86.5
X101.037Y-75.23
X101.5Y-71.0
X101.5Y-84.0
X103.0Y-76.5
X103.0Y-79.0
X103.0Y-80.25
X103.0Y-82.25
X103.0Y-85.0
X103.226Y-59.164
X103.25Y-83.5
X103.5Y-53.75
X103.5Y-88.75
X104.75Y-66.25
X104.75Y-68.5
X104.75Y-71.25
X104.75Y-74.5
X105.399Y-39.558
X105.75Y-44.0
X105.75Y-45.25
X106.1Y-97.1
X106.25Y-76.5
X106.25Y-79.5
X106.25Y-82.25
X106.25Y-85.0
X107.25Y-51.5
X107.25Y-64.0
X107.5Y-33.75
X107.95Y-38.601
X108.0Y-45.25
X108.747Y-92.63
X108.75Y-86.75
X108.75Y-87.75
X108.75Y-88.75
X108.75Y-89.75
X108.75Y-90.75
X108.75Y-91.75
X109.25Y-37.5
X109.25Y-79.5
X109.25Y-82.25
X109.25Y-85.0
X109.75Y-42.75
X110.0Y-54.25
X110.0Y-96.8
X110.25Y-33.0
X110.25Y-34.25
X110.25Y-37.5
X110.45Y-69.7
X110.45Y-70.5
X111.05Y-76.5
X111.247Y-92.63
X111.25Y-37.5
X111.25Y-86.75
X111.25Y-87.75
X111.25Y-88.75
X111.25Y-89.75
X111.25Y-90.75
X111.25Y-91.75
X111.9Y-37.5
X112.0Y-31.0
X112.0Y-50.25
X112.1Y-70.1
X112.1Y-70.9
X112.425Y-34.875
X112.5Y-76.5
X112.5Y-79.5
X112.5Y-82.25
X112.5Y-85.0
X112.55Y-81.05
X112.75Y-65.0
X113.25Y-43.0
X113.429Y-69.0
X113.5Y-54.25
X113.75Y-50.25
X113.75Y-51.5
X113.9Y-71.1
X113.9Y-73.3
X114.15Y-34.9
X114.25Y-43.0
X114.5Y-65.75
X114.7Y-47.75
X114.75Y-45.0
X114.75Y-46.25
X115.0Y-73.25
X115.0Y-96.75
X115.1Y-37.5
X115.4Y-31.0
X115.4Y-33.7
X115.9Y-37.5
X116.0Y-40.0
X116.0Y-54.25
X116.25Y-61.25
X116.75Y-88.0
X117.0Y-51.0
X117.25Y-37.25
X117.25Y-57.75
X118.0Y-37.75
X118.0Y-72.75
X118.25Y-84.0
X118.75Y-53.5
X118.75Y-57.0
X118.75Y-60.5
X119.0Y-44.75
X119.0Y-45.75
X119.0Y-96.7
X119.5Y-39.0
X119.5Y-87.0
X119.75Y-75.75
X120.379Y-65.926
X120.4Y-66.9
X120.4Y-67.9
X120.4Y-68.9
X120.911Y-69.58
X121.0Y-30.75
X121.0Y-32.0
X121.0Y-33.25
X121.75Y-76.75
X122.0Y-61.2
X122.0Y-62.0
X122.5Y-33.25
X122.5Y-96.7
X122.518Y-69.776
X123.0Y-73.25
X123.25Y-91.5
X123.4Y-68.4
X123.402Y-66.944
X123.458Y-69.797
X124.0Y-30.75
X124.0Y-32.0
X124.0Y-33.25
X124.25Y-81.25
X124.25Y-95.0
X125.5Y-72.75
X126.5Y-52.205
X126.5Y-54.25
X127.2Y-95.0
X128.0Y-52.205
X129.25Y-67.5
X129.5Y-86.5
X129.5Y-87.5
X129.5Y-88.5
X129.5Y-92.0
X129.5Y-93.0
X129.518Y-54.811
X129.75Y-53.75
X129.75Y-70.25
X129.933Y-55.779
X130.892Y-56.212
X131.0Y-82.5
X131.952Y-56.12
X132.0Y-83.0
X132.5Y-83.75
X132.5Y-84.75
X132.5Y-85.75
X132.5Y-86.75
X132.5Y-87.75
X132.5Y-88.75
X132.5Y-89.75
X132.5Y-90.75
X132.5Y-91.63
X132.5Y-92.5
T3
X95.25Y-34.0
X95.909Y-32.409
X95.909Y-35.591
X97.5Y-31.75
X97.5Y-36.25
X99.091Y-32.409
X99.091Y-35.591
X99.75Y-34.0
X127.25Y-34.0
X127.909Y-32.409
X127.909Y-35.591
X129.5Y-31.75
X129.5Y-36.25
X131.091Y-32.409
X131.091Y-35.591
X131.75Y-34.0
T5
X127.21Y-41.985
X127.25Y-45.735
X129.75Y-41.985
X129.79Y-45.735
X132.29Y-41.985
T6
X131.101Y-52.205
X131.101Y-54.745
T7
X97.5Y-34.0
X129.5Y-34.0
T4
G00X109.18Y-31.936
M15
G01X109.18Y-31.136
M16
G05
G00X109.18Y-36.266
M15
G01X109.18Y-35.166
M16
G05
G00X117.82Y-31.936
M15
G01X117.82Y-31.136
M16
G05
G00X117.82Y-36.266
M15
G01X117.82Y-35.166
M16
G05
M30
