G04 #@! TF.GenerationSoftware,KiCad,Pcbnew,9.0.7*
G04 #@! TF.CreationDate,2026-02-19T12:47:42+01:00*
G04 #@! TF.ProjectId,FishIoT,46697368-496f-4542-9e6b-696361645f70,version 26.0*
G04 #@! TF.SameCoordinates,Original*
G04 #@! TF.FileFunction,Copper,L2,Inr*
G04 #@! TF.FilePolarity,Positive*
%FSLAX46Y46*%
G04 Gerber Fmt 4.6, Leading zero omitted, Abs format (unit mm)*
G04 Created by KiCad (PCBNEW 9.0.7) date 2026-02-19 12:47:42*
%MOMM*%
%LPD*%
G01*
G04 APERTURE LIST*
G04 #@! TA.AperFunction,ComponentPad*
%ADD10R,1.700000X1.700000*%
G04 #@! TD*
G04 #@! TA.AperFunction,ComponentPad*
%ADD11C,1.700000*%
G04 #@! TD*
G04 #@! TA.AperFunction,ComponentPad*
%ADD12C,0.500000*%
G04 #@! TD*
G04 #@! TA.AperFunction,ComponentPad*
%ADD13C,0.800000*%
G04 #@! TD*
G04 #@! TA.AperFunction,ComponentPad*
%ADD14C,6.000000*%
G04 #@! TD*
G04 #@! TA.AperFunction,ComponentPad*
%ADD15O,1.000000X2.100000*%
G04 #@! TD*
G04 #@! TA.AperFunction,ComponentPad*
%ADD16O,1.000000X1.800000*%
G04 #@! TD*
G04 #@! TA.AperFunction,ComponentPad*
%ADD17R,1.755000X1.755000*%
G04 #@! TD*
G04 #@! TA.AperFunction,ComponentPad*
%ADD18C,1.755000*%
G04 #@! TD*
G04 #@! TA.AperFunction,ViaPad*
%ADD19C,0.600000*%
G04 #@! TD*
G04 #@! TA.AperFunction,Conductor*
%ADD20C,0.300000*%
G04 #@! TD*
G04 #@! TA.AperFunction,Conductor*
%ADD21C,0.400000*%
G04 #@! TD*
G04 APERTURE END LIST*
D10*
X127210000Y-41984505D03*
D11*
X129750000Y-41984505D03*
X132290000Y-41984505D03*
D10*
X129790000Y-45734505D03*
D11*
X127250000Y-45734505D03*
D12*
X117000000Y-46575000D03*
X116050000Y-46000000D03*
X117950000Y-46000000D03*
X117000000Y-45425000D03*
D13*
X95250000Y-34000000D03*
X95909010Y-32409010D03*
X95909010Y-35590990D03*
X97500000Y-31750000D03*
D14*
X97500000Y-34000000D03*
D13*
X97500000Y-36250000D03*
X99090990Y-32409010D03*
X99090990Y-35590990D03*
X99750000Y-34000000D03*
D15*
X117820000Y-35715990D03*
X109180000Y-35715990D03*
D16*
X117820000Y-31535990D03*
X109180000Y-31535990D03*
D17*
X131100990Y-52204505D03*
D18*
X131100990Y-54744505D03*
D13*
X127250000Y-34000000D03*
X127909010Y-32409010D03*
X127909010Y-35590990D03*
X129500000Y-31750000D03*
D14*
X129500000Y-34000000D03*
D13*
X129500000Y-36250000D03*
X131090990Y-32409010D03*
X131090990Y-35590990D03*
X131750000Y-34000000D03*
D19*
X112500000Y-79500000D03*
X120400000Y-67900000D03*
X129500000Y-87500000D03*
X101036543Y-75229702D03*
X106250000Y-82250000D03*
X111250000Y-91750000D03*
X97187091Y-93223788D03*
X117000000Y-51000000D03*
X124250000Y-95000000D03*
X104750000Y-66250000D03*
X112000000Y-50250000D03*
X114750000Y-45000000D03*
X110250000Y-37500000D03*
X103000000Y-76500000D03*
X107250000Y-51500000D03*
X115400000Y-31000000D03*
X119000000Y-44750000D03*
X114500000Y-65750000D03*
X106250000Y-79500000D03*
X124000000Y-30750000D03*
X114750000Y-46250000D03*
X112500000Y-82250000D03*
X126500000Y-54250000D03*
X121000000Y-33250000D03*
X124000000Y-33250000D03*
X103000000Y-85000000D03*
X100500000Y-80250000D03*
X111250000Y-88750000D03*
X123457648Y-69797062D03*
X109750000Y-42750000D03*
X129500000Y-93000000D03*
X115400000Y-33700000D03*
X115000000Y-96750000D03*
X97500000Y-50750000D03*
X116000000Y-54250000D03*
X118750000Y-53500000D03*
X132500000Y-83750000D03*
X109250000Y-79500000D03*
X112100000Y-70900000D03*
X123250000Y-91500000D03*
X132500000Y-89750000D03*
X97540000Y-60600000D03*
X129500000Y-88500000D03*
X93500000Y-68000000D03*
X107250000Y-64000000D03*
X120400000Y-68900000D03*
X119750000Y-75750000D03*
X125500000Y-72750000D03*
X120910907Y-69580410D03*
X129518434Y-54811096D03*
X121750000Y-76750000D03*
X132500000Y-85750000D03*
X123402324Y-66943662D03*
X127200000Y-95000000D03*
X132500000Y-87750000D03*
X109250000Y-85000000D03*
X123400000Y-68400000D03*
X108750000Y-90750000D03*
X106250000Y-85000000D03*
X116750000Y-88000000D03*
X117250000Y-57750000D03*
X107500000Y-33750000D03*
X129250000Y-67500000D03*
X129500000Y-92000000D03*
X131951724Y-56119911D03*
X108750000Y-88750000D03*
X122500000Y-33250000D03*
X110000000Y-54250000D03*
X132500000Y-88750000D03*
X132500000Y-92500000D03*
X101500000Y-71000000D03*
X118000000Y-37750000D03*
X131000000Y-82500000D03*
X121000000Y-30750000D03*
X111247425Y-92630344D03*
X99524371Y-83596298D03*
X108750000Y-87750000D03*
X119000000Y-45750000D03*
X105399067Y-39557756D03*
X132500000Y-84750000D03*
X119500000Y-39000000D03*
X106100000Y-97100000D03*
X122517956Y-69776180D03*
X122500000Y-96700000D03*
X111250000Y-86750000D03*
X105750000Y-44000000D03*
X110250000Y-33000000D03*
X97500000Y-46750000D03*
X117250000Y-37250000D03*
X132500000Y-91630344D03*
X103000000Y-79000000D03*
X112500000Y-76500000D03*
X111250000Y-87750000D03*
X112100000Y-70100000D03*
X111250000Y-89750000D03*
X120400000Y-66900000D03*
X103250000Y-83500000D03*
X108750000Y-89750000D03*
X97197576Y-90780846D03*
X109250000Y-82250000D03*
X110250000Y-34250000D03*
X109250000Y-37500000D03*
X124250000Y-81250000D03*
X99250000Y-94500000D03*
X110000000Y-96800000D03*
X104750000Y-71250000D03*
X129750000Y-70250000D03*
X132000000Y-83000000D03*
X111250000Y-90750000D03*
X97500000Y-41500000D03*
X106250000Y-76500000D03*
X129750000Y-53750000D03*
X124000000Y-32000000D03*
X103500000Y-88750000D03*
X112750000Y-65000000D03*
X129500000Y-86500000D03*
X119000000Y-96700000D03*
X113250000Y-43000000D03*
X132500000Y-86750000D03*
X118750000Y-60500000D03*
X132500000Y-90750000D03*
X114250000Y-43000000D03*
X103500000Y-53750000D03*
X112500000Y-85000000D03*
X93250000Y-83500000D03*
X120379038Y-65926263D03*
X97540000Y-57410000D03*
X113500000Y-54250000D03*
X121000000Y-32000000D03*
X118000000Y-72750000D03*
X108750000Y-91750000D03*
X108750000Y-86750000D03*
X129933199Y-55778882D03*
X130891768Y-56212081D03*
X112000000Y-31000000D03*
X97500000Y-74250000D03*
X104750000Y-68500000D03*
X108747425Y-92630344D03*
X126500000Y-52204505D03*
X128000000Y-52204505D03*
X112550000Y-81050000D03*
X122000000Y-61200000D03*
X94575000Y-79750000D03*
X113750000Y-51500000D03*
X103226374Y-59164133D03*
X113750000Y-50250000D03*
X118250000Y-84000000D03*
X95325000Y-79750000D03*
X110450000Y-70500000D03*
X110450000Y-69700000D03*
X122000000Y-62000000D03*
X123000000Y-73250000D03*
X99565000Y-63315000D03*
X116250000Y-61250000D03*
X96075000Y-79750000D03*
X114700000Y-47750000D03*
X118750000Y-57000000D03*
X119500000Y-87000000D03*
X115000000Y-73250000D03*
X113900000Y-73300000D03*
X113900000Y-71100000D03*
X94506088Y-65993912D03*
X95500000Y-56500000D03*
X108000000Y-45250000D03*
X105750000Y-45250000D03*
X113428550Y-69000000D03*
X114150000Y-34900000D03*
X112425000Y-34875000D03*
X100750000Y-86500000D03*
X96250000Y-94500000D03*
X101500000Y-84000000D03*
X98750000Y-84500000D03*
X107950000Y-38601473D03*
X116000000Y-40000000D03*
X111250000Y-37500000D03*
X115100000Y-37500000D03*
X115900000Y-37500000D03*
X111900000Y-37500000D03*
X111050000Y-76500000D03*
X96250000Y-86500000D03*
X96190000Y-89560000D03*
X94250000Y-92000000D03*
X94250000Y-86500000D03*
X99210000Y-89460000D03*
X99210000Y-86500000D03*
X103000000Y-80250000D03*
X103000000Y-82250000D03*
X104750000Y-74500000D03*
D20*
X107950000Y-38601473D02*
X107950000Y-38700000D01*
D21*
X96190000Y-89560000D02*
X96250000Y-89500000D01*
G04 #@! TA.AperFunction,Conductor*
G36*
X134458691Y-29019407D02*
G01*
X134494655Y-29068907D01*
X134499500Y-29099500D01*
X134499500Y-98900500D01*
X134480593Y-98958691D01*
X134431093Y-98994655D01*
X134400500Y-98999500D01*
X92599500Y-98999500D01*
X92541309Y-98980593D01*
X92505345Y-98931093D01*
X92500500Y-98900500D01*
X92500500Y-94440691D01*
X95799500Y-94440691D01*
X95799500Y-94559309D01*
X95826574Y-94660351D01*
X95830202Y-94673890D01*
X95889507Y-94776608D01*
X95889509Y-94776610D01*
X95889511Y-94776613D01*
X95973387Y-94860489D01*
X95973389Y-94860490D01*
X95973391Y-94860492D01*
X96076110Y-94919797D01*
X96076111Y-94919797D01*
X96076114Y-94919799D01*
X96190691Y-94950500D01*
X96190693Y-94950500D01*
X96309307Y-94950500D01*
X96309309Y-94950500D01*
X96423886Y-94919799D01*
X96423888Y-94919797D01*
X96423890Y-94919797D01*
X96526608Y-94860492D01*
X96526608Y-94860491D01*
X96526613Y-94860489D01*
X96610489Y-94776613D01*
X96669799Y-94673886D01*
X96700500Y-94559309D01*
X96700500Y-94440691D01*
X96669799Y-94326114D01*
X96669797Y-94326111D01*
X96669797Y-94326109D01*
X96610492Y-94223391D01*
X96610490Y-94223389D01*
X96610489Y-94223387D01*
X96526613Y-94139511D01*
X96526610Y-94139509D01*
X96526608Y-94139507D01*
X96423889Y-94080202D01*
X96423890Y-94080202D01*
X96410351Y-94076574D01*
X96309309Y-94049500D01*
X96190691Y-94049500D01*
X96120567Y-94068289D01*
X96076109Y-94080202D01*
X95973391Y-94139507D01*
X95889507Y-94223391D01*
X95830202Y-94326109D01*
X95830201Y-94326114D01*
X95799500Y-94440691D01*
X92500500Y-94440691D01*
X92500500Y-91940691D01*
X93799500Y-91940691D01*
X93799500Y-92059309D01*
X93826574Y-92160351D01*
X93830202Y-92173890D01*
X93889507Y-92276608D01*
X93889509Y-92276610D01*
X93889511Y-92276613D01*
X93973387Y-92360489D01*
X93973389Y-92360490D01*
X93973391Y-92360492D01*
X94076110Y-92419797D01*
X94076111Y-92419797D01*
X94076114Y-92419799D01*
X94190691Y-92450500D01*
X94190693Y-92450500D01*
X94309307Y-92450500D01*
X94309309Y-92450500D01*
X94423886Y-92419799D01*
X94423888Y-92419797D01*
X94423890Y-92419797D01*
X94526608Y-92360492D01*
X94526608Y-92360491D01*
X94526613Y-92360489D01*
X94610489Y-92276613D01*
X94669799Y-92173886D01*
X94700500Y-92059309D01*
X94700500Y-91940691D01*
X94669799Y-91826114D01*
X94669797Y-91826111D01*
X94669797Y-91826109D01*
X94610492Y-91723391D01*
X94610490Y-91723389D01*
X94610489Y-91723387D01*
X94526613Y-91639511D01*
X94526610Y-91639509D01*
X94526608Y-91639507D01*
X94423889Y-91580202D01*
X94423890Y-91580202D01*
X94410351Y-91576574D01*
X94309309Y-91549500D01*
X94190691Y-91549500D01*
X94120567Y-91568289D01*
X94076109Y-91580202D01*
X93973391Y-91639507D01*
X93889507Y-91723391D01*
X93830202Y-91826109D01*
X93830201Y-91826114D01*
X93799500Y-91940691D01*
X92500500Y-91940691D01*
X92500500Y-89500691D01*
X95739500Y-89500691D01*
X95739500Y-89619309D01*
X95743406Y-89633886D01*
X95770202Y-89733890D01*
X95829507Y-89836608D01*
X95829509Y-89836610D01*
X95829511Y-89836613D01*
X95913387Y-89920489D01*
X95913389Y-89920490D01*
X95913391Y-89920492D01*
X96016110Y-89979797D01*
X96016111Y-89979797D01*
X96016114Y-89979799D01*
X96130691Y-90010500D01*
X96130693Y-90010500D01*
X96249307Y-90010500D01*
X96249309Y-90010500D01*
X96363886Y-89979799D01*
X96363888Y-89979797D01*
X96363890Y-89979797D01*
X96466608Y-89920492D01*
X96466608Y-89920491D01*
X96466613Y-89920489D01*
X96550489Y-89836613D01*
X96608225Y-89736613D01*
X96609797Y-89733890D01*
X96609797Y-89733888D01*
X96609799Y-89733886D01*
X96640500Y-89619309D01*
X96640500Y-89500691D01*
X96613705Y-89400691D01*
X98759500Y-89400691D01*
X98759500Y-89519309D01*
X98786295Y-89619307D01*
X98790202Y-89633890D01*
X98849507Y-89736608D01*
X98849509Y-89736610D01*
X98849511Y-89736613D01*
X98933387Y-89820489D01*
X98933389Y-89820490D01*
X98933391Y-89820492D01*
X99036110Y-89879797D01*
X99036111Y-89879797D01*
X99036114Y-89879799D01*
X99150691Y-89910500D01*
X99150693Y-89910500D01*
X99269307Y-89910500D01*
X99269309Y-89910500D01*
X99383886Y-89879799D01*
X99383888Y-89879797D01*
X99383890Y-89879797D01*
X99486608Y-89820492D01*
X99486608Y-89820491D01*
X99486613Y-89820489D01*
X99570489Y-89736613D01*
X99572061Y-89733890D01*
X99629797Y-89633890D01*
X99629797Y-89633888D01*
X99629799Y-89633886D01*
X99660500Y-89519309D01*
X99660500Y-89400691D01*
X99629799Y-89286114D01*
X99629797Y-89286111D01*
X99629797Y-89286109D01*
X99570492Y-89183391D01*
X99570490Y-89183389D01*
X99570489Y-89183387D01*
X99486613Y-89099511D01*
X99486610Y-89099509D01*
X99486608Y-89099507D01*
X99383889Y-89040202D01*
X99383890Y-89040202D01*
X99370351Y-89036574D01*
X99269309Y-89009500D01*
X99150691Y-89009500D01*
X99080567Y-89028289D01*
X99036109Y-89040202D01*
X98933391Y-89099507D01*
X98849507Y-89183391D01*
X98790202Y-89286109D01*
X98790201Y-89286114D01*
X98759500Y-89400691D01*
X96613705Y-89400691D01*
X96609799Y-89386114D01*
X96609796Y-89386109D01*
X96550492Y-89283391D01*
X96550490Y-89283389D01*
X96550489Y-89283387D01*
X96466613Y-89199511D01*
X96466610Y-89199509D01*
X96466608Y-89199507D01*
X96363889Y-89140202D01*
X96363890Y-89140202D01*
X96350351Y-89136574D01*
X96249309Y-89109500D01*
X96130691Y-89109500D01*
X96060567Y-89128289D01*
X96016109Y-89140202D01*
X95913391Y-89199507D01*
X95829507Y-89283391D01*
X95770202Y-89386109D01*
X95770201Y-89386114D01*
X95739500Y-89500691D01*
X92500500Y-89500691D01*
X92500500Y-86440691D01*
X93799500Y-86440691D01*
X93799500Y-86559309D01*
X93820989Y-86639507D01*
X93830202Y-86673890D01*
X93889507Y-86776608D01*
X93889509Y-86776610D01*
X93889511Y-86776613D01*
X93973387Y-86860489D01*
X93973389Y-86860490D01*
X93973391Y-86860492D01*
X94076110Y-86919797D01*
X94076111Y-86919797D01*
X94076114Y-86919799D01*
X94190691Y-86950500D01*
X94190693Y-86950500D01*
X94309307Y-86950500D01*
X94309309Y-86950500D01*
X94423886Y-86919799D01*
X94423888Y-86919797D01*
X94423890Y-86919797D01*
X94526608Y-86860492D01*
X94526608Y-86860491D01*
X94526613Y-86860489D01*
X94610489Y-86776613D01*
X94641217Y-86723391D01*
X94669797Y-86673890D01*
X94669797Y-86673888D01*
X94669799Y-86673886D01*
X94700500Y-86559309D01*
X94700500Y-86440691D01*
X95799500Y-86440691D01*
X95799500Y-86559309D01*
X95820989Y-86639507D01*
X95830202Y-86673890D01*
X95889507Y-86776608D01*
X95889509Y-86776610D01*
X95889511Y-86776613D01*
X95973387Y-86860489D01*
X95973389Y-86860490D01*
X95973391Y-86860492D01*
X96076110Y-86919797D01*
X96076111Y-86919797D01*
X96076114Y-86919799D01*
X96190691Y-86950500D01*
X96190693Y-86950500D01*
X96309307Y-86950500D01*
X96309309Y-86950500D01*
X96423886Y-86919799D01*
X96423888Y-86919797D01*
X96423890Y-86919797D01*
X96526608Y-86860492D01*
X96526608Y-86860491D01*
X96526613Y-86860489D01*
X96610489Y-86776613D01*
X96641217Y-86723391D01*
X96669797Y-86673890D01*
X96669797Y-86673888D01*
X96669799Y-86673886D01*
X96700500Y-86559309D01*
X96700500Y-86440691D01*
X98759500Y-86440691D01*
X98759500Y-86559309D01*
X98780989Y-86639507D01*
X98790202Y-86673890D01*
X98849507Y-86776608D01*
X98849509Y-86776610D01*
X98849511Y-86776613D01*
X98933387Y-86860489D01*
X98933389Y-86860490D01*
X98933391Y-86860492D01*
X99036110Y-86919797D01*
X99036111Y-86919797D01*
X99036114Y-86919799D01*
X99150691Y-86950500D01*
X99150693Y-86950500D01*
X99269307Y-86950500D01*
X99269309Y-86950500D01*
X99383886Y-86919799D01*
X99383888Y-86919797D01*
X99383890Y-86919797D01*
X99486608Y-86860492D01*
X99486608Y-86860491D01*
X99486613Y-86860489D01*
X99570489Y-86776613D01*
X99601217Y-86723391D01*
X99629797Y-86673890D01*
X99629797Y-86673888D01*
X99629799Y-86673886D01*
X99660500Y-86559309D01*
X99660500Y-86440691D01*
X100299500Y-86440691D01*
X100299500Y-86559309D01*
X100320989Y-86639507D01*
X100330202Y-86673890D01*
X100389507Y-86776608D01*
X100389509Y-86776610D01*
X100389511Y-86776613D01*
X100473387Y-86860489D01*
X100473389Y-86860490D01*
X100473391Y-86860492D01*
X100576110Y-86919797D01*
X100576111Y-86919797D01*
X100576114Y-86919799D01*
X100690691Y-86950500D01*
X100690693Y-86950500D01*
X100809307Y-86950500D01*
X100809309Y-86950500D01*
X100845916Y-86940691D01*
X119049500Y-86940691D01*
X119049500Y-87059309D01*
X119076574Y-87160351D01*
X119080202Y-87173890D01*
X119139507Y-87276608D01*
X119139509Y-87276610D01*
X119139511Y-87276613D01*
X119223387Y-87360489D01*
X119223389Y-87360490D01*
X119223391Y-87360492D01*
X119326110Y-87419797D01*
X119326111Y-87419797D01*
X119326114Y-87419799D01*
X119440691Y-87450500D01*
X119440693Y-87450500D01*
X119559307Y-87450500D01*
X119559309Y-87450500D01*
X119673886Y-87419799D01*
X119673888Y-87419797D01*
X119673890Y-87419797D01*
X119776608Y-87360492D01*
X119776608Y-87360491D01*
X119776613Y-87360489D01*
X119860489Y-87276613D01*
X119919799Y-87173886D01*
X119950500Y-87059309D01*
X119950500Y-86940691D01*
X119919799Y-86826114D01*
X119919797Y-86826111D01*
X119919797Y-86826109D01*
X119860492Y-86723391D01*
X119860490Y-86723389D01*
X119860489Y-86723387D01*
X119776613Y-86639511D01*
X119776610Y-86639509D01*
X119776608Y-86639507D01*
X119673889Y-86580202D01*
X119673890Y-86580202D01*
X119660351Y-86576574D01*
X119559309Y-86549500D01*
X119440691Y-86549500D01*
X119404084Y-86559309D01*
X119326109Y-86580202D01*
X119223391Y-86639507D01*
X119139507Y-86723391D01*
X119080202Y-86826109D01*
X119080201Y-86826114D01*
X119049500Y-86940691D01*
X100845916Y-86940691D01*
X100923886Y-86919799D01*
X100923888Y-86919797D01*
X100923890Y-86919797D01*
X101026608Y-86860492D01*
X101026608Y-86860491D01*
X101026613Y-86860489D01*
X101110489Y-86776613D01*
X101141217Y-86723391D01*
X101169797Y-86673890D01*
X101169797Y-86673888D01*
X101169799Y-86673886D01*
X101200500Y-86559309D01*
X101200500Y-86440691D01*
X101169799Y-86326114D01*
X101169797Y-86326111D01*
X101169797Y-86326109D01*
X101110492Y-86223391D01*
X101110490Y-86223389D01*
X101110489Y-86223387D01*
X101026613Y-86139511D01*
X101026610Y-86139509D01*
X101026608Y-86139507D01*
X100923889Y-86080202D01*
X100923890Y-86080202D01*
X100910351Y-86076574D01*
X100809309Y-86049500D01*
X100690691Y-86049500D01*
X100620567Y-86068289D01*
X100576109Y-86080202D01*
X100473391Y-86139507D01*
X100389507Y-86223391D01*
X100330202Y-86326109D01*
X100330201Y-86326114D01*
X100299500Y-86440691D01*
X99660500Y-86440691D01*
X99629799Y-86326114D01*
X99629797Y-86326111D01*
X99629797Y-86326109D01*
X99570492Y-86223391D01*
X99570490Y-86223389D01*
X99570489Y-86223387D01*
X99486613Y-86139511D01*
X99486610Y-86139509D01*
X99486608Y-86139507D01*
X99383889Y-86080202D01*
X99383890Y-86080202D01*
X99370351Y-86076574D01*
X99269309Y-86049500D01*
X99150691Y-86049500D01*
X99080567Y-86068289D01*
X99036109Y-86080202D01*
X98933391Y-86139507D01*
X98849507Y-86223391D01*
X98790202Y-86326109D01*
X98790201Y-86326114D01*
X98759500Y-86440691D01*
X96700500Y-86440691D01*
X96669799Y-86326114D01*
X96669797Y-86326111D01*
X96669797Y-86326109D01*
X96610492Y-86223391D01*
X96610490Y-86223389D01*
X96610489Y-86223387D01*
X96526613Y-86139511D01*
X96526610Y-86139509D01*
X96526608Y-86139507D01*
X96423889Y-86080202D01*
X96423890Y-86080202D01*
X96410351Y-86076574D01*
X96309309Y-86049500D01*
X96190691Y-86049500D01*
X96120567Y-86068289D01*
X96076109Y-86080202D01*
X95973391Y-86139507D01*
X95889507Y-86223391D01*
X95830202Y-86326109D01*
X95830201Y-86326114D01*
X95799500Y-86440691D01*
X94700500Y-86440691D01*
X94669799Y-86326114D01*
X94669797Y-86326111D01*
X94669797Y-86326109D01*
X94610492Y-86223391D01*
X94610490Y-86223389D01*
X94610489Y-86223387D01*
X94526613Y-86139511D01*
X94526610Y-86139509D01*
X94526608Y-86139507D01*
X94423889Y-86080202D01*
X94423890Y-86080202D01*
X94410351Y-86076574D01*
X94309309Y-86049500D01*
X94190691Y-86049500D01*
X94120567Y-86068289D01*
X94076109Y-86080202D01*
X93973391Y-86139507D01*
X93889507Y-86223391D01*
X93830202Y-86326109D01*
X93830201Y-86326114D01*
X93799500Y-86440691D01*
X92500500Y-86440691D01*
X92500500Y-84440691D01*
X98299500Y-84440691D01*
X98299500Y-84559309D01*
X98326574Y-84660351D01*
X98330202Y-84673890D01*
X98389507Y-84776608D01*
X98389509Y-84776610D01*
X98389511Y-84776613D01*
X98473387Y-84860489D01*
X98473389Y-84860490D01*
X98473391Y-84860492D01*
X98576110Y-84919797D01*
X98576111Y-84919797D01*
X98576114Y-84919799D01*
X98690691Y-84950500D01*
X98690693Y-84950500D01*
X98809307Y-84950500D01*
X98809309Y-84950500D01*
X98923886Y-84919799D01*
X98923888Y-84919797D01*
X98923890Y-84919797D01*
X99026608Y-84860492D01*
X99026608Y-84860491D01*
X99026613Y-84860489D01*
X99110489Y-84776613D01*
X99169799Y-84673886D01*
X99200500Y-84559309D01*
X99200500Y-84440691D01*
X99169799Y-84326114D01*
X99169797Y-84326111D01*
X99169797Y-84326109D01*
X99110492Y-84223391D01*
X99110490Y-84223389D01*
X99110489Y-84223387D01*
X99026613Y-84139511D01*
X99026610Y-84139509D01*
X99026608Y-84139507D01*
X98923889Y-84080202D01*
X98923890Y-84080202D01*
X98910351Y-84076574D01*
X98809309Y-84049500D01*
X98690691Y-84049500D01*
X98654084Y-84059309D01*
X98576109Y-84080202D01*
X98473391Y-84139507D01*
X98389507Y-84223391D01*
X98330202Y-84326109D01*
X98330201Y-84326114D01*
X98299500Y-84440691D01*
X92500500Y-84440691D01*
X92500500Y-83940691D01*
X101049500Y-83940691D01*
X101049500Y-84059309D01*
X101070989Y-84139507D01*
X101080202Y-84173890D01*
X101139507Y-84276608D01*
X101139509Y-84276610D01*
X101139511Y-84276613D01*
X101223387Y-84360489D01*
X101223389Y-84360490D01*
X101223391Y-84360492D01*
X101326110Y-84419797D01*
X101326111Y-84419797D01*
X101326114Y-84419799D01*
X101440691Y-84450500D01*
X101440693Y-84450500D01*
X101559307Y-84450500D01*
X101559309Y-84450500D01*
X101673886Y-84419799D01*
X101673888Y-84419797D01*
X101673890Y-84419797D01*
X101776608Y-84360492D01*
X101776608Y-84360491D01*
X101776613Y-84360489D01*
X101860489Y-84276613D01*
X101891217Y-84223391D01*
X101919797Y-84173890D01*
X101919797Y-84173888D01*
X101919799Y-84173886D01*
X101950500Y-84059309D01*
X101950500Y-83940691D01*
X117799500Y-83940691D01*
X117799500Y-84059309D01*
X117820989Y-84139507D01*
X117830202Y-84173890D01*
X117889507Y-84276608D01*
X117889509Y-84276610D01*
X117889511Y-84276613D01*
X117973387Y-84360489D01*
X117973389Y-84360490D01*
X117973391Y-84360492D01*
X118076110Y-84419797D01*
X118076111Y-84419797D01*
X118076114Y-84419799D01*
X118190691Y-84450500D01*
X118190693Y-84450500D01*
X118309307Y-84450500D01*
X118309309Y-84450500D01*
X118423886Y-84419799D01*
X118423888Y-84419797D01*
X118423890Y-84419797D01*
X118526608Y-84360492D01*
X118526608Y-84360491D01*
X118526613Y-84360489D01*
X118610489Y-84276613D01*
X118641217Y-84223391D01*
X118669797Y-84173890D01*
X118669797Y-84173888D01*
X118669799Y-84173886D01*
X118700500Y-84059309D01*
X118700500Y-83940691D01*
X118669799Y-83826114D01*
X118669797Y-83826111D01*
X118669797Y-83826109D01*
X118610492Y-83723391D01*
X118610490Y-83723389D01*
X118610489Y-83723387D01*
X118526613Y-83639511D01*
X118526610Y-83639509D01*
X118526608Y-83639507D01*
X118423889Y-83580202D01*
X118423890Y-83580202D01*
X118410351Y-83576574D01*
X118309309Y-83549500D01*
X118190691Y-83549500D01*
X118120567Y-83568289D01*
X118076109Y-83580202D01*
X117973391Y-83639507D01*
X117889507Y-83723391D01*
X117830202Y-83826109D01*
X117830201Y-83826114D01*
X117799500Y-83940691D01*
X101950500Y-83940691D01*
X101919799Y-83826114D01*
X101919797Y-83826111D01*
X101919797Y-83826109D01*
X101860492Y-83723391D01*
X101860490Y-83723389D01*
X101860489Y-83723387D01*
X101776613Y-83639511D01*
X101776610Y-83639509D01*
X101776608Y-83639507D01*
X101673889Y-83580202D01*
X101673890Y-83580202D01*
X101660351Y-83576574D01*
X101559309Y-83549500D01*
X101440691Y-83549500D01*
X101370567Y-83568289D01*
X101326109Y-83580202D01*
X101223391Y-83639507D01*
X101139507Y-83723391D01*
X101080202Y-83826109D01*
X101080201Y-83826114D01*
X101049500Y-83940691D01*
X92500500Y-83940691D01*
X92500500Y-82190691D01*
X102549500Y-82190691D01*
X102549500Y-82309309D01*
X102576574Y-82410351D01*
X102580202Y-82423890D01*
X102639507Y-82526608D01*
X102639509Y-82526610D01*
X102639511Y-82526613D01*
X102723387Y-82610489D01*
X102723389Y-82610490D01*
X102723391Y-82610492D01*
X102826110Y-82669797D01*
X102826111Y-82669797D01*
X102826114Y-82669799D01*
X102940691Y-82700500D01*
X102940693Y-82700500D01*
X103059307Y-82700500D01*
X103059309Y-82700500D01*
X103173886Y-82669799D01*
X103173888Y-82669797D01*
X103173890Y-82669797D01*
X103276608Y-82610492D01*
X103276608Y-82610491D01*
X103276613Y-82610489D01*
X103360489Y-82526613D01*
X103419799Y-82423886D01*
X103450500Y-82309309D01*
X103450500Y-82190691D01*
X103419799Y-82076114D01*
X103419797Y-82076111D01*
X103419797Y-82076109D01*
X103360492Y-81973391D01*
X103360490Y-81973389D01*
X103360489Y-81973387D01*
X103276613Y-81889511D01*
X103276610Y-81889509D01*
X103276608Y-81889507D01*
X103173889Y-81830202D01*
X103173890Y-81830202D01*
X103160351Y-81826574D01*
X103059309Y-81799500D01*
X102940691Y-81799500D01*
X102870567Y-81818289D01*
X102826109Y-81830202D01*
X102723391Y-81889507D01*
X102639507Y-81973391D01*
X102580202Y-82076109D01*
X102580201Y-82076114D01*
X102549500Y-82190691D01*
X92500500Y-82190691D01*
X92500500Y-80990691D01*
X112099500Y-80990691D01*
X112099500Y-81109309D01*
X112126574Y-81210351D01*
X112130202Y-81223890D01*
X112189507Y-81326608D01*
X112189509Y-81326610D01*
X112189511Y-81326613D01*
X112273387Y-81410489D01*
X112273389Y-81410490D01*
X112273391Y-81410492D01*
X112376110Y-81469797D01*
X112376111Y-81469797D01*
X112376114Y-81469799D01*
X112490691Y-81500500D01*
X112490693Y-81500500D01*
X112609307Y-81500500D01*
X112609309Y-81500500D01*
X112723886Y-81469799D01*
X112723888Y-81469797D01*
X112723890Y-81469797D01*
X112826608Y-81410492D01*
X112826608Y-81410491D01*
X112826613Y-81410489D01*
X112910489Y-81326613D01*
X112969799Y-81223886D01*
X113000500Y-81109309D01*
X113000500Y-80990691D01*
X112969799Y-80876114D01*
X112969797Y-80876111D01*
X112969797Y-80876109D01*
X112910492Y-80773391D01*
X112910490Y-80773389D01*
X112910489Y-80773387D01*
X112826613Y-80689511D01*
X112826610Y-80689509D01*
X112826608Y-80689507D01*
X112723889Y-80630202D01*
X112723890Y-80630202D01*
X112710351Y-80626574D01*
X112609309Y-80599500D01*
X112490691Y-80599500D01*
X112449669Y-80610492D01*
X112376109Y-80630202D01*
X112273391Y-80689507D01*
X112189507Y-80773391D01*
X112130202Y-80876109D01*
X112130201Y-80876114D01*
X112099500Y-80990691D01*
X92500500Y-80990691D01*
X92500500Y-79690691D01*
X94124500Y-79690691D01*
X94124500Y-79809309D01*
X94145989Y-79889507D01*
X94155202Y-79923890D01*
X94214507Y-80026608D01*
X94214509Y-80026610D01*
X94214511Y-80026613D01*
X94298387Y-80110489D01*
X94298389Y-80110490D01*
X94298391Y-80110492D01*
X94401110Y-80169797D01*
X94401111Y-80169797D01*
X94401114Y-80169799D01*
X94515691Y-80200500D01*
X94515693Y-80200500D01*
X94634307Y-80200500D01*
X94634309Y-80200500D01*
X94748886Y-80169799D01*
X94748888Y-80169797D01*
X94748890Y-80169797D01*
X94851608Y-80110492D01*
X94851608Y-80110491D01*
X94851613Y-80110489D01*
X94879998Y-80082103D01*
X94934513Y-80054328D01*
X94994945Y-80063899D01*
X95020000Y-80082102D01*
X95048387Y-80110489D01*
X95048389Y-80110490D01*
X95048391Y-80110492D01*
X95151110Y-80169797D01*
X95151111Y-80169797D01*
X95151114Y-80169799D01*
X95265691Y-80200500D01*
X95265693Y-80200500D01*
X95384307Y-80200500D01*
X95384309Y-80200500D01*
X95498886Y-80169799D01*
X95498888Y-80169797D01*
X95498890Y-80169797D01*
X95601608Y-80110492D01*
X95601608Y-80110491D01*
X95601613Y-80110489D01*
X95629998Y-80082103D01*
X95684513Y-80054328D01*
X95744945Y-80063899D01*
X95770000Y-80082102D01*
X95798387Y-80110489D01*
X95798389Y-80110490D01*
X95798391Y-80110492D01*
X95901110Y-80169797D01*
X95901111Y-80169797D01*
X95901114Y-80169799D01*
X96015691Y-80200500D01*
X96015693Y-80200500D01*
X96134307Y-80200500D01*
X96134309Y-80200500D01*
X96170916Y-80190691D01*
X102549500Y-80190691D01*
X102549500Y-80309309D01*
X102576574Y-80410351D01*
X102580202Y-80423890D01*
X102639507Y-80526608D01*
X102639509Y-80526610D01*
X102639511Y-80526613D01*
X102723387Y-80610489D01*
X102723389Y-80610490D01*
X102723391Y-80610492D01*
X102826110Y-80669797D01*
X102826111Y-80669797D01*
X102826114Y-80669799D01*
X102940691Y-80700500D01*
X102940693Y-80700500D01*
X103059307Y-80700500D01*
X103059309Y-80700500D01*
X103173886Y-80669799D01*
X103173888Y-80669797D01*
X103173890Y-80669797D01*
X103276608Y-80610492D01*
X103276608Y-80610491D01*
X103276613Y-80610489D01*
X103360489Y-80526613D01*
X103419799Y-80423886D01*
X103450500Y-80309309D01*
X103450500Y-80190691D01*
X103419799Y-80076114D01*
X103419797Y-80076111D01*
X103419797Y-80076109D01*
X103360492Y-79973391D01*
X103360490Y-79973389D01*
X103360489Y-79973387D01*
X103276613Y-79889511D01*
X103276610Y-79889509D01*
X103276608Y-79889507D01*
X103173889Y-79830202D01*
X103173890Y-79830202D01*
X103160351Y-79826574D01*
X103059309Y-79799500D01*
X102940691Y-79799500D01*
X102904084Y-79809309D01*
X102826109Y-79830202D01*
X102723391Y-79889507D01*
X102639507Y-79973391D01*
X102580202Y-80076109D01*
X102570989Y-80110492D01*
X102549500Y-80190691D01*
X96170916Y-80190691D01*
X96248886Y-80169799D01*
X96248888Y-80169797D01*
X96248890Y-80169797D01*
X96351608Y-80110492D01*
X96351608Y-80110491D01*
X96351613Y-80110489D01*
X96435489Y-80026613D01*
X96466217Y-79973391D01*
X96494797Y-79923890D01*
X96494797Y-79923888D01*
X96494799Y-79923886D01*
X96525500Y-79809309D01*
X96525500Y-79690691D01*
X96494799Y-79576114D01*
X96494797Y-79576111D01*
X96494797Y-79576109D01*
X96435492Y-79473391D01*
X96435490Y-79473389D01*
X96435489Y-79473387D01*
X96351613Y-79389511D01*
X96351610Y-79389509D01*
X96351608Y-79389507D01*
X96248889Y-79330202D01*
X96248890Y-79330202D01*
X96235351Y-79326574D01*
X96134309Y-79299500D01*
X96015691Y-79299500D01*
X95945567Y-79318289D01*
X95901109Y-79330202D01*
X95798391Y-79389507D01*
X95770003Y-79417895D01*
X95715486Y-79445671D01*
X95655054Y-79436099D01*
X95629997Y-79417895D01*
X95601613Y-79389511D01*
X95601610Y-79389509D01*
X95601609Y-79389508D01*
X95601608Y-79389507D01*
X95498889Y-79330202D01*
X95498890Y-79330202D01*
X95485351Y-79326574D01*
X95384309Y-79299500D01*
X95265691Y-79299500D01*
X95195567Y-79318289D01*
X95151109Y-79330202D01*
X95048391Y-79389507D01*
X95020003Y-79417895D01*
X94965486Y-79445671D01*
X94905054Y-79436099D01*
X94879997Y-79417895D01*
X94851613Y-79389511D01*
X94851610Y-79389509D01*
X94851609Y-79389508D01*
X94851608Y-79389507D01*
X94748889Y-79330202D01*
X94748890Y-79330202D01*
X94735351Y-79326574D01*
X94634309Y-79299500D01*
X94515691Y-79299500D01*
X94445567Y-79318289D01*
X94401109Y-79330202D01*
X94298391Y-79389507D01*
X94214507Y-79473391D01*
X94155202Y-79576109D01*
X94155201Y-79576114D01*
X94124500Y-79690691D01*
X92500500Y-79690691D01*
X92500500Y-76440691D01*
X110599500Y-76440691D01*
X110599500Y-76559309D01*
X110626574Y-76660351D01*
X110630202Y-76673890D01*
X110689507Y-76776608D01*
X110689509Y-76776610D01*
X110689511Y-76776613D01*
X110773387Y-76860489D01*
X110773389Y-76860490D01*
X110773391Y-76860492D01*
X110876110Y-76919797D01*
X110876111Y-76919797D01*
X110876114Y-76919799D01*
X110990691Y-76950500D01*
X110990693Y-76950500D01*
X111109307Y-76950500D01*
X111109309Y-76950500D01*
X111223886Y-76919799D01*
X111223888Y-76919797D01*
X111223890Y-76919797D01*
X111326608Y-76860492D01*
X111326608Y-76860491D01*
X111326613Y-76860489D01*
X111410489Y-76776613D01*
X111469799Y-76673886D01*
X111500500Y-76559309D01*
X111500500Y-76440691D01*
X111469799Y-76326114D01*
X111469797Y-76326111D01*
X111469797Y-76326109D01*
X111410492Y-76223391D01*
X111410490Y-76223389D01*
X111410489Y-76223387D01*
X111326613Y-76139511D01*
X111326610Y-76139509D01*
X111326608Y-76139507D01*
X111223889Y-76080202D01*
X111223890Y-76080202D01*
X111210351Y-76076574D01*
X111109309Y-76049500D01*
X110990691Y-76049500D01*
X110920567Y-76068289D01*
X110876109Y-76080202D01*
X110773391Y-76139507D01*
X110689507Y-76223391D01*
X110630202Y-76326109D01*
X110630201Y-76326114D01*
X110599500Y-76440691D01*
X92500500Y-76440691D01*
X92500500Y-74440691D01*
X104299500Y-74440691D01*
X104299500Y-74559309D01*
X104326574Y-74660351D01*
X104330202Y-74673890D01*
X104389507Y-74776608D01*
X104389509Y-74776610D01*
X104389511Y-74776613D01*
X104473387Y-74860489D01*
X104473389Y-74860490D01*
X104473391Y-74860492D01*
X104576110Y-74919797D01*
X104576111Y-74919797D01*
X104576114Y-74919799D01*
X104690691Y-74950500D01*
X104690693Y-74950500D01*
X104809307Y-74950500D01*
X104809309Y-74950500D01*
X104923886Y-74919799D01*
X104923888Y-74919797D01*
X104923890Y-74919797D01*
X105026608Y-74860492D01*
X105026608Y-74860491D01*
X105026613Y-74860489D01*
X105110489Y-74776613D01*
X105169799Y-74673886D01*
X105200500Y-74559309D01*
X105200500Y-74440691D01*
X105169799Y-74326114D01*
X105169797Y-74326111D01*
X105169797Y-74326109D01*
X105110492Y-74223391D01*
X105110490Y-74223389D01*
X105110489Y-74223387D01*
X105026613Y-74139511D01*
X105026610Y-74139509D01*
X105026608Y-74139507D01*
X104923889Y-74080202D01*
X104923890Y-74080202D01*
X104910351Y-74076574D01*
X104809309Y-74049500D01*
X104690691Y-74049500D01*
X104620567Y-74068289D01*
X104576109Y-74080202D01*
X104473391Y-74139507D01*
X104389507Y-74223391D01*
X104330202Y-74326109D01*
X104330201Y-74326114D01*
X104299500Y-74440691D01*
X92500500Y-74440691D01*
X92500500Y-73240691D01*
X113449500Y-73240691D01*
X113449500Y-73359309D01*
X113466805Y-73423890D01*
X113480202Y-73473890D01*
X113539507Y-73576608D01*
X113539509Y-73576610D01*
X113539511Y-73576613D01*
X113623387Y-73660489D01*
X113623389Y-73660490D01*
X113623391Y-73660492D01*
X113726110Y-73719797D01*
X113726111Y-73719797D01*
X113726114Y-73719799D01*
X113840691Y-73750500D01*
X113840693Y-73750500D01*
X113959307Y-73750500D01*
X113959309Y-73750500D01*
X114073886Y-73719799D01*
X114073888Y-73719797D01*
X114073890Y-73719797D01*
X114176608Y-73660492D01*
X114176608Y-73660491D01*
X114176613Y-73660489D01*
X114260489Y-73576613D01*
X114319799Y-73473886D01*
X114350500Y-73359309D01*
X114350500Y-73240691D01*
X114337102Y-73190691D01*
X114549500Y-73190691D01*
X114549500Y-73309309D01*
X114562897Y-73359307D01*
X114580202Y-73423890D01*
X114639507Y-73526608D01*
X114639509Y-73526610D01*
X114639511Y-73526613D01*
X114723387Y-73610489D01*
X114723389Y-73610490D01*
X114723391Y-73610492D01*
X114826110Y-73669797D01*
X114826111Y-73669797D01*
X114826114Y-73669799D01*
X114940691Y-73700500D01*
X114940693Y-73700500D01*
X115059307Y-73700500D01*
X115059309Y-73700500D01*
X115173886Y-73669799D01*
X115173888Y-73669797D01*
X115173890Y-73669797D01*
X115276608Y-73610492D01*
X115276608Y-73610491D01*
X115276613Y-73610489D01*
X115360489Y-73526613D01*
X115419799Y-73423886D01*
X115450500Y-73309309D01*
X115450500Y-73190691D01*
X122549500Y-73190691D01*
X122549500Y-73309309D01*
X122562897Y-73359307D01*
X122580202Y-73423890D01*
X122639507Y-73526608D01*
X122639509Y-73526610D01*
X122639511Y-73526613D01*
X122723387Y-73610489D01*
X122723389Y-73610490D01*
X122723391Y-73610492D01*
X122826110Y-73669797D01*
X122826111Y-73669797D01*
X122826114Y-73669799D01*
X122940691Y-73700500D01*
X122940693Y-73700500D01*
X123059307Y-73700500D01*
X123059309Y-73700500D01*
X123173886Y-73669799D01*
X123173888Y-73669797D01*
X123173890Y-73669797D01*
X123276608Y-73610492D01*
X123276608Y-73610491D01*
X123276613Y-73610489D01*
X123360489Y-73526613D01*
X123419799Y-73423886D01*
X123450500Y-73309309D01*
X123450500Y-73190691D01*
X123419799Y-73076114D01*
X123419797Y-73076111D01*
X123419797Y-73076109D01*
X123360492Y-72973391D01*
X123360490Y-72973389D01*
X123360489Y-72973387D01*
X123276613Y-72889511D01*
X123276610Y-72889509D01*
X123276608Y-72889507D01*
X123173889Y-72830202D01*
X123173890Y-72830202D01*
X123160351Y-72826574D01*
X123059309Y-72799500D01*
X122940691Y-72799500D01*
X122870567Y-72818289D01*
X122826109Y-72830202D01*
X122723391Y-72889507D01*
X122639507Y-72973391D01*
X122580202Y-73076109D01*
X122580201Y-73076114D01*
X122549500Y-73190691D01*
X115450500Y-73190691D01*
X115419799Y-73076114D01*
X115419797Y-73076111D01*
X115419797Y-73076109D01*
X115360492Y-72973391D01*
X115360490Y-72973389D01*
X115360489Y-72973387D01*
X115276613Y-72889511D01*
X115276610Y-72889509D01*
X115276608Y-72889507D01*
X115173889Y-72830202D01*
X115173890Y-72830202D01*
X115160351Y-72826574D01*
X115059309Y-72799500D01*
X114940691Y-72799500D01*
X114870567Y-72818289D01*
X114826109Y-72830202D01*
X114723391Y-72889507D01*
X114639507Y-72973391D01*
X114580202Y-73076109D01*
X114580201Y-73076114D01*
X114549500Y-73190691D01*
X114337102Y-73190691D01*
X114319799Y-73126114D01*
X114319797Y-73126111D01*
X114319797Y-73126109D01*
X114260492Y-73023391D01*
X114260490Y-73023389D01*
X114260489Y-73023387D01*
X114176613Y-72939511D01*
X114176610Y-72939509D01*
X114176608Y-72939507D01*
X114073889Y-72880202D01*
X114073890Y-72880202D01*
X114060351Y-72876574D01*
X113959309Y-72849500D01*
X113840691Y-72849500D01*
X113770567Y-72868289D01*
X113726109Y-72880202D01*
X113623391Y-72939507D01*
X113539507Y-73023391D01*
X113480202Y-73126109D01*
X113480201Y-73126114D01*
X113449500Y-73240691D01*
X92500500Y-73240691D01*
X92500500Y-71040691D01*
X113449500Y-71040691D01*
X113449500Y-71159309D01*
X113476574Y-71260351D01*
X113480202Y-71273890D01*
X113539507Y-71376608D01*
X113539509Y-71376610D01*
X113539511Y-71376613D01*
X113623387Y-71460489D01*
X113623389Y-71460490D01*
X113623391Y-71460492D01*
X113726110Y-71519797D01*
X113726111Y-71519797D01*
X113726114Y-71519799D01*
X113840691Y-71550500D01*
X113840693Y-71550500D01*
X113959307Y-71550500D01*
X113959309Y-71550500D01*
X114073886Y-71519799D01*
X114073888Y-71519797D01*
X114073890Y-71519797D01*
X114176608Y-71460492D01*
X114176608Y-71460491D01*
X114176613Y-71460489D01*
X114260489Y-71376613D01*
X114319799Y-71273886D01*
X114350500Y-71159309D01*
X114350500Y-71040691D01*
X114319799Y-70926114D01*
X114319797Y-70926111D01*
X114319797Y-70926109D01*
X114260492Y-70823391D01*
X114260490Y-70823389D01*
X114260489Y-70823387D01*
X114176613Y-70739511D01*
X114176610Y-70739509D01*
X114176608Y-70739507D01*
X114073889Y-70680202D01*
X114073890Y-70680202D01*
X114050318Y-70673886D01*
X113959309Y-70649500D01*
X113840691Y-70649500D01*
X113770567Y-70668289D01*
X113726109Y-70680202D01*
X113623391Y-70739507D01*
X113539507Y-70823391D01*
X113480202Y-70926109D01*
X113480201Y-70926114D01*
X113449500Y-71040691D01*
X92500500Y-71040691D01*
X92500500Y-69640691D01*
X109999500Y-69640691D01*
X109999500Y-69759309D01*
X110026574Y-69860351D01*
X110030202Y-69873890D01*
X110089507Y-69976608D01*
X110089509Y-69976610D01*
X110089511Y-69976613D01*
X110142896Y-70029998D01*
X110170672Y-70084513D01*
X110161101Y-70144945D01*
X110142897Y-70170000D01*
X110089511Y-70223387D01*
X110089508Y-70223390D01*
X110089507Y-70223391D01*
X110030202Y-70326109D01*
X110030201Y-70326114D01*
X109999500Y-70440691D01*
X109999500Y-70559309D01*
X110023667Y-70649500D01*
X110030202Y-70673890D01*
X110089507Y-70776608D01*
X110089509Y-70776610D01*
X110089511Y-70776613D01*
X110173387Y-70860489D01*
X110173389Y-70860490D01*
X110173391Y-70860492D01*
X110276110Y-70919797D01*
X110276111Y-70919797D01*
X110276114Y-70919799D01*
X110390691Y-70950500D01*
X110390693Y-70950500D01*
X110509307Y-70950500D01*
X110509309Y-70950500D01*
X110623886Y-70919799D01*
X110623888Y-70919797D01*
X110623890Y-70919797D01*
X110726608Y-70860492D01*
X110726608Y-70860491D01*
X110726613Y-70860489D01*
X110810489Y-70776613D01*
X110831910Y-70739511D01*
X110869797Y-70673890D01*
X110869797Y-70673888D01*
X110869799Y-70673886D01*
X110900500Y-70559309D01*
X110900500Y-70440691D01*
X110869799Y-70326114D01*
X110869797Y-70326111D01*
X110869797Y-70326109D01*
X110810492Y-70223391D01*
X110810490Y-70223389D01*
X110810489Y-70223387D01*
X110757103Y-70170001D01*
X110729328Y-70115487D01*
X110738899Y-70055055D01*
X110757102Y-70029999D01*
X110810489Y-69976613D01*
X110869799Y-69873886D01*
X110900500Y-69759309D01*
X110900500Y-69640691D01*
X110869799Y-69526114D01*
X110869797Y-69526111D01*
X110869797Y-69526109D01*
X110810492Y-69423391D01*
X110810490Y-69423389D01*
X110810489Y-69423387D01*
X110726613Y-69339511D01*
X110726610Y-69339509D01*
X110726608Y-69339507D01*
X110623889Y-69280202D01*
X110623890Y-69280202D01*
X110610351Y-69276574D01*
X110509309Y-69249500D01*
X110390691Y-69249500D01*
X110320567Y-69268289D01*
X110276109Y-69280202D01*
X110173391Y-69339507D01*
X110089507Y-69423391D01*
X110030202Y-69526109D01*
X110030201Y-69526114D01*
X109999500Y-69640691D01*
X92500500Y-69640691D01*
X92500500Y-68940691D01*
X112978050Y-68940691D01*
X112978050Y-69059309D01*
X113005124Y-69160351D01*
X113008752Y-69173890D01*
X113068057Y-69276608D01*
X113068059Y-69276610D01*
X113068061Y-69276613D01*
X113151937Y-69360489D01*
X113151939Y-69360490D01*
X113151941Y-69360492D01*
X113254660Y-69419797D01*
X113254661Y-69419797D01*
X113254664Y-69419799D01*
X113369241Y-69450500D01*
X113369243Y-69450500D01*
X113487857Y-69450500D01*
X113487859Y-69450500D01*
X113602436Y-69419799D01*
X113602438Y-69419797D01*
X113602440Y-69419797D01*
X113705158Y-69360492D01*
X113705158Y-69360491D01*
X113705163Y-69360489D01*
X113789039Y-69276613D01*
X113848349Y-69173886D01*
X113879050Y-69059309D01*
X113879050Y-68940691D01*
X113848349Y-68826114D01*
X113848347Y-68826111D01*
X113848347Y-68826109D01*
X113789042Y-68723391D01*
X113789040Y-68723389D01*
X113789039Y-68723387D01*
X113705163Y-68639511D01*
X113705160Y-68639509D01*
X113705158Y-68639507D01*
X113602439Y-68580202D01*
X113602440Y-68580202D01*
X113588901Y-68576574D01*
X113487859Y-68549500D01*
X113369241Y-68549500D01*
X113299117Y-68568289D01*
X113254659Y-68580202D01*
X113151941Y-68639507D01*
X113068057Y-68723391D01*
X113008752Y-68826109D01*
X113008751Y-68826114D01*
X112978050Y-68940691D01*
X92500500Y-68940691D01*
X92500500Y-65934603D01*
X94055588Y-65934603D01*
X94055588Y-66053221D01*
X94082662Y-66154263D01*
X94086290Y-66167802D01*
X94145595Y-66270520D01*
X94145597Y-66270522D01*
X94145599Y-66270525D01*
X94229475Y-66354401D01*
X94229477Y-66354402D01*
X94229479Y-66354404D01*
X94332198Y-66413709D01*
X94332199Y-66413709D01*
X94332202Y-66413711D01*
X94446779Y-66444412D01*
X94446781Y-66444412D01*
X94565395Y-66444412D01*
X94565397Y-66444412D01*
X94679974Y-66413711D01*
X94679976Y-66413709D01*
X94679978Y-66413709D01*
X94782696Y-66354404D01*
X94782696Y-66354403D01*
X94782701Y-66354401D01*
X94866577Y-66270525D01*
X94925887Y-66167798D01*
X94956588Y-66053221D01*
X94956588Y-65934603D01*
X94925887Y-65820026D01*
X94925885Y-65820023D01*
X94925885Y-65820021D01*
X94866580Y-65717303D01*
X94866578Y-65717301D01*
X94866577Y-65717299D01*
X94782701Y-65633423D01*
X94782698Y-65633421D01*
X94782696Y-65633419D01*
X94679977Y-65574114D01*
X94679978Y-65574114D01*
X94666439Y-65570486D01*
X94565397Y-65543412D01*
X94446779Y-65543412D01*
X94376655Y-65562201D01*
X94332197Y-65574114D01*
X94229479Y-65633419D01*
X94145595Y-65717303D01*
X94086290Y-65820021D01*
X94086289Y-65820026D01*
X94055588Y-65934603D01*
X92500500Y-65934603D01*
X92500500Y-63255691D01*
X99114500Y-63255691D01*
X99114500Y-63374309D01*
X99141574Y-63475351D01*
X99145202Y-63488890D01*
X99204507Y-63591608D01*
X99204509Y-63591610D01*
X99204511Y-63591613D01*
X99288387Y-63675489D01*
X99288389Y-63675490D01*
X99288391Y-63675492D01*
X99391110Y-63734797D01*
X99391111Y-63734797D01*
X99391114Y-63734799D01*
X99505691Y-63765500D01*
X99505693Y-63765500D01*
X99624307Y-63765500D01*
X99624309Y-63765500D01*
X99738886Y-63734799D01*
X99738888Y-63734797D01*
X99738890Y-63734797D01*
X99841608Y-63675492D01*
X99841608Y-63675491D01*
X99841613Y-63675489D01*
X99925489Y-63591613D01*
X99984799Y-63488886D01*
X100015500Y-63374309D01*
X100015500Y-63255691D01*
X99984799Y-63141114D01*
X99984797Y-63141111D01*
X99984797Y-63141109D01*
X99925492Y-63038391D01*
X99925490Y-63038389D01*
X99925489Y-63038387D01*
X99841613Y-62954511D01*
X99841610Y-62954509D01*
X99841608Y-62954507D01*
X99738889Y-62895202D01*
X99738890Y-62895202D01*
X99725351Y-62891574D01*
X99624309Y-62864500D01*
X99505691Y-62864500D01*
X99435567Y-62883289D01*
X99391109Y-62895202D01*
X99288391Y-62954507D01*
X99204507Y-63038391D01*
X99145202Y-63141109D01*
X99145201Y-63141114D01*
X99114500Y-63255691D01*
X92500500Y-63255691D01*
X92500500Y-61190691D01*
X115799500Y-61190691D01*
X115799500Y-61309309D01*
X115816805Y-61373890D01*
X115830202Y-61423890D01*
X115889507Y-61526608D01*
X115889509Y-61526610D01*
X115889511Y-61526613D01*
X115973387Y-61610489D01*
X115973389Y-61610490D01*
X115973391Y-61610492D01*
X116076110Y-61669797D01*
X116076111Y-61669797D01*
X116076114Y-61669799D01*
X116190691Y-61700500D01*
X116190693Y-61700500D01*
X116309307Y-61700500D01*
X116309309Y-61700500D01*
X116423886Y-61669799D01*
X116423888Y-61669797D01*
X116423890Y-61669797D01*
X116526608Y-61610492D01*
X116526608Y-61610491D01*
X116526613Y-61610489D01*
X116610489Y-61526613D01*
X116669799Y-61423886D01*
X116700500Y-61309309D01*
X116700500Y-61190691D01*
X116687102Y-61140691D01*
X121549500Y-61140691D01*
X121549500Y-61259309D01*
X121562897Y-61309307D01*
X121580202Y-61373890D01*
X121639507Y-61476608D01*
X121639509Y-61476610D01*
X121639511Y-61476613D01*
X121692896Y-61529998D01*
X121720672Y-61584513D01*
X121711101Y-61644945D01*
X121692897Y-61670000D01*
X121662398Y-61700500D01*
X121639508Y-61723390D01*
X121639507Y-61723391D01*
X121580202Y-61826109D01*
X121580201Y-61826114D01*
X121549500Y-61940691D01*
X121549500Y-62059309D01*
X121576574Y-62160351D01*
X121580202Y-62173890D01*
X121639507Y-62276608D01*
X121639509Y-62276610D01*
X121639511Y-62276613D01*
X121723387Y-62360489D01*
X121723389Y-62360490D01*
X121723391Y-62360492D01*
X121826110Y-62419797D01*
X121826111Y-62419797D01*
X121826114Y-62419799D01*
X121940691Y-62450500D01*
X121940693Y-62450500D01*
X122059307Y-62450500D01*
X122059309Y-62450500D01*
X122173886Y-62419799D01*
X122173888Y-62419797D01*
X122173890Y-62419797D01*
X122276608Y-62360492D01*
X122276608Y-62360491D01*
X122276613Y-62360489D01*
X122360489Y-62276613D01*
X122419799Y-62173886D01*
X122450500Y-62059309D01*
X122450500Y-61940691D01*
X122419799Y-61826114D01*
X122419797Y-61826111D01*
X122419797Y-61826109D01*
X122360492Y-61723391D01*
X122360490Y-61723389D01*
X122360489Y-61723387D01*
X122307103Y-61670001D01*
X122279328Y-61615487D01*
X122288899Y-61555055D01*
X122307102Y-61529999D01*
X122360489Y-61476613D01*
X122419799Y-61373886D01*
X122450500Y-61259309D01*
X122450500Y-61140691D01*
X122419799Y-61026114D01*
X122419797Y-61026111D01*
X122419797Y-61026109D01*
X122360492Y-60923391D01*
X122360490Y-60923389D01*
X122360489Y-60923387D01*
X122276613Y-60839511D01*
X122276610Y-60839509D01*
X122276608Y-60839507D01*
X122173889Y-60780202D01*
X122173890Y-60780202D01*
X122160351Y-60776574D01*
X122059309Y-60749500D01*
X121940691Y-60749500D01*
X121870567Y-60768289D01*
X121826109Y-60780202D01*
X121723391Y-60839507D01*
X121639507Y-60923391D01*
X121580202Y-61026109D01*
X121580201Y-61026114D01*
X121549500Y-61140691D01*
X116687102Y-61140691D01*
X116669799Y-61076114D01*
X116669797Y-61076111D01*
X116669797Y-61076109D01*
X116610492Y-60973391D01*
X116610490Y-60973389D01*
X116610489Y-60973387D01*
X116526613Y-60889511D01*
X116526610Y-60889509D01*
X116526608Y-60889507D01*
X116423889Y-60830202D01*
X116423890Y-60830202D01*
X116410351Y-60826574D01*
X116309309Y-60799500D01*
X116190691Y-60799500D01*
X116120567Y-60818289D01*
X116076109Y-60830202D01*
X115973391Y-60889507D01*
X115889507Y-60973391D01*
X115830202Y-61076109D01*
X115830201Y-61076114D01*
X115799500Y-61190691D01*
X92500500Y-61190691D01*
X92500500Y-59104824D01*
X102775874Y-59104824D01*
X102775874Y-59223442D01*
X102802948Y-59324484D01*
X102806576Y-59338023D01*
X102865881Y-59440741D01*
X102865883Y-59440743D01*
X102865885Y-59440746D01*
X102949761Y-59524622D01*
X102949763Y-59524623D01*
X102949765Y-59524625D01*
X103052484Y-59583930D01*
X103052485Y-59583930D01*
X103052488Y-59583932D01*
X103167065Y-59614633D01*
X103167067Y-59614633D01*
X103285681Y-59614633D01*
X103285683Y-59614633D01*
X103400260Y-59583932D01*
X103400262Y-59583930D01*
X103400264Y-59583930D01*
X103502982Y-59524625D01*
X103502982Y-59524624D01*
X103502987Y-59524622D01*
X103586863Y-59440746D01*
X103646173Y-59338019D01*
X103676874Y-59223442D01*
X103676874Y-59104824D01*
X103646173Y-58990247D01*
X103646171Y-58990244D01*
X103646171Y-58990242D01*
X103586866Y-58887524D01*
X103586864Y-58887522D01*
X103586863Y-58887520D01*
X103502987Y-58803644D01*
X103502984Y-58803642D01*
X103502982Y-58803640D01*
X103400263Y-58744335D01*
X103400264Y-58744335D01*
X103386725Y-58740707D01*
X103285683Y-58713633D01*
X103167065Y-58713633D01*
X103096941Y-58732422D01*
X103052483Y-58744335D01*
X102949765Y-58803640D01*
X102865881Y-58887524D01*
X102806576Y-58990242D01*
X102806575Y-58990247D01*
X102775874Y-59104824D01*
X92500500Y-59104824D01*
X92500500Y-56440691D01*
X95049500Y-56440691D01*
X95049500Y-56559309D01*
X95070989Y-56639507D01*
X95080202Y-56673890D01*
X95139507Y-56776608D01*
X95139509Y-56776610D01*
X95139511Y-56776613D01*
X95223387Y-56860489D01*
X95223389Y-56860490D01*
X95223391Y-56860492D01*
X95326110Y-56919797D01*
X95326111Y-56919797D01*
X95326114Y-56919799D01*
X95440691Y-56950500D01*
X95440693Y-56950500D01*
X95559307Y-56950500D01*
X95559309Y-56950500D01*
X95595916Y-56940691D01*
X118299500Y-56940691D01*
X118299500Y-57059309D01*
X118326574Y-57160351D01*
X118330202Y-57173890D01*
X118389507Y-57276608D01*
X118389509Y-57276610D01*
X118389511Y-57276613D01*
X118473387Y-57360489D01*
X118473389Y-57360490D01*
X118473391Y-57360492D01*
X118576110Y-57419797D01*
X118576111Y-57419797D01*
X118576114Y-57419799D01*
X118690691Y-57450500D01*
X118690693Y-57450500D01*
X118809307Y-57450500D01*
X118809309Y-57450500D01*
X118923886Y-57419799D01*
X118923888Y-57419797D01*
X118923890Y-57419797D01*
X119026608Y-57360492D01*
X119026608Y-57360491D01*
X119026613Y-57360489D01*
X119110489Y-57276613D01*
X119169799Y-57173886D01*
X119200500Y-57059309D01*
X119200500Y-56940691D01*
X119169799Y-56826114D01*
X119169797Y-56826111D01*
X119169797Y-56826109D01*
X119110492Y-56723391D01*
X119110490Y-56723389D01*
X119110489Y-56723387D01*
X119026613Y-56639511D01*
X119026610Y-56639509D01*
X119026608Y-56639507D01*
X118923889Y-56580202D01*
X118923890Y-56580202D01*
X118910351Y-56576574D01*
X118809309Y-56549500D01*
X118690691Y-56549500D01*
X118654084Y-56559309D01*
X118576109Y-56580202D01*
X118473391Y-56639507D01*
X118389507Y-56723391D01*
X118330202Y-56826109D01*
X118330201Y-56826114D01*
X118299500Y-56940691D01*
X95595916Y-56940691D01*
X95673886Y-56919799D01*
X95673888Y-56919797D01*
X95673890Y-56919797D01*
X95776608Y-56860492D01*
X95776608Y-56860491D01*
X95776613Y-56860489D01*
X95860489Y-56776613D01*
X95891217Y-56723391D01*
X95919797Y-56673890D01*
X95919797Y-56673888D01*
X95919799Y-56673886D01*
X95950500Y-56559309D01*
X95950500Y-56440691D01*
X95919799Y-56326114D01*
X95919797Y-56326111D01*
X95919797Y-56326109D01*
X95860492Y-56223391D01*
X95860490Y-56223389D01*
X95860489Y-56223387D01*
X95776613Y-56139511D01*
X95776610Y-56139509D01*
X95776608Y-56139507D01*
X95673889Y-56080202D01*
X95673890Y-56080202D01*
X95660351Y-56076574D01*
X95559309Y-56049500D01*
X95440691Y-56049500D01*
X95370567Y-56068289D01*
X95326109Y-56080202D01*
X95223391Y-56139507D01*
X95139507Y-56223391D01*
X95080202Y-56326109D01*
X95080201Y-56326114D01*
X95049500Y-56440691D01*
X92500500Y-56440691D01*
X92500500Y-54636089D01*
X129723490Y-54636089D01*
X129723490Y-54852920D01*
X129757406Y-55067065D01*
X129824410Y-55273282D01*
X129922845Y-55466472D01*
X129922847Y-55466476D01*
X129966029Y-55525910D01*
X130548624Y-54943314D01*
X130555857Y-54970307D01*
X130632873Y-55103703D01*
X130741792Y-55212622D01*
X130875188Y-55289638D01*
X130902177Y-55296869D01*
X130319583Y-55879463D01*
X130319583Y-55879464D01*
X130379016Y-55922645D01*
X130379022Y-55922649D01*
X130572212Y-56021084D01*
X130778429Y-56088088D01*
X130992575Y-56122005D01*
X131209405Y-56122005D01*
X131423550Y-56088088D01*
X131629767Y-56021084D01*
X131822957Y-55922649D01*
X131822962Y-55922645D01*
X131882395Y-55879464D01*
X131299801Y-55296870D01*
X131326792Y-55289638D01*
X131460188Y-55212622D01*
X131569107Y-55103703D01*
X131646123Y-54970307D01*
X131653355Y-54943316D01*
X132235949Y-55525910D01*
X132279130Y-55466477D01*
X132279134Y-55466472D01*
X132377569Y-55273282D01*
X132444573Y-55067065D01*
X132478490Y-54852920D01*
X132478490Y-54636089D01*
X132444573Y-54421944D01*
X132377569Y-54215727D01*
X132279134Y-54022537D01*
X132279130Y-54022531D01*
X132235949Y-53963098D01*
X132235948Y-53963098D01*
X131653354Y-54545692D01*
X131646123Y-54518703D01*
X131569107Y-54385307D01*
X131460188Y-54276388D01*
X131326792Y-54199372D01*
X131299799Y-54192139D01*
X131882395Y-53609544D01*
X131822961Y-53566362D01*
X131822957Y-53566360D01*
X131629767Y-53467925D01*
X131499688Y-53425660D01*
X131450188Y-53389696D01*
X131431281Y-53331505D01*
X131450188Y-53273314D01*
X131499688Y-53237350D01*
X131530281Y-53232505D01*
X131993309Y-53232505D01*
X131993310Y-53232505D01*
X131993311Y-53232504D01*
X131993317Y-53232504D01*
X132015113Y-53228167D01*
X132037212Y-53223772D01*
X132086994Y-53190509D01*
X132120257Y-53140727D01*
X132128990Y-53096825D01*
X132128990Y-51312185D01*
X132128989Y-51312183D01*
X132128989Y-51312177D01*
X132120257Y-51268284D01*
X132120255Y-51268280D01*
X132090261Y-51223391D01*
X132086994Y-51218501D01*
X132086330Y-51218057D01*
X132037214Y-51185239D01*
X132037210Y-51185237D01*
X131993317Y-51176505D01*
X131993310Y-51176505D01*
X130208670Y-51176505D01*
X130208662Y-51176505D01*
X130164769Y-51185237D01*
X130164765Y-51185239D01*
X130114988Y-51218499D01*
X130114984Y-51218503D01*
X130081724Y-51268280D01*
X130081722Y-51268284D01*
X130072990Y-51312177D01*
X130072990Y-53096832D01*
X130081722Y-53140725D01*
X130081723Y-53140727D01*
X130114986Y-53190509D01*
X130164768Y-53223772D01*
X130175817Y-53225969D01*
X130208662Y-53232504D01*
X130208668Y-53232504D01*
X130208670Y-53232505D01*
X130208671Y-53232505D01*
X130671699Y-53232505D01*
X130729890Y-53251412D01*
X130765854Y-53300912D01*
X130765854Y-53362098D01*
X130729890Y-53411598D01*
X130702292Y-53425660D01*
X130572212Y-53467925D01*
X130379028Y-53566357D01*
X130319584Y-53609545D01*
X130902178Y-54192139D01*
X130875188Y-54199372D01*
X130741792Y-54276388D01*
X130632873Y-54385307D01*
X130555857Y-54518703D01*
X130548624Y-54545693D01*
X129966030Y-53963099D01*
X129922842Y-54022543D01*
X129824410Y-54215727D01*
X129757406Y-54421944D01*
X129723490Y-54636089D01*
X92500500Y-54636089D01*
X92500500Y-52145196D01*
X126049500Y-52145196D01*
X126049500Y-52263814D01*
X126076574Y-52364856D01*
X126080202Y-52378395D01*
X126139507Y-52481113D01*
X126139509Y-52481115D01*
X126139511Y-52481118D01*
X126223387Y-52564994D01*
X126223389Y-52564995D01*
X126223391Y-52564997D01*
X126326110Y-52624302D01*
X126326111Y-52624302D01*
X126326114Y-52624304D01*
X126440691Y-52655005D01*
X126440693Y-52655005D01*
X126559307Y-52655005D01*
X126559309Y-52655005D01*
X126673886Y-52624304D01*
X126673888Y-52624302D01*
X126673890Y-52624302D01*
X126776608Y-52564997D01*
X126776608Y-52564996D01*
X126776613Y-52564994D01*
X126860489Y-52481118D01*
X126919799Y-52378391D01*
X126950500Y-52263814D01*
X126950500Y-52145196D01*
X127549500Y-52145196D01*
X127549500Y-52263814D01*
X127576574Y-52364856D01*
X127580202Y-52378395D01*
X127639507Y-52481113D01*
X127639509Y-52481115D01*
X127639511Y-52481118D01*
X127723387Y-52564994D01*
X127723389Y-52564995D01*
X127723391Y-52564997D01*
X127826110Y-52624302D01*
X127826111Y-52624302D01*
X127826114Y-52624304D01*
X127940691Y-52655005D01*
X127940693Y-52655005D01*
X128059307Y-52655005D01*
X128059309Y-52655005D01*
X128173886Y-52624304D01*
X128173888Y-52624302D01*
X128173890Y-52624302D01*
X128276608Y-52564997D01*
X128276608Y-52564996D01*
X128276613Y-52564994D01*
X128360489Y-52481118D01*
X128419799Y-52378391D01*
X128450500Y-52263814D01*
X128450500Y-52145196D01*
X128419799Y-52030619D01*
X128419797Y-52030616D01*
X128419797Y-52030614D01*
X128360492Y-51927896D01*
X128360490Y-51927894D01*
X128360489Y-51927892D01*
X128276613Y-51844016D01*
X128276610Y-51844014D01*
X128276608Y-51844012D01*
X128173889Y-51784707D01*
X128173890Y-51784707D01*
X128160351Y-51781079D01*
X128059309Y-51754005D01*
X127940691Y-51754005D01*
X127870567Y-51772794D01*
X127826109Y-51784707D01*
X127723391Y-51844012D01*
X127639507Y-51927896D01*
X127580202Y-52030614D01*
X127580201Y-52030619D01*
X127549500Y-52145196D01*
X126950500Y-52145196D01*
X126919799Y-52030619D01*
X126919797Y-52030616D01*
X126919797Y-52030614D01*
X126860492Y-51927896D01*
X126860490Y-51927894D01*
X126860489Y-51927892D01*
X126776613Y-51844016D01*
X126776610Y-51844014D01*
X126776608Y-51844012D01*
X126673889Y-51784707D01*
X126673890Y-51784707D01*
X126660351Y-51781079D01*
X126559309Y-51754005D01*
X126440691Y-51754005D01*
X126370567Y-51772794D01*
X126326109Y-51784707D01*
X126223391Y-51844012D01*
X126139507Y-51927896D01*
X126080202Y-52030614D01*
X126080201Y-52030619D01*
X126049500Y-52145196D01*
X92500500Y-52145196D01*
X92500500Y-51440691D01*
X113299500Y-51440691D01*
X113299500Y-51559309D01*
X113326574Y-51660351D01*
X113330202Y-51673890D01*
X113389507Y-51776608D01*
X113389509Y-51776610D01*
X113389511Y-51776613D01*
X113473387Y-51860489D01*
X113473389Y-51860490D01*
X113473391Y-51860492D01*
X113576110Y-51919797D01*
X113576111Y-51919797D01*
X113576114Y-51919799D01*
X113690691Y-51950500D01*
X113690693Y-51950500D01*
X113809307Y-51950500D01*
X113809309Y-51950500D01*
X113923886Y-51919799D01*
X113923888Y-51919797D01*
X113923890Y-51919797D01*
X114026608Y-51860492D01*
X114026608Y-51860491D01*
X114026613Y-51860489D01*
X114110489Y-51776613D01*
X114169799Y-51673886D01*
X114200500Y-51559309D01*
X114200500Y-51440691D01*
X114169799Y-51326114D01*
X114169798Y-51326113D01*
X114169798Y-51326111D01*
X114169797Y-51326110D01*
X114110492Y-51223391D01*
X114110490Y-51223389D01*
X114110489Y-51223387D01*
X114026613Y-51139511D01*
X114026610Y-51139509D01*
X114026608Y-51139507D01*
X113923889Y-51080202D01*
X113923890Y-51080202D01*
X113910351Y-51076574D01*
X113809309Y-51049500D01*
X113690691Y-51049500D01*
X113620567Y-51068289D01*
X113576109Y-51080202D01*
X113473391Y-51139507D01*
X113389507Y-51223391D01*
X113330202Y-51326109D01*
X113330201Y-51326114D01*
X113299500Y-51440691D01*
X92500500Y-51440691D01*
X92500500Y-50190691D01*
X113299500Y-50190691D01*
X113299500Y-50309309D01*
X113326574Y-50410351D01*
X113330202Y-50423890D01*
X113389507Y-50526608D01*
X113389509Y-50526610D01*
X113389511Y-50526613D01*
X113473387Y-50610489D01*
X113473389Y-50610490D01*
X113473391Y-50610492D01*
X113576110Y-50669797D01*
X113576111Y-50669797D01*
X113576114Y-50669799D01*
X113690691Y-50700500D01*
X113690693Y-50700500D01*
X113809307Y-50700500D01*
X113809309Y-50700500D01*
X113923886Y-50669799D01*
X113923888Y-50669797D01*
X113923890Y-50669797D01*
X114026608Y-50610492D01*
X114026608Y-50610491D01*
X114026613Y-50610489D01*
X114110489Y-50526613D01*
X114169799Y-50423886D01*
X114200500Y-50309309D01*
X114200500Y-50190691D01*
X114169799Y-50076114D01*
X114169797Y-50076111D01*
X114169797Y-50076109D01*
X114110492Y-49973391D01*
X114110490Y-49973389D01*
X114110489Y-49973387D01*
X114026613Y-49889511D01*
X114026610Y-49889509D01*
X114026608Y-49889507D01*
X113923889Y-49830202D01*
X113923890Y-49830202D01*
X113910351Y-49826574D01*
X113809309Y-49799500D01*
X113690691Y-49799500D01*
X113620567Y-49818289D01*
X113576109Y-49830202D01*
X113473391Y-49889507D01*
X113389507Y-49973391D01*
X113330202Y-50076109D01*
X113330201Y-50076114D01*
X113299500Y-50190691D01*
X92500500Y-50190691D01*
X92500500Y-47690691D01*
X114249500Y-47690691D01*
X114249500Y-47809309D01*
X114276574Y-47910351D01*
X114280202Y-47923890D01*
X114339507Y-48026608D01*
X114339509Y-48026610D01*
X114339511Y-48026613D01*
X114423387Y-48110489D01*
X114423389Y-48110490D01*
X114423391Y-48110492D01*
X114526110Y-48169797D01*
X114526111Y-48169797D01*
X114526114Y-48169799D01*
X114640691Y-48200500D01*
X114640693Y-48200500D01*
X114759307Y-48200500D01*
X114759309Y-48200500D01*
X114873886Y-48169799D01*
X114873888Y-48169797D01*
X114873890Y-48169797D01*
X114976608Y-48110492D01*
X114976608Y-48110491D01*
X114976613Y-48110489D01*
X115060489Y-48026613D01*
X115119799Y-47923886D01*
X115150500Y-47809309D01*
X115150500Y-47690691D01*
X115119799Y-47576114D01*
X115119797Y-47576111D01*
X115119797Y-47576109D01*
X115060492Y-47473391D01*
X115060490Y-47473389D01*
X115060489Y-47473387D01*
X114976613Y-47389511D01*
X114976610Y-47389509D01*
X114976608Y-47389507D01*
X114873889Y-47330202D01*
X114873890Y-47330202D01*
X114865927Y-47328068D01*
X114759309Y-47299500D01*
X114640691Y-47299500D01*
X114570567Y-47318289D01*
X114526109Y-47330202D01*
X114423391Y-47389507D01*
X114339507Y-47473391D01*
X114280202Y-47576109D01*
X114280201Y-47576114D01*
X114249500Y-47690691D01*
X92500500Y-47690691D01*
X92500500Y-47252577D01*
X116675974Y-47252577D01*
X116675974Y-47252578D01*
X116781234Y-47296178D01*
X116926128Y-47324999D01*
X116926132Y-47325000D01*
X117073868Y-47325000D01*
X117073871Y-47324999D01*
X117218764Y-47296178D01*
X117218770Y-47296176D01*
X117324023Y-47252577D01*
X116999999Y-46928553D01*
X116675974Y-47252577D01*
X92500500Y-47252577D01*
X92500500Y-45926128D01*
X115300000Y-45926128D01*
X115300000Y-46073871D01*
X115328822Y-46218766D01*
X115328822Y-46218768D01*
X115372420Y-46324024D01*
X115696445Y-45999999D01*
X115372421Y-45675974D01*
X115372420Y-45675974D01*
X115328822Y-45781231D01*
X115328822Y-45781233D01*
X115300000Y-45926128D01*
X92500500Y-45926128D01*
X92500500Y-45190691D01*
X105299500Y-45190691D01*
X105299500Y-45309309D01*
X105325170Y-45405109D01*
X105330202Y-45423890D01*
X105389507Y-45526608D01*
X105389509Y-45526610D01*
X105389511Y-45526613D01*
X105473387Y-45610489D01*
X105473389Y-45610490D01*
X105473391Y-45610492D01*
X105576110Y-45669797D01*
X105576111Y-45669797D01*
X105576114Y-45669799D01*
X105690691Y-45700500D01*
X105690693Y-45700500D01*
X105809307Y-45700500D01*
X105809309Y-45700500D01*
X105923886Y-45669799D01*
X105923888Y-45669797D01*
X105923890Y-45669797D01*
X106026608Y-45610492D01*
X106026608Y-45610491D01*
X106026613Y-45610489D01*
X106110489Y-45526613D01*
X106169156Y-45425000D01*
X106169797Y-45423890D01*
X106169797Y-45423888D01*
X106169799Y-45423886D01*
X106200500Y-45309309D01*
X106200500Y-45190691D01*
X107549500Y-45190691D01*
X107549500Y-45309309D01*
X107575170Y-45405109D01*
X107580202Y-45423890D01*
X107639507Y-45526608D01*
X107639509Y-45526610D01*
X107639511Y-45526613D01*
X107723387Y-45610489D01*
X107723389Y-45610490D01*
X107723391Y-45610492D01*
X107826110Y-45669797D01*
X107826111Y-45669797D01*
X107826114Y-45669799D01*
X107940691Y-45700500D01*
X107940693Y-45700500D01*
X108059307Y-45700500D01*
X108059309Y-45700500D01*
X108173886Y-45669799D01*
X108173888Y-45669797D01*
X108173890Y-45669797D01*
X108276608Y-45610492D01*
X108276608Y-45610491D01*
X108276613Y-45610489D01*
X108360489Y-45526613D01*
X108419156Y-45425000D01*
X108419797Y-45423890D01*
X108419797Y-45423888D01*
X108419799Y-45423886D01*
X108446987Y-45322420D01*
X115725974Y-45322420D01*
X116156773Y-45753219D01*
X116184550Y-45807736D01*
X116174979Y-45868168D01*
X116156773Y-45893226D01*
X116120710Y-45929289D01*
X116106645Y-45915224D01*
X116069891Y-45900000D01*
X116030109Y-45900000D01*
X115993355Y-45915224D01*
X115965224Y-45943355D01*
X115950000Y-45980109D01*
X115950000Y-46019891D01*
X115965224Y-46056645D01*
X115993355Y-46084776D01*
X116030109Y-46100000D01*
X116069891Y-46100000D01*
X116106645Y-46084776D01*
X116120710Y-46070710D01*
X116156773Y-46106774D01*
X116184550Y-46161290D01*
X116174978Y-46221722D01*
X116156772Y-46246781D01*
X115725974Y-46677577D01*
X115725974Y-46677578D01*
X115831234Y-46721178D01*
X115976128Y-46749999D01*
X115976132Y-46750000D01*
X116123868Y-46750000D01*
X116123869Y-46749999D01*
X116170591Y-46740706D01*
X116231353Y-46747898D01*
X116276283Y-46789430D01*
X116281370Y-46799919D01*
X116322420Y-46899024D01*
X116646446Y-46574999D01*
X116626556Y-46555109D01*
X116900000Y-46555109D01*
X116900000Y-46594891D01*
X116915224Y-46631645D01*
X116943355Y-46659776D01*
X116980109Y-46675000D01*
X117019891Y-46675000D01*
X117056645Y-46659776D01*
X117084776Y-46631645D01*
X117100000Y-46594891D01*
X117100000Y-46555109D01*
X117084776Y-46518355D01*
X117056645Y-46490224D01*
X117019891Y-46475000D01*
X116980109Y-46475000D01*
X116943355Y-46490224D01*
X116915224Y-46518355D01*
X116900000Y-46555109D01*
X116626556Y-46555109D01*
X116288650Y-46217203D01*
X116260873Y-46162687D01*
X116270444Y-46102255D01*
X116288650Y-46077196D01*
X116365846Y-46000000D01*
X116778553Y-46000000D01*
X116999999Y-46221445D01*
X117221446Y-45999999D01*
X117000000Y-45778553D01*
X116778553Y-46000000D01*
X116365846Y-46000000D01*
X116365847Y-45999999D01*
X116288650Y-45922802D01*
X116260873Y-45868286D01*
X116270445Y-45807854D01*
X116288650Y-45782795D01*
X116646446Y-45424999D01*
X116626556Y-45405109D01*
X116900000Y-45405109D01*
X116900000Y-45444891D01*
X116915224Y-45481645D01*
X116943355Y-45509776D01*
X116980109Y-45525000D01*
X117019891Y-45525000D01*
X117056645Y-45509776D01*
X117084776Y-45481645D01*
X117100000Y-45444891D01*
X117100000Y-45424999D01*
X117353553Y-45424999D01*
X117353553Y-45425000D01*
X117711349Y-45782797D01*
X117739126Y-45837313D01*
X117729555Y-45897745D01*
X117711349Y-45922804D01*
X117634152Y-46000000D01*
X117711348Y-46077195D01*
X117739126Y-46131712D01*
X117729555Y-46192144D01*
X117711349Y-46217202D01*
X117353553Y-46574999D01*
X117677577Y-46899023D01*
X117718629Y-46799918D01*
X117758366Y-46753392D01*
X117817861Y-46739109D01*
X117829407Y-46740706D01*
X117876128Y-46749999D01*
X117876132Y-46750000D01*
X118023868Y-46750000D01*
X118023871Y-46749999D01*
X118168764Y-46721178D01*
X118168770Y-46721176D01*
X118274023Y-46677577D01*
X117843226Y-46246780D01*
X117815449Y-46192263D01*
X117825020Y-46131831D01*
X117843227Y-46106772D01*
X117879289Y-46070710D01*
X117893355Y-46084776D01*
X117930109Y-46100000D01*
X117969891Y-46100000D01*
X118006645Y-46084776D01*
X118034776Y-46056645D01*
X118050000Y-46019891D01*
X118050000Y-45999999D01*
X118303553Y-45999999D01*
X118627577Y-46324023D01*
X118671176Y-46218770D01*
X118671178Y-46218764D01*
X118699999Y-46073871D01*
X118700000Y-46073867D01*
X118700000Y-45926132D01*
X118699999Y-45926128D01*
X118671178Y-45781234D01*
X118627577Y-45675974D01*
X118303553Y-45999999D01*
X118050000Y-45999999D01*
X118050000Y-45980109D01*
X118034776Y-45943355D01*
X118006645Y-45915224D01*
X117969891Y-45900000D01*
X117930109Y-45900000D01*
X117893355Y-45915224D01*
X117879289Y-45929290D01*
X117843226Y-45893227D01*
X117815449Y-45838710D01*
X117825020Y-45778278D01*
X117843226Y-45753219D01*
X117960484Y-45635961D01*
X126249500Y-45635961D01*
X126249500Y-45833048D01*
X126262818Y-45900000D01*
X126282709Y-45999999D01*
X126287949Y-46026339D01*
X126287949Y-46026341D01*
X126363367Y-46208418D01*
X126372257Y-46221722D01*
X126472861Y-46372287D01*
X126612218Y-46511644D01*
X126776086Y-46621137D01*
X126958165Y-46696556D01*
X127151459Y-46735005D01*
X127151460Y-46735005D01*
X127348540Y-46735005D01*
X127348541Y-46735005D01*
X127541835Y-46696556D01*
X127723914Y-46621137D01*
X127887782Y-46511644D01*
X128027139Y-46372287D01*
X128136632Y-46208419D01*
X128212051Y-46026340D01*
X128250500Y-45833046D01*
X128250500Y-45635964D01*
X128212051Y-45442670D01*
X128136632Y-45260591D01*
X128027139Y-45096723D01*
X127887782Y-44957366D01*
X127785081Y-44888744D01*
X127756546Y-44869677D01*
X128789500Y-44869677D01*
X128789500Y-46599332D01*
X128798232Y-46643225D01*
X128798234Y-46643229D01*
X128819463Y-46675000D01*
X128831496Y-46693009D01*
X128881278Y-46726272D01*
X128892327Y-46728469D01*
X128925172Y-46735004D01*
X128925178Y-46735004D01*
X128925180Y-46735005D01*
X128925181Y-46735005D01*
X130654819Y-46735005D01*
X130654820Y-46735005D01*
X130654821Y-46735004D01*
X130654827Y-46735004D01*
X130676623Y-46730667D01*
X130698722Y-46726272D01*
X130748504Y-46693009D01*
X130781767Y-46643227D01*
X130790500Y-46599325D01*
X130790500Y-44869685D01*
X130790499Y-44869683D01*
X130790499Y-44869677D01*
X130781767Y-44825784D01*
X130781765Y-44825780D01*
X130748505Y-44776003D01*
X130748504Y-44776001D01*
X130747840Y-44775557D01*
X130698724Y-44742739D01*
X130698720Y-44742737D01*
X130654827Y-44734005D01*
X130654820Y-44734005D01*
X128925180Y-44734005D01*
X128925172Y-44734005D01*
X128881279Y-44742737D01*
X128881275Y-44742739D01*
X128831498Y-44775999D01*
X128831494Y-44776003D01*
X128798234Y-44825780D01*
X128798232Y-44825784D01*
X128789500Y-44869677D01*
X127756546Y-44869677D01*
X127723913Y-44847872D01*
X127541835Y-44772454D01*
X127348543Y-44734005D01*
X127348541Y-44734005D01*
X127151459Y-44734005D01*
X127151456Y-44734005D01*
X126958165Y-44772454D01*
X126958163Y-44772454D01*
X126776086Y-44847872D01*
X126612218Y-44957366D01*
X126612214Y-44957369D01*
X126472864Y-45096719D01*
X126472861Y-45096723D01*
X126363367Y-45260591D01*
X126287949Y-45442668D01*
X126287949Y-45442670D01*
X126249500Y-45635961D01*
X117960484Y-45635961D01*
X118274024Y-45322420D01*
X118168767Y-45278822D01*
X118023871Y-45250000D01*
X117876125Y-45250000D01*
X117829406Y-45259293D01*
X117768644Y-45252101D01*
X117723715Y-45210567D01*
X117718629Y-45200080D01*
X117677578Y-45100974D01*
X117677577Y-45100974D01*
X117353553Y-45424999D01*
X117100000Y-45424999D01*
X117100000Y-45405109D01*
X117084776Y-45368355D01*
X117056645Y-45340224D01*
X117019891Y-45325000D01*
X116980109Y-45325000D01*
X116943355Y-45340224D01*
X116915224Y-45368355D01*
X116900000Y-45405109D01*
X116626556Y-45405109D01*
X116322421Y-45100974D01*
X116322420Y-45100974D01*
X116281370Y-45200080D01*
X116241634Y-45246606D01*
X116182139Y-45260890D01*
X116170593Y-45259293D01*
X116123874Y-45250000D01*
X115976128Y-45250000D01*
X115831233Y-45278822D01*
X115831231Y-45278822D01*
X115725974Y-45322420D01*
X108446987Y-45322420D01*
X108450500Y-45309309D01*
X108450500Y-45190691D01*
X108419799Y-45076114D01*
X108419797Y-45076111D01*
X108419797Y-45076109D01*
X108360492Y-44973391D01*
X108360490Y-44973389D01*
X108360489Y-44973387D01*
X108276613Y-44889511D01*
X108276610Y-44889509D01*
X108276608Y-44889507D01*
X108235447Y-44865743D01*
X108235446Y-44865743D01*
X108173888Y-44830202D01*
X108173887Y-44830201D01*
X108173886Y-44830201D01*
X108059309Y-44799500D01*
X107940691Y-44799500D01*
X107870567Y-44818289D01*
X107826109Y-44830202D01*
X107723391Y-44889507D01*
X107639507Y-44973391D01*
X107580202Y-45076109D01*
X107580201Y-45076114D01*
X107549500Y-45190691D01*
X106200500Y-45190691D01*
X106169799Y-45076114D01*
X106169797Y-45076111D01*
X106169797Y-45076109D01*
X106110492Y-44973391D01*
X106110490Y-44973389D01*
X106110489Y-44973387D01*
X106026613Y-44889511D01*
X106026610Y-44889509D01*
X106026608Y-44889507D01*
X105923889Y-44830202D01*
X105923890Y-44830202D01*
X105907387Y-44825780D01*
X105809309Y-44799500D01*
X105690691Y-44799500D01*
X105620567Y-44818289D01*
X105576109Y-44830202D01*
X105473391Y-44889507D01*
X105389507Y-44973391D01*
X105330202Y-45076109D01*
X105330201Y-45076114D01*
X105299500Y-45190691D01*
X92500500Y-45190691D01*
X92500500Y-44747420D01*
X116675974Y-44747420D01*
X116675974Y-44747421D01*
X116999999Y-45071445D01*
X117324024Y-44747420D01*
X117218767Y-44703822D01*
X117073871Y-44675000D01*
X116926128Y-44675000D01*
X116781233Y-44703822D01*
X116781231Y-44703822D01*
X116675974Y-44747420D01*
X92500500Y-44747420D01*
X92500500Y-41119677D01*
X126209500Y-41119677D01*
X126209500Y-42849332D01*
X126218232Y-42893225D01*
X126218233Y-42893227D01*
X126251496Y-42943009D01*
X126301278Y-42976272D01*
X126312327Y-42978469D01*
X126345172Y-42985004D01*
X126345178Y-42985004D01*
X126345180Y-42985005D01*
X126345181Y-42985005D01*
X128074819Y-42985005D01*
X128074820Y-42985005D01*
X128074821Y-42985004D01*
X128074827Y-42985004D01*
X128096623Y-42980667D01*
X128118722Y-42976272D01*
X128168504Y-42943009D01*
X128201767Y-42893227D01*
X128210500Y-42849325D01*
X128210500Y-41885961D01*
X128749500Y-41885961D01*
X128749500Y-42083048D01*
X128787949Y-42276339D01*
X128787949Y-42276341D01*
X128863367Y-42458418D01*
X128863368Y-42458419D01*
X128972861Y-42622287D01*
X129112218Y-42761644D01*
X129276086Y-42871137D01*
X129458165Y-42946556D01*
X129651459Y-42985005D01*
X129651460Y-42985005D01*
X129848540Y-42985005D01*
X129848541Y-42985005D01*
X130041835Y-42946556D01*
X130223914Y-42871137D01*
X130387782Y-42761644D01*
X130527139Y-42622287D01*
X130636632Y-42458419D01*
X130712051Y-42276340D01*
X130750500Y-42083046D01*
X130750500Y-41885964D01*
X130750499Y-41885961D01*
X131289500Y-41885961D01*
X131289500Y-42083048D01*
X131327949Y-42276339D01*
X131327949Y-42276341D01*
X131403367Y-42458418D01*
X131403368Y-42458419D01*
X131512861Y-42622287D01*
X131652218Y-42761644D01*
X131816086Y-42871137D01*
X131998165Y-42946556D01*
X132191459Y-42985005D01*
X132191460Y-42985005D01*
X132388540Y-42985005D01*
X132388541Y-42985005D01*
X132581835Y-42946556D01*
X132763914Y-42871137D01*
X132927782Y-42761644D01*
X133067139Y-42622287D01*
X133176632Y-42458419D01*
X133252051Y-42276340D01*
X133290500Y-42083046D01*
X133290500Y-41885964D01*
X133252051Y-41692670D01*
X133176632Y-41510591D01*
X133067139Y-41346723D01*
X132927782Y-41207366D01*
X132818288Y-41134204D01*
X132763913Y-41097872D01*
X132581835Y-41022454D01*
X132388543Y-40984005D01*
X132388541Y-40984005D01*
X132191459Y-40984005D01*
X132191456Y-40984005D01*
X131998165Y-41022454D01*
X131998163Y-41022454D01*
X131816086Y-41097872D01*
X131652218Y-41207366D01*
X131652214Y-41207369D01*
X131512864Y-41346719D01*
X131512861Y-41346723D01*
X131403367Y-41510591D01*
X131327949Y-41692668D01*
X131327949Y-41692670D01*
X131289500Y-41885961D01*
X130750499Y-41885961D01*
X130712051Y-41692670D01*
X130636632Y-41510591D01*
X130527139Y-41346723D01*
X130387782Y-41207366D01*
X130278288Y-41134204D01*
X130223913Y-41097872D01*
X130041835Y-41022454D01*
X129848543Y-40984005D01*
X129848541Y-40984005D01*
X129651459Y-40984005D01*
X129651456Y-40984005D01*
X129458165Y-41022454D01*
X129458163Y-41022454D01*
X129276086Y-41097872D01*
X129112218Y-41207366D01*
X129112214Y-41207369D01*
X128972864Y-41346719D01*
X128972861Y-41346723D01*
X128863367Y-41510591D01*
X128787949Y-41692668D01*
X128787949Y-41692670D01*
X128749500Y-41885961D01*
X128210500Y-41885961D01*
X128210500Y-41119685D01*
X128210499Y-41119683D01*
X128210499Y-41119677D01*
X128201767Y-41075784D01*
X128201765Y-41075780D01*
X128168505Y-41026003D01*
X128168504Y-41026001D01*
X128167840Y-41025557D01*
X128118724Y-40992739D01*
X128118720Y-40992737D01*
X128074827Y-40984005D01*
X128074820Y-40984005D01*
X126345180Y-40984005D01*
X126345172Y-40984005D01*
X126301279Y-40992737D01*
X126301275Y-40992739D01*
X126251498Y-41025999D01*
X126251494Y-41026003D01*
X126218234Y-41075780D01*
X126218232Y-41075784D01*
X126209500Y-41119677D01*
X92500500Y-41119677D01*
X92500500Y-39940691D01*
X115549500Y-39940691D01*
X115549500Y-40059309D01*
X115576574Y-40160351D01*
X115580202Y-40173890D01*
X115639507Y-40276608D01*
X115639509Y-40276610D01*
X115639511Y-40276613D01*
X115723387Y-40360489D01*
X115723389Y-40360490D01*
X115723391Y-40360492D01*
X115826110Y-40419797D01*
X115826111Y-40419797D01*
X115826114Y-40419799D01*
X115940691Y-40450500D01*
X115940693Y-40450500D01*
X116059307Y-40450500D01*
X116059309Y-40450500D01*
X116173886Y-40419799D01*
X116173888Y-40419797D01*
X116173890Y-40419797D01*
X116276608Y-40360492D01*
X116276608Y-40360491D01*
X116276613Y-40360489D01*
X116360489Y-40276613D01*
X116419799Y-40173886D01*
X116450500Y-40059309D01*
X116450500Y-39940691D01*
X116419799Y-39826114D01*
X116419797Y-39826111D01*
X116419797Y-39826109D01*
X116360492Y-39723391D01*
X116360490Y-39723389D01*
X116360489Y-39723387D01*
X116276613Y-39639511D01*
X116276610Y-39639509D01*
X116276608Y-39639507D01*
X116173889Y-39580202D01*
X116173890Y-39580202D01*
X116160351Y-39576574D01*
X116059309Y-39549500D01*
X115940691Y-39549500D01*
X115870567Y-39568289D01*
X115826109Y-39580202D01*
X115723391Y-39639507D01*
X115639507Y-39723391D01*
X115580202Y-39826109D01*
X115580201Y-39826114D01*
X115549500Y-39940691D01*
X92500500Y-39940691D01*
X92500500Y-38542164D01*
X107499500Y-38542164D01*
X107499500Y-38660782D01*
X107526574Y-38761824D01*
X107530202Y-38775363D01*
X107589507Y-38878081D01*
X107589509Y-38878083D01*
X107589511Y-38878086D01*
X107673387Y-38961962D01*
X107673389Y-38961963D01*
X107673391Y-38961965D01*
X107776110Y-39021270D01*
X107776111Y-39021270D01*
X107776114Y-39021272D01*
X107890691Y-39051973D01*
X107890693Y-39051973D01*
X108009307Y-39051973D01*
X108009309Y-39051973D01*
X108123886Y-39021272D01*
X108123888Y-39021270D01*
X108123890Y-39021270D01*
X108226608Y-38961965D01*
X108226608Y-38961964D01*
X108226613Y-38961962D01*
X108310489Y-38878086D01*
X108369799Y-38775359D01*
X108400500Y-38660782D01*
X108400500Y-38542164D01*
X108369799Y-38427587D01*
X108369797Y-38427584D01*
X108369797Y-38427582D01*
X108310492Y-38324864D01*
X108310490Y-38324862D01*
X108310489Y-38324860D01*
X108226613Y-38240984D01*
X108226610Y-38240982D01*
X108226608Y-38240980D01*
X108123889Y-38181675D01*
X108123890Y-38181675D01*
X108110351Y-38178047D01*
X108009309Y-38150973D01*
X107890691Y-38150973D01*
X107820567Y-38169762D01*
X107776109Y-38181675D01*
X107673391Y-38240980D01*
X107589507Y-38324864D01*
X107530202Y-38427582D01*
X107530201Y-38427587D01*
X107499500Y-38542164D01*
X92500500Y-38542164D01*
X92500500Y-37440691D01*
X110799500Y-37440691D01*
X110799500Y-37559309D01*
X110826574Y-37660351D01*
X110830202Y-37673890D01*
X110889507Y-37776608D01*
X110889509Y-37776610D01*
X110889511Y-37776613D01*
X110973387Y-37860489D01*
X110973389Y-37860490D01*
X110973391Y-37860492D01*
X111076110Y-37919797D01*
X111076111Y-37919797D01*
X111076114Y-37919799D01*
X111190691Y-37950500D01*
X111190693Y-37950500D01*
X111309307Y-37950500D01*
X111309309Y-37950500D01*
X111423886Y-37919799D01*
X111525499Y-37861131D01*
X111585348Y-37848410D01*
X111624500Y-37861131D01*
X111726114Y-37919799D01*
X111840691Y-37950500D01*
X111840693Y-37950500D01*
X111959307Y-37950500D01*
X111959309Y-37950500D01*
X112073886Y-37919799D01*
X112073888Y-37919797D01*
X112073890Y-37919797D01*
X112176608Y-37860492D01*
X112176608Y-37860491D01*
X112176613Y-37860489D01*
X112260489Y-37776613D01*
X112260492Y-37776608D01*
X112319797Y-37673890D01*
X112319797Y-37673888D01*
X112319799Y-37673886D01*
X112350500Y-37559309D01*
X112350500Y-37440691D01*
X114649500Y-37440691D01*
X114649500Y-37559309D01*
X114676574Y-37660351D01*
X114680202Y-37673890D01*
X114739507Y-37776608D01*
X114739509Y-37776610D01*
X114739511Y-37776613D01*
X114823387Y-37860489D01*
X114823389Y-37860490D01*
X114823391Y-37860492D01*
X114926110Y-37919797D01*
X114926111Y-37919797D01*
X114926114Y-37919799D01*
X115040691Y-37950500D01*
X115040693Y-37950500D01*
X115159307Y-37950500D01*
X115159309Y-37950500D01*
X115273886Y-37919799D01*
X115273888Y-37919797D01*
X115273890Y-37919797D01*
X115376608Y-37860492D01*
X115376608Y-37860491D01*
X115376613Y-37860489D01*
X115429998Y-37807103D01*
X115484513Y-37779328D01*
X115544945Y-37788899D01*
X115570000Y-37807102D01*
X115623387Y-37860489D01*
X115623389Y-37860490D01*
X115623391Y-37860492D01*
X115726110Y-37919797D01*
X115726111Y-37919797D01*
X115726114Y-37919799D01*
X115840691Y-37950500D01*
X115840693Y-37950500D01*
X115959307Y-37950500D01*
X115959309Y-37950500D01*
X116073886Y-37919799D01*
X116073888Y-37919797D01*
X116073890Y-37919797D01*
X116176608Y-37860492D01*
X116176608Y-37860491D01*
X116176613Y-37860489D01*
X116260489Y-37776613D01*
X116260492Y-37776608D01*
X116319797Y-37673890D01*
X116319797Y-37673888D01*
X116319799Y-37673886D01*
X116350500Y-37559309D01*
X116350500Y-37440691D01*
X116319799Y-37326114D01*
X116319797Y-37326111D01*
X116319797Y-37326109D01*
X116260492Y-37223391D01*
X116260490Y-37223389D01*
X116260489Y-37223387D01*
X116176613Y-37139511D01*
X116176610Y-37139509D01*
X116176608Y-37139507D01*
X116073889Y-37080202D01*
X116073890Y-37080202D01*
X116060351Y-37076574D01*
X115959309Y-37049500D01*
X115840691Y-37049500D01*
X115770567Y-37068289D01*
X115726109Y-37080202D01*
X115623391Y-37139507D01*
X115623390Y-37139508D01*
X115623387Y-37139510D01*
X115623387Y-37139511D01*
X115570001Y-37192896D01*
X115515487Y-37220672D01*
X115455055Y-37211101D01*
X115429999Y-37192897D01*
X115376613Y-37139511D01*
X115376610Y-37139509D01*
X115376608Y-37139507D01*
X115273889Y-37080202D01*
X115273890Y-37080202D01*
X115260351Y-37076574D01*
X115159309Y-37049500D01*
X115040691Y-37049500D01*
X114970567Y-37068289D01*
X114926109Y-37080202D01*
X114823391Y-37139507D01*
X114739507Y-37223391D01*
X114680202Y-37326109D01*
X114680201Y-37326114D01*
X114649500Y-37440691D01*
X112350500Y-37440691D01*
X112319799Y-37326114D01*
X112319797Y-37326111D01*
X112319797Y-37326109D01*
X112260492Y-37223391D01*
X112260490Y-37223389D01*
X112260489Y-37223387D01*
X112176613Y-37139511D01*
X112176610Y-37139509D01*
X112176608Y-37139507D01*
X112073889Y-37080202D01*
X112073890Y-37080202D01*
X112060351Y-37076574D01*
X111959309Y-37049500D01*
X111840691Y-37049500D01*
X111783402Y-37064850D01*
X111726112Y-37080201D01*
X111624500Y-37138868D01*
X111564652Y-37151589D01*
X111525500Y-37138868D01*
X111423887Y-37080201D01*
X111385693Y-37069967D01*
X111309309Y-37049500D01*
X111190691Y-37049500D01*
X111120567Y-37068289D01*
X111076109Y-37080202D01*
X110973391Y-37139507D01*
X110889507Y-37223391D01*
X110830202Y-37326109D01*
X110830201Y-37326114D01*
X110799500Y-37440691D01*
X92500500Y-37440691D01*
X92500500Y-35101920D01*
X108529500Y-35101920D01*
X108529500Y-36330059D01*
X108554499Y-36455732D01*
X108554500Y-36455737D01*
X108603534Y-36574115D01*
X108603538Y-36574123D01*
X108646365Y-36638216D01*
X108674724Y-36680659D01*
X108765331Y-36771266D01*
X108828848Y-36813707D01*
X108871866Y-36842451D01*
X108871870Y-36842453D01*
X108871873Y-36842455D01*
X108990256Y-36891491D01*
X109115931Y-36916490D01*
X109115932Y-36916490D01*
X109244068Y-36916490D01*
X109244069Y-36916490D01*
X109369744Y-36891491D01*
X109488127Y-36842455D01*
X109594669Y-36771266D01*
X109685276Y-36680659D01*
X109756465Y-36574117D01*
X109805501Y-36455734D01*
X109830500Y-36330059D01*
X109830500Y-35153389D01*
X110134500Y-35153389D01*
X110134500Y-35278591D01*
X110166905Y-35399526D01*
X110229505Y-35507954D01*
X110318036Y-35596485D01*
X110426464Y-35659085D01*
X110547399Y-35691490D01*
X110547401Y-35691490D01*
X110672599Y-35691490D01*
X110672601Y-35691490D01*
X110793536Y-35659085D01*
X110901964Y-35596485D01*
X110990495Y-35507954D01*
X111053095Y-35399526D01*
X111085500Y-35278591D01*
X111085500Y-35153389D01*
X111053095Y-35032454D01*
X110990495Y-34924026D01*
X110901964Y-34835495D01*
X110867662Y-34815691D01*
X111974500Y-34815691D01*
X111974500Y-34934309D01*
X112000798Y-35032453D01*
X112005202Y-35048890D01*
X112064507Y-35151608D01*
X112064509Y-35151610D01*
X112064511Y-35151613D01*
X112148387Y-35235489D01*
X112148389Y-35235490D01*
X112148391Y-35235492D01*
X112251110Y-35294797D01*
X112251111Y-35294797D01*
X112251114Y-35294799D01*
X112365691Y-35325500D01*
X112365693Y-35325500D01*
X112484307Y-35325500D01*
X112484309Y-35325500D01*
X112598886Y-35294799D01*
X112598888Y-35294797D01*
X112598890Y-35294797D01*
X112701608Y-35235492D01*
X112701608Y-35235491D01*
X112701613Y-35235489D01*
X112785489Y-35151613D01*
X112802193Y-35122681D01*
X112844797Y-35048890D01*
X112844797Y-35048888D01*
X112844799Y-35048886D01*
X112875500Y-34934309D01*
X112875500Y-34840691D01*
X113699500Y-34840691D01*
X113699500Y-34959309D01*
X113704039Y-34976247D01*
X113730202Y-35073890D01*
X113789507Y-35176608D01*
X113789509Y-35176610D01*
X113789511Y-35176613D01*
X113873387Y-35260489D01*
X113873389Y-35260490D01*
X113873391Y-35260492D01*
X113976110Y-35319797D01*
X113976111Y-35319797D01*
X113976114Y-35319799D01*
X114090691Y-35350500D01*
X114090693Y-35350500D01*
X114209307Y-35350500D01*
X114209309Y-35350500D01*
X114323886Y-35319799D01*
X114323888Y-35319797D01*
X114323890Y-35319797D01*
X114426608Y-35260492D01*
X114426608Y-35260491D01*
X114426613Y-35260489D01*
X114510489Y-35176613D01*
X114510492Y-35176608D01*
X114523898Y-35153389D01*
X115914500Y-35153389D01*
X115914500Y-35278591D01*
X115946905Y-35399526D01*
X116009505Y-35507954D01*
X116098036Y-35596485D01*
X116206464Y-35659085D01*
X116327399Y-35691490D01*
X116327401Y-35691490D01*
X116452599Y-35691490D01*
X116452601Y-35691490D01*
X116573536Y-35659085D01*
X116681964Y-35596485D01*
X116770495Y-35507954D01*
X116833095Y-35399526D01*
X116865500Y-35278591D01*
X116865500Y-35153389D01*
X116851709Y-35101920D01*
X117169500Y-35101920D01*
X117169500Y-36330059D01*
X117194499Y-36455732D01*
X117194500Y-36455737D01*
X117243534Y-36574115D01*
X117243538Y-36574123D01*
X117286365Y-36638216D01*
X117314724Y-36680659D01*
X117405331Y-36771266D01*
X117468848Y-36813707D01*
X117511866Y-36842451D01*
X117511870Y-36842453D01*
X117511873Y-36842455D01*
X117630256Y-36891491D01*
X117755931Y-36916490D01*
X117755932Y-36916490D01*
X117884068Y-36916490D01*
X117884069Y-36916490D01*
X118009744Y-36891491D01*
X118128127Y-36842455D01*
X118234669Y-36771266D01*
X118325276Y-36680659D01*
X118396465Y-36574117D01*
X118445501Y-36455734D01*
X118470500Y-36330059D01*
X118470500Y-35101921D01*
X118445501Y-34976246D01*
X118396465Y-34857863D01*
X118396463Y-34857860D01*
X118396461Y-34857856D01*
X118339691Y-34772895D01*
X118325276Y-34751321D01*
X118234669Y-34660714D01*
X118178805Y-34623387D01*
X118128133Y-34589528D01*
X118128125Y-34589524D01*
X118009747Y-34540490D01*
X118009745Y-34540489D01*
X118009744Y-34540489D01*
X117884069Y-34515490D01*
X117755931Y-34515490D01*
X117755930Y-34515490D01*
X117693093Y-34527989D01*
X117630256Y-34540489D01*
X117630255Y-34540489D01*
X117630252Y-34540490D01*
X117511874Y-34589524D01*
X117511866Y-34589528D01*
X117405331Y-34660714D01*
X117405327Y-34660717D01*
X117314727Y-34751317D01*
X117314724Y-34751321D01*
X117243538Y-34857856D01*
X117243534Y-34857864D01*
X117194500Y-34976242D01*
X117194499Y-34976247D01*
X117169500Y-35101920D01*
X116851709Y-35101920D01*
X116833095Y-35032454D01*
X116770495Y-34924026D01*
X116681964Y-34835495D01*
X116573536Y-34772895D01*
X116452601Y-34740490D01*
X116327399Y-34740490D01*
X116246775Y-34762093D01*
X116206463Y-34772895D01*
X116098036Y-34835495D01*
X116009505Y-34924026D01*
X115946905Y-35032453D01*
X115946905Y-35032454D01*
X115914500Y-35153389D01*
X114523898Y-35153389D01*
X114556224Y-35097400D01*
X114569797Y-35073890D01*
X114569797Y-35073888D01*
X114569799Y-35073886D01*
X114600500Y-34959309D01*
X114600500Y-34840691D01*
X114569799Y-34726114D01*
X114569797Y-34726111D01*
X114569797Y-34726109D01*
X114510492Y-34623391D01*
X114510490Y-34623389D01*
X114510489Y-34623387D01*
X114426613Y-34539511D01*
X114426610Y-34539509D01*
X114426608Y-34539507D01*
X114323889Y-34480202D01*
X114323890Y-34480202D01*
X114310351Y-34476574D01*
X114209309Y-34449500D01*
X114090691Y-34449500D01*
X114020567Y-34468289D01*
X113976109Y-34480202D01*
X113873391Y-34539507D01*
X113789507Y-34623391D01*
X113730202Y-34726109D01*
X113730201Y-34726114D01*
X113699500Y-34840691D01*
X112875500Y-34840691D01*
X112875500Y-34815691D01*
X112844799Y-34701114D01*
X112844797Y-34701111D01*
X112844797Y-34701109D01*
X112785492Y-34598391D01*
X112785490Y-34598389D01*
X112785489Y-34598387D01*
X112701613Y-34514511D01*
X112701610Y-34514509D01*
X112701608Y-34514507D01*
X112598889Y-34455202D01*
X112598890Y-34455202D01*
X112577610Y-34449500D01*
X112484309Y-34424500D01*
X112365691Y-34424500D01*
X112295567Y-34443289D01*
X112251109Y-34455202D01*
X112148391Y-34514507D01*
X112064507Y-34598391D01*
X112005202Y-34701109D01*
X111998502Y-34726114D01*
X111974500Y-34815691D01*
X110867662Y-34815691D01*
X110793536Y-34772895D01*
X110672601Y-34740490D01*
X110547399Y-34740490D01*
X110466775Y-34762093D01*
X110426463Y-34772895D01*
X110318036Y-34835495D01*
X110229505Y-34924026D01*
X110166905Y-35032453D01*
X110166905Y-35032454D01*
X110134500Y-35153389D01*
X109830500Y-35153389D01*
X109830500Y-35101921D01*
X109805501Y-34976246D01*
X109756465Y-34857863D01*
X109756463Y-34857860D01*
X109756461Y-34857856D01*
X109699691Y-34772895D01*
X109685276Y-34751321D01*
X109594669Y-34660714D01*
X109538805Y-34623387D01*
X109488133Y-34589528D01*
X109488125Y-34589524D01*
X109369747Y-34540490D01*
X109369745Y-34540489D01*
X109369744Y-34540489D01*
X109244069Y-34515490D01*
X109115931Y-34515490D01*
X109115930Y-34515490D01*
X109053093Y-34527989D01*
X108990256Y-34540489D01*
X108990255Y-34540489D01*
X108990252Y-34540490D01*
X108871874Y-34589524D01*
X108871866Y-34589528D01*
X108765331Y-34660714D01*
X108765327Y-34660717D01*
X108674727Y-34751317D01*
X108674724Y-34751321D01*
X108603538Y-34857856D01*
X108603534Y-34857864D01*
X108554500Y-34976242D01*
X108554499Y-34976247D01*
X108529500Y-35101920D01*
X92500500Y-35101920D01*
X92500500Y-31071920D01*
X108529500Y-31071920D01*
X108529500Y-32000059D01*
X108554499Y-32125732D01*
X108554500Y-32125737D01*
X108603534Y-32244115D01*
X108603538Y-32244123D01*
X108646365Y-32308216D01*
X108674724Y-32350659D01*
X108765331Y-32441266D01*
X108828848Y-32483707D01*
X108871866Y-32512451D01*
X108871870Y-32512453D01*
X108871873Y-32512455D01*
X108990256Y-32561491D01*
X109115931Y-32586490D01*
X109115932Y-32586490D01*
X109244068Y-32586490D01*
X109244069Y-32586490D01*
X109369744Y-32561491D01*
X109488127Y-32512455D01*
X109594669Y-32441266D01*
X109685276Y-32350659D01*
X109756465Y-32244117D01*
X109805501Y-32125734D01*
X109830500Y-32000059D01*
X109830500Y-31071921D01*
X109830500Y-31071920D01*
X117169500Y-31071920D01*
X117169500Y-32000059D01*
X117194499Y-32125732D01*
X117194500Y-32125737D01*
X117243534Y-32244115D01*
X117243538Y-32244123D01*
X117286365Y-32308216D01*
X117314724Y-32350659D01*
X117405331Y-32441266D01*
X117468848Y-32483707D01*
X117511866Y-32512451D01*
X117511870Y-32512453D01*
X117511873Y-32512455D01*
X117630256Y-32561491D01*
X117755931Y-32586490D01*
X117755932Y-32586490D01*
X117884068Y-32586490D01*
X117884069Y-32586490D01*
X118009744Y-32561491D01*
X118128127Y-32512455D01*
X118234669Y-32441266D01*
X118325276Y-32350659D01*
X118396465Y-32244117D01*
X118445501Y-32125734D01*
X118470500Y-32000059D01*
X118470500Y-31071921D01*
X118445501Y-30946246D01*
X118396465Y-30827863D01*
X118396463Y-30827860D01*
X118396461Y-30827856D01*
X118367717Y-30784838D01*
X118325276Y-30721321D01*
X118234669Y-30630714D01*
X118192226Y-30602355D01*
X118128133Y-30559528D01*
X118128125Y-30559524D01*
X118009747Y-30510490D01*
X118009745Y-30510489D01*
X118009744Y-30510489D01*
X117884069Y-30485490D01*
X117755931Y-30485490D01*
X117755930Y-30485490D01*
X117693093Y-30497989D01*
X117630256Y-30510489D01*
X117630255Y-30510489D01*
X117630252Y-30510490D01*
X117511874Y-30559524D01*
X117511866Y-30559528D01*
X117405331Y-30630714D01*
X117405327Y-30630717D01*
X117314727Y-30721317D01*
X117314724Y-30721321D01*
X117243538Y-30827856D01*
X117243534Y-30827864D01*
X117194500Y-30946242D01*
X117194499Y-30946247D01*
X117169500Y-31071920D01*
X109830500Y-31071920D01*
X109805501Y-30946246D01*
X109756465Y-30827863D01*
X109756463Y-30827860D01*
X109756461Y-30827856D01*
X109727717Y-30784838D01*
X109685276Y-30721321D01*
X109594669Y-30630714D01*
X109552226Y-30602355D01*
X109488133Y-30559528D01*
X109488125Y-30559524D01*
X109369747Y-30510490D01*
X109369745Y-30510489D01*
X109369744Y-30510489D01*
X109244069Y-30485490D01*
X109115931Y-30485490D01*
X109115930Y-30485490D01*
X109053093Y-30497989D01*
X108990256Y-30510489D01*
X108990255Y-30510489D01*
X108990252Y-30510490D01*
X108871874Y-30559524D01*
X108871866Y-30559528D01*
X108765331Y-30630714D01*
X108765327Y-30630717D01*
X108674727Y-30721317D01*
X108674724Y-30721321D01*
X108603538Y-30827856D01*
X108603534Y-30827864D01*
X108554500Y-30946242D01*
X108554499Y-30946247D01*
X108529500Y-31071920D01*
X92500500Y-31071920D01*
X92500500Y-29099500D01*
X92519407Y-29041309D01*
X92568907Y-29005345D01*
X92599500Y-29000500D01*
X134400500Y-29000500D01*
X134458691Y-29019407D01*
G37*
G04 #@! TD.AperFunction*
M02*
