G04 #@! TF.GenerationSoftware,KiCad,Pcbnew,9.0.7*
G04 #@! TF.CreationDate,2026-02-19T12:47:42+01:00*
G04 #@! TF.ProjectId,FishIoT,46697368-496f-4542-9e6b-696361645f70,version 26.0*
G04 #@! TF.SameCoordinates,Original*
G04 #@! TF.FileFunction,Legend,Bot*
G04 #@! TF.FilePolarity,Positive*
%FSLAX46Y46*%
G04 Gerber Fmt 4.6, Leading zero omitted, Abs format (unit mm)*
G04 Created by KiCad (PCBNEW 9.0.7) date 2026-02-19 12:47:42*
%MOMM*%
%LPD*%
G01*
G04 APERTURE LIST*
G04 Aperture macros list*
%AMRoundRect*
0 Rectangle with rounded corners*
0 $1 Rounding radius*
0 $2 $3 $4 $5 $6 $7 $8 $9 X,Y pos of 4 corners*
0 Add a 4 corners polygon primitive as box body*
4,1,4,$2,$3,$4,$5,$6,$7,$8,$9,$2,$3,0*
0 Add four circle primitives for the rounded corners*
1,1,$1+$1,$2,$3*
1,1,$1+$1,$4,$5*
1,1,$1+$1,$6,$7*
1,1,$1+$1,$8,$9*
0 Add four rect primitives between the rounded corners*
20,1,$1+$1,$2,$3,$4,$5,0*
20,1,$1+$1,$4,$5,$6,$7,0*
20,1,$1+$1,$6,$7,$8,$9,0*
20,1,$1+$1,$8,$9,$2,$3,0*%
%AMFreePoly0*
4,1,23,0.500000,-0.750000,0.000000,-0.750000,0.000000,-0.745722,-0.065263,-0.745722,-0.191342,-0.711940,-0.304381,-0.646677,-0.396677,-0.554381,-0.461940,-0.441342,-0.495722,-0.315263,-0.495722,-0.250000,-0.500000,-0.250000,-0.500000,0.250000,-0.495722,0.250000,-0.495722,0.315263,-0.461940,0.441342,-0.396677,0.554381,-0.304381,0.646677,-0.191342,0.711940,-0.065263,0.745722,0.000000,0.745722,
0.000000,0.750000,0.500000,0.750000,0.500000,-0.750000,0.500000,-0.750000,$1*%
%AMFreePoly1*
4,1,23,0.000000,0.745722,0.065263,0.745722,0.191342,0.711940,0.304381,0.646677,0.396677,0.554381,0.461940,0.441342,0.495722,0.315263,0.495722,0.250000,0.500000,0.250000,0.500000,-0.250000,0.495722,-0.250000,0.495722,-0.315263,0.461940,-0.441342,0.396677,-0.554381,0.304381,-0.646677,0.191342,-0.711940,0.065263,-0.745722,0.000000,-0.745722,0.000000,-0.750000,-0.500000,-0.750000,
-0.500000,0.750000,0.000000,0.750000,0.000000,0.745722,0.000000,0.745722,$1*%
G04 Aperture macros list end*
%ADD10C,0.150000*%
%ADD11C,0.300000*%
%ADD12C,0.120000*%
%ADD13C,0.000000*%
%ADD14R,1.700000X1.700000*%
%ADD15C,1.700000*%
%ADD16C,0.800000*%
%ADD17C,6.000000*%
%ADD18C,0.650000*%
%ADD19O,1.204000X2.304000*%
%ADD20O,1.204000X2.004000*%
%ADD21RoundRect,0.076200X0.877500X-0.877500X0.877500X0.877500X-0.877500X0.877500X-0.877500X-0.877500X0*%
%ADD22C,1.907400*%
%ADD23C,1.000000*%
%ADD24FreePoly0,0.000000*%
%ADD25FreePoly1,0.000000*%
%ADD26C,0.600000*%
G04 APERTURE END LIST*
D10*
X133413220Y-94899931D02*
X133413220Y-93899931D01*
X132794173Y-94899931D02*
X132889411Y-94852312D01*
X132889411Y-94852312D02*
X132937030Y-94804692D01*
X132937030Y-94804692D02*
X132984649Y-94709454D01*
X132984649Y-94709454D02*
X132984649Y-94423740D01*
X132984649Y-94423740D02*
X132937030Y-94328502D01*
X132937030Y-94328502D02*
X132889411Y-94280883D01*
X132889411Y-94280883D02*
X132794173Y-94233264D01*
X132794173Y-94233264D02*
X132651316Y-94233264D01*
X132651316Y-94233264D02*
X132556078Y-94280883D01*
X132556078Y-94280883D02*
X132508459Y-94328502D01*
X132508459Y-94328502D02*
X132460840Y-94423740D01*
X132460840Y-94423740D02*
X132460840Y-94709454D01*
X132460840Y-94709454D02*
X132508459Y-94804692D01*
X132508459Y-94804692D02*
X132556078Y-94852312D01*
X132556078Y-94852312D02*
X132651316Y-94899931D01*
X132651316Y-94899931D02*
X132794173Y-94899931D01*
X131698935Y-94376121D02*
X132032268Y-94376121D01*
X132032268Y-94899931D02*
X132032268Y-93899931D01*
X132032268Y-93899931D02*
X131556078Y-93899931D01*
X133556077Y-95509875D02*
X133222744Y-96509875D01*
X133222744Y-96509875D02*
X132889411Y-95509875D01*
X132175125Y-96462256D02*
X132270363Y-96509875D01*
X132270363Y-96509875D02*
X132460839Y-96509875D01*
X132460839Y-96509875D02*
X132556077Y-96462256D01*
X132556077Y-96462256D02*
X132603696Y-96367017D01*
X132603696Y-96367017D02*
X132603696Y-95986065D01*
X132603696Y-95986065D02*
X132556077Y-95890827D01*
X132556077Y-95890827D02*
X132460839Y-95843208D01*
X132460839Y-95843208D02*
X132270363Y-95843208D01*
X132270363Y-95843208D02*
X132175125Y-95890827D01*
X132175125Y-95890827D02*
X132127506Y-95986065D01*
X132127506Y-95986065D02*
X132127506Y-96081303D01*
X132127506Y-96081303D02*
X132603696Y-96176541D01*
X131698934Y-96509875D02*
X131698934Y-95843208D01*
X131698934Y-96033684D02*
X131651315Y-95938446D01*
X131651315Y-95938446D02*
X131603696Y-95890827D01*
X131603696Y-95890827D02*
X131508458Y-95843208D01*
X131508458Y-95843208D02*
X131413220Y-95843208D01*
X131127505Y-96462256D02*
X131032267Y-96509875D01*
X131032267Y-96509875D02*
X130841791Y-96509875D01*
X130841791Y-96509875D02*
X130746553Y-96462256D01*
X130746553Y-96462256D02*
X130698934Y-96367017D01*
X130698934Y-96367017D02*
X130698934Y-96319398D01*
X130698934Y-96319398D02*
X130746553Y-96224160D01*
X130746553Y-96224160D02*
X130841791Y-96176541D01*
X130841791Y-96176541D02*
X130984648Y-96176541D01*
X130984648Y-96176541D02*
X131079886Y-96128922D01*
X131079886Y-96128922D02*
X131127505Y-96033684D01*
X131127505Y-96033684D02*
X131127505Y-95986065D01*
X131127505Y-95986065D02*
X131079886Y-95890827D01*
X131079886Y-95890827D02*
X130984648Y-95843208D01*
X130984648Y-95843208D02*
X130841791Y-95843208D01*
X130841791Y-95843208D02*
X130746553Y-95890827D01*
X130270362Y-96509875D02*
X130270362Y-95843208D01*
X130270362Y-95509875D02*
X130317981Y-95557494D01*
X130317981Y-95557494D02*
X130270362Y-95605113D01*
X130270362Y-95605113D02*
X130222743Y-95557494D01*
X130222743Y-95557494D02*
X130270362Y-95509875D01*
X130270362Y-95509875D02*
X130270362Y-95605113D01*
X129651315Y-96509875D02*
X129746553Y-96462256D01*
X129746553Y-96462256D02*
X129794172Y-96414636D01*
X129794172Y-96414636D02*
X129841791Y-96319398D01*
X129841791Y-96319398D02*
X129841791Y-96033684D01*
X129841791Y-96033684D02*
X129794172Y-95938446D01*
X129794172Y-95938446D02*
X129746553Y-95890827D01*
X129746553Y-95890827D02*
X129651315Y-95843208D01*
X129651315Y-95843208D02*
X129508458Y-95843208D01*
X129508458Y-95843208D02*
X129413220Y-95890827D01*
X129413220Y-95890827D02*
X129365601Y-95938446D01*
X129365601Y-95938446D02*
X129317982Y-96033684D01*
X129317982Y-96033684D02*
X129317982Y-96319398D01*
X129317982Y-96319398D02*
X129365601Y-96414636D01*
X129365601Y-96414636D02*
X129413220Y-96462256D01*
X129413220Y-96462256D02*
X129508458Y-96509875D01*
X129508458Y-96509875D02*
X129651315Y-96509875D01*
X128889410Y-95843208D02*
X128889410Y-96509875D01*
X128889410Y-95938446D02*
X128841791Y-95890827D01*
X128841791Y-95890827D02*
X128746553Y-95843208D01*
X128746553Y-95843208D02*
X128603696Y-95843208D01*
X128603696Y-95843208D02*
X128508458Y-95890827D01*
X128508458Y-95890827D02*
X128460839Y-95986065D01*
X128460839Y-95986065D02*
X128460839Y-96509875D01*
X127270362Y-95605113D02*
X127222743Y-95557494D01*
X127222743Y-95557494D02*
X127127505Y-95509875D01*
X127127505Y-95509875D02*
X126889410Y-95509875D01*
X126889410Y-95509875D02*
X126794172Y-95557494D01*
X126794172Y-95557494D02*
X126746553Y-95605113D01*
X126746553Y-95605113D02*
X126698934Y-95700351D01*
X126698934Y-95700351D02*
X126698934Y-95795589D01*
X126698934Y-95795589D02*
X126746553Y-95938446D01*
X126746553Y-95938446D02*
X127317981Y-96509875D01*
X127317981Y-96509875D02*
X126698934Y-96509875D01*
X125841791Y-95509875D02*
X126032267Y-95509875D01*
X126032267Y-95509875D02*
X126127505Y-95557494D01*
X126127505Y-95557494D02*
X126175124Y-95605113D01*
X126175124Y-95605113D02*
X126270362Y-95747970D01*
X126270362Y-95747970D02*
X126317981Y-95938446D01*
X126317981Y-95938446D02*
X126317981Y-96319398D01*
X126317981Y-96319398D02*
X126270362Y-96414636D01*
X126270362Y-96414636D02*
X126222743Y-96462256D01*
X126222743Y-96462256D02*
X126127505Y-96509875D01*
X126127505Y-96509875D02*
X125937029Y-96509875D01*
X125937029Y-96509875D02*
X125841791Y-96462256D01*
X125841791Y-96462256D02*
X125794172Y-96414636D01*
X125794172Y-96414636D02*
X125746553Y-96319398D01*
X125746553Y-96319398D02*
X125746553Y-96081303D01*
X125746553Y-96081303D02*
X125794172Y-95986065D01*
X125794172Y-95986065D02*
X125841791Y-95938446D01*
X125841791Y-95938446D02*
X125937029Y-95890827D01*
X125937029Y-95890827D02*
X126127505Y-95890827D01*
X126127505Y-95890827D02*
X126222743Y-95938446D01*
X126222743Y-95938446D02*
X126270362Y-95986065D01*
X126270362Y-95986065D02*
X126317981Y-96081303D01*
X125317981Y-96414636D02*
X125270362Y-96462256D01*
X125270362Y-96462256D02*
X125317981Y-96509875D01*
X125317981Y-96509875D02*
X125365600Y-96462256D01*
X125365600Y-96462256D02*
X125317981Y-96414636D01*
X125317981Y-96414636D02*
X125317981Y-96509875D01*
X124651315Y-95509875D02*
X124556077Y-95509875D01*
X124556077Y-95509875D02*
X124460839Y-95557494D01*
X124460839Y-95557494D02*
X124413220Y-95605113D01*
X124413220Y-95605113D02*
X124365601Y-95700351D01*
X124365601Y-95700351D02*
X124317982Y-95890827D01*
X124317982Y-95890827D02*
X124317982Y-96128922D01*
X124317982Y-96128922D02*
X124365601Y-96319398D01*
X124365601Y-96319398D02*
X124413220Y-96414636D01*
X124413220Y-96414636D02*
X124460839Y-96462256D01*
X124460839Y-96462256D02*
X124556077Y-96509875D01*
X124556077Y-96509875D02*
X124651315Y-96509875D01*
X124651315Y-96509875D02*
X124746553Y-96462256D01*
X124746553Y-96462256D02*
X124794172Y-96414636D01*
X124794172Y-96414636D02*
X124841791Y-96319398D01*
X124841791Y-96319398D02*
X124889410Y-96128922D01*
X124889410Y-96128922D02*
X124889410Y-95890827D01*
X124889410Y-95890827D02*
X124841791Y-95700351D01*
X124841791Y-95700351D02*
X124794172Y-95605113D01*
X124794172Y-95605113D02*
X124746553Y-95557494D01*
X124746553Y-95557494D02*
X124651315Y-95509875D01*
X133413220Y-98119819D02*
X133413220Y-97119819D01*
X133413220Y-97119819D02*
X133175125Y-97119819D01*
X133175125Y-97119819D02*
X133032268Y-97167438D01*
X133032268Y-97167438D02*
X132937030Y-97262676D01*
X132937030Y-97262676D02*
X132889411Y-97357914D01*
X132889411Y-97357914D02*
X132841792Y-97548390D01*
X132841792Y-97548390D02*
X132841792Y-97691247D01*
X132841792Y-97691247D02*
X132889411Y-97881723D01*
X132889411Y-97881723D02*
X132937030Y-97976961D01*
X132937030Y-97976961D02*
X133032268Y-98072200D01*
X133032268Y-98072200D02*
X133175125Y-98119819D01*
X133175125Y-98119819D02*
X133413220Y-98119819D01*
X132032268Y-98072200D02*
X132127506Y-98119819D01*
X132127506Y-98119819D02*
X132317982Y-98119819D01*
X132317982Y-98119819D02*
X132413220Y-98072200D01*
X132413220Y-98072200D02*
X132460839Y-97976961D01*
X132460839Y-97976961D02*
X132460839Y-97596009D01*
X132460839Y-97596009D02*
X132413220Y-97500771D01*
X132413220Y-97500771D02*
X132317982Y-97453152D01*
X132317982Y-97453152D02*
X132127506Y-97453152D01*
X132127506Y-97453152D02*
X132032268Y-97500771D01*
X132032268Y-97500771D02*
X131984649Y-97596009D01*
X131984649Y-97596009D02*
X131984649Y-97691247D01*
X131984649Y-97691247D02*
X132460839Y-97786485D01*
X131603696Y-98072200D02*
X131508458Y-98119819D01*
X131508458Y-98119819D02*
X131317982Y-98119819D01*
X131317982Y-98119819D02*
X131222744Y-98072200D01*
X131222744Y-98072200D02*
X131175125Y-97976961D01*
X131175125Y-97976961D02*
X131175125Y-97929342D01*
X131175125Y-97929342D02*
X131222744Y-97834104D01*
X131222744Y-97834104D02*
X131317982Y-97786485D01*
X131317982Y-97786485D02*
X131460839Y-97786485D01*
X131460839Y-97786485D02*
X131556077Y-97738866D01*
X131556077Y-97738866D02*
X131603696Y-97643628D01*
X131603696Y-97643628D02*
X131603696Y-97596009D01*
X131603696Y-97596009D02*
X131556077Y-97500771D01*
X131556077Y-97500771D02*
X131460839Y-97453152D01*
X131460839Y-97453152D02*
X131317982Y-97453152D01*
X131317982Y-97453152D02*
X131222744Y-97500771D01*
X130746553Y-98119819D02*
X130746553Y-97453152D01*
X130746553Y-97119819D02*
X130794172Y-97167438D01*
X130794172Y-97167438D02*
X130746553Y-97215057D01*
X130746553Y-97215057D02*
X130698934Y-97167438D01*
X130698934Y-97167438D02*
X130746553Y-97119819D01*
X130746553Y-97119819D02*
X130746553Y-97215057D01*
X129841792Y-97453152D02*
X129841792Y-98262676D01*
X129841792Y-98262676D02*
X129889411Y-98357914D01*
X129889411Y-98357914D02*
X129937030Y-98405533D01*
X129937030Y-98405533D02*
X130032268Y-98453152D01*
X130032268Y-98453152D02*
X130175125Y-98453152D01*
X130175125Y-98453152D02*
X130270363Y-98405533D01*
X129841792Y-98072200D02*
X129937030Y-98119819D01*
X129937030Y-98119819D02*
X130127506Y-98119819D01*
X130127506Y-98119819D02*
X130222744Y-98072200D01*
X130222744Y-98072200D02*
X130270363Y-98024580D01*
X130270363Y-98024580D02*
X130317982Y-97929342D01*
X130317982Y-97929342D02*
X130317982Y-97643628D01*
X130317982Y-97643628D02*
X130270363Y-97548390D01*
X130270363Y-97548390D02*
X130222744Y-97500771D01*
X130222744Y-97500771D02*
X130127506Y-97453152D01*
X130127506Y-97453152D02*
X129937030Y-97453152D01*
X129937030Y-97453152D02*
X129841792Y-97500771D01*
X129365601Y-97453152D02*
X129365601Y-98119819D01*
X129365601Y-97548390D02*
X129317982Y-97500771D01*
X129317982Y-97500771D02*
X129222744Y-97453152D01*
X129222744Y-97453152D02*
X129079887Y-97453152D01*
X129079887Y-97453152D02*
X128984649Y-97500771D01*
X128984649Y-97500771D02*
X128937030Y-97596009D01*
X128937030Y-97596009D02*
X128937030Y-98119819D01*
X128079887Y-98072200D02*
X128175125Y-98119819D01*
X128175125Y-98119819D02*
X128365601Y-98119819D01*
X128365601Y-98119819D02*
X128460839Y-98072200D01*
X128460839Y-98072200D02*
X128508458Y-97976961D01*
X128508458Y-97976961D02*
X128508458Y-97596009D01*
X128508458Y-97596009D02*
X128460839Y-97500771D01*
X128460839Y-97500771D02*
X128365601Y-97453152D01*
X128365601Y-97453152D02*
X128175125Y-97453152D01*
X128175125Y-97453152D02*
X128079887Y-97500771D01*
X128079887Y-97500771D02*
X128032268Y-97596009D01*
X128032268Y-97596009D02*
X128032268Y-97691247D01*
X128032268Y-97691247D02*
X128508458Y-97786485D01*
X127175125Y-98119819D02*
X127175125Y-97119819D01*
X127175125Y-98072200D02*
X127270363Y-98119819D01*
X127270363Y-98119819D02*
X127460839Y-98119819D01*
X127460839Y-98119819D02*
X127556077Y-98072200D01*
X127556077Y-98072200D02*
X127603696Y-98024580D01*
X127603696Y-98024580D02*
X127651315Y-97929342D01*
X127651315Y-97929342D02*
X127651315Y-97643628D01*
X127651315Y-97643628D02*
X127603696Y-97548390D01*
X127603696Y-97548390D02*
X127556077Y-97500771D01*
X127556077Y-97500771D02*
X127460839Y-97453152D01*
X127460839Y-97453152D02*
X127270363Y-97453152D01*
X127270363Y-97453152D02*
X127175125Y-97500771D01*
X125937029Y-98119819D02*
X125937029Y-97119819D01*
X125937029Y-97500771D02*
X125841791Y-97453152D01*
X125841791Y-97453152D02*
X125651315Y-97453152D01*
X125651315Y-97453152D02*
X125556077Y-97500771D01*
X125556077Y-97500771D02*
X125508458Y-97548390D01*
X125508458Y-97548390D02*
X125460839Y-97643628D01*
X125460839Y-97643628D02*
X125460839Y-97929342D01*
X125460839Y-97929342D02*
X125508458Y-98024580D01*
X125508458Y-98024580D02*
X125556077Y-98072200D01*
X125556077Y-98072200D02*
X125651315Y-98119819D01*
X125651315Y-98119819D02*
X125841791Y-98119819D01*
X125841791Y-98119819D02*
X125937029Y-98072200D01*
X125127505Y-97453152D02*
X124889410Y-98119819D01*
X124651315Y-97453152D02*
X124889410Y-98119819D01*
X124889410Y-98119819D02*
X124984648Y-98357914D01*
X124984648Y-98357914D02*
X125032267Y-98405533D01*
X125032267Y-98405533D02*
X125127505Y-98453152D01*
X123603695Y-97119819D02*
X123365600Y-98119819D01*
X123365600Y-98119819D02*
X123175124Y-97405533D01*
X123175124Y-97405533D02*
X122984648Y-98119819D01*
X122984648Y-98119819D02*
X122746553Y-97119819D01*
X122365600Y-98119819D02*
X122365600Y-97453152D01*
X122365600Y-97119819D02*
X122413219Y-97167438D01*
X122413219Y-97167438D02*
X122365600Y-97215057D01*
X122365600Y-97215057D02*
X122317981Y-97167438D01*
X122317981Y-97167438D02*
X122365600Y-97119819D01*
X122365600Y-97119819D02*
X122365600Y-97215057D01*
X121746553Y-98119819D02*
X121841791Y-98072200D01*
X121841791Y-98072200D02*
X121889410Y-97976961D01*
X121889410Y-97976961D02*
X121889410Y-97119819D01*
X121222743Y-98119819D02*
X121317981Y-98072200D01*
X121317981Y-98072200D02*
X121365600Y-97976961D01*
X121365600Y-97976961D02*
X121365600Y-97119819D01*
X120841790Y-98119819D02*
X120841790Y-97453152D01*
X120841790Y-97119819D02*
X120889409Y-97167438D01*
X120889409Y-97167438D02*
X120841790Y-97215057D01*
X120841790Y-97215057D02*
X120794171Y-97167438D01*
X120794171Y-97167438D02*
X120841790Y-97119819D01*
X120841790Y-97119819D02*
X120841790Y-97215057D01*
X119937029Y-98119819D02*
X119937029Y-97596009D01*
X119937029Y-97596009D02*
X119984648Y-97500771D01*
X119984648Y-97500771D02*
X120079886Y-97453152D01*
X120079886Y-97453152D02*
X120270362Y-97453152D01*
X120270362Y-97453152D02*
X120365600Y-97500771D01*
X119937029Y-98072200D02*
X120032267Y-98119819D01*
X120032267Y-98119819D02*
X120270362Y-98119819D01*
X120270362Y-98119819D02*
X120365600Y-98072200D01*
X120365600Y-98072200D02*
X120413219Y-97976961D01*
X120413219Y-97976961D02*
X120413219Y-97881723D01*
X120413219Y-97881723D02*
X120365600Y-97786485D01*
X120365600Y-97786485D02*
X120270362Y-97738866D01*
X120270362Y-97738866D02*
X120032267Y-97738866D01*
X120032267Y-97738866D02*
X119937029Y-97691247D01*
X119460838Y-98119819D02*
X119460838Y-97453152D01*
X119460838Y-97548390D02*
X119413219Y-97500771D01*
X119413219Y-97500771D02*
X119317981Y-97453152D01*
X119317981Y-97453152D02*
X119175124Y-97453152D01*
X119175124Y-97453152D02*
X119079886Y-97500771D01*
X119079886Y-97500771D02*
X119032267Y-97596009D01*
X119032267Y-97596009D02*
X119032267Y-98119819D01*
X119032267Y-97596009D02*
X118984648Y-97500771D01*
X118984648Y-97500771D02*
X118889410Y-97453152D01*
X118889410Y-97453152D02*
X118746553Y-97453152D01*
X118746553Y-97453152D02*
X118651314Y-97500771D01*
X118651314Y-97500771D02*
X118603695Y-97596009D01*
X118603695Y-97596009D02*
X118603695Y-98119819D01*
X117365600Y-98119819D02*
X117365600Y-97119819D01*
X117365600Y-97596009D02*
X116794172Y-97596009D01*
X116794172Y-98119819D02*
X116794172Y-97119819D01*
X115889410Y-98119819D02*
X115889410Y-97596009D01*
X115889410Y-97596009D02*
X115937029Y-97500771D01*
X115937029Y-97500771D02*
X116032267Y-97453152D01*
X116032267Y-97453152D02*
X116222743Y-97453152D01*
X116222743Y-97453152D02*
X116317981Y-97500771D01*
X115889410Y-98072200D02*
X115984648Y-98119819D01*
X115984648Y-98119819D02*
X116222743Y-98119819D01*
X116222743Y-98119819D02*
X116317981Y-98072200D01*
X116317981Y-98072200D02*
X116365600Y-97976961D01*
X116365600Y-97976961D02*
X116365600Y-97881723D01*
X116365600Y-97881723D02*
X116317981Y-97786485D01*
X116317981Y-97786485D02*
X116222743Y-97738866D01*
X116222743Y-97738866D02*
X115984648Y-97738866D01*
X115984648Y-97738866D02*
X115889410Y-97691247D01*
X115413219Y-98119819D02*
X115413219Y-97453152D01*
X115413219Y-97548390D02*
X115365600Y-97500771D01*
X115365600Y-97500771D02*
X115270362Y-97453152D01*
X115270362Y-97453152D02*
X115127505Y-97453152D01*
X115127505Y-97453152D02*
X115032267Y-97500771D01*
X115032267Y-97500771D02*
X114984648Y-97596009D01*
X114984648Y-97596009D02*
X114984648Y-98119819D01*
X114984648Y-97596009D02*
X114937029Y-97500771D01*
X114937029Y-97500771D02*
X114841791Y-97453152D01*
X114841791Y-97453152D02*
X114698934Y-97453152D01*
X114698934Y-97453152D02*
X114603695Y-97500771D01*
X114603695Y-97500771D02*
X114556076Y-97596009D01*
X114556076Y-97596009D02*
X114556076Y-98119819D01*
X114079886Y-98119819D02*
X114079886Y-97453152D01*
X114079886Y-97548390D02*
X114032267Y-97500771D01*
X114032267Y-97500771D02*
X113937029Y-97453152D01*
X113937029Y-97453152D02*
X113794172Y-97453152D01*
X113794172Y-97453152D02*
X113698934Y-97500771D01*
X113698934Y-97500771D02*
X113651315Y-97596009D01*
X113651315Y-97596009D02*
X113651315Y-98119819D01*
X113651315Y-97596009D02*
X113603696Y-97500771D01*
X113603696Y-97500771D02*
X113508458Y-97453152D01*
X113508458Y-97453152D02*
X113365601Y-97453152D01*
X113365601Y-97453152D02*
X113270362Y-97500771D01*
X113270362Y-97500771D02*
X113222743Y-97596009D01*
X113222743Y-97596009D02*
X113222743Y-98119819D01*
X112365601Y-98072200D02*
X112460839Y-98119819D01*
X112460839Y-98119819D02*
X112651315Y-98119819D01*
X112651315Y-98119819D02*
X112746553Y-98072200D01*
X112746553Y-98072200D02*
X112794172Y-97976961D01*
X112794172Y-97976961D02*
X112794172Y-97596009D01*
X112794172Y-97596009D02*
X112746553Y-97500771D01*
X112746553Y-97500771D02*
X112651315Y-97453152D01*
X112651315Y-97453152D02*
X112460839Y-97453152D01*
X112460839Y-97453152D02*
X112365601Y-97500771D01*
X112365601Y-97500771D02*
X112317982Y-97596009D01*
X112317982Y-97596009D02*
X112317982Y-97691247D01*
X112317982Y-97691247D02*
X112794172Y-97786485D01*
X111889410Y-98119819D02*
X111889410Y-97453152D01*
X111889410Y-97643628D02*
X111841791Y-97548390D01*
X111841791Y-97548390D02*
X111794172Y-97500771D01*
X111794172Y-97500771D02*
X111698934Y-97453152D01*
X111698934Y-97453152D02*
X111603696Y-97453152D01*
X112869819Y-36036779D02*
X111869819Y-36036779D01*
X111869819Y-36036779D02*
X111869819Y-36274874D01*
X111869819Y-36274874D02*
X111917438Y-36417731D01*
X111917438Y-36417731D02*
X112012676Y-36512969D01*
X112012676Y-36512969D02*
X112107914Y-36560588D01*
X112107914Y-36560588D02*
X112298390Y-36608207D01*
X112298390Y-36608207D02*
X112441247Y-36608207D01*
X112441247Y-36608207D02*
X112631723Y-36560588D01*
X112631723Y-36560588D02*
X112726961Y-36512969D01*
X112726961Y-36512969D02*
X112822200Y-36417731D01*
X112822200Y-36417731D02*
X112869819Y-36274874D01*
X112869819Y-36274874D02*
X112869819Y-36036779D01*
X112488866Y-37036779D02*
X112488866Y-37798684D01*
X112869819Y-37417731D02*
X112107914Y-37417731D01*
D11*
X126220428Y-46344117D02*
X124720428Y-46344117D01*
X126220428Y-47272689D02*
X126149000Y-47129832D01*
X126149000Y-47129832D02*
X126077571Y-47058403D01*
X126077571Y-47058403D02*
X125934714Y-46986975D01*
X125934714Y-46986975D02*
X125506142Y-46986975D01*
X125506142Y-46986975D02*
X125363285Y-47058403D01*
X125363285Y-47058403D02*
X125291857Y-47129832D01*
X125291857Y-47129832D02*
X125220428Y-47272689D01*
X125220428Y-47272689D02*
X125220428Y-47486975D01*
X125220428Y-47486975D02*
X125291857Y-47629832D01*
X125291857Y-47629832D02*
X125363285Y-47701261D01*
X125363285Y-47701261D02*
X125506142Y-47772689D01*
X125506142Y-47772689D02*
X125934714Y-47772689D01*
X125934714Y-47772689D02*
X126077571Y-47701261D01*
X126077571Y-47701261D02*
X126149000Y-47629832D01*
X126149000Y-47629832D02*
X126220428Y-47486975D01*
X126220428Y-47486975D02*
X126220428Y-47272689D01*
X125434714Y-48915546D02*
X125434714Y-48415546D01*
X126220428Y-48415546D02*
X124720428Y-48415546D01*
X124720428Y-48415546D02*
X124720428Y-49129832D01*
D10*
X102877506Y-97369819D02*
X102877506Y-98084104D01*
X102877506Y-98084104D02*
X102925125Y-98226961D01*
X102925125Y-98226961D02*
X103020363Y-98322200D01*
X103020363Y-98322200D02*
X103163220Y-98369819D01*
X103163220Y-98369819D02*
X103258458Y-98369819D01*
X101925125Y-98369819D02*
X102401315Y-98369819D01*
X102401315Y-98369819D02*
X102401315Y-97369819D01*
X101020363Y-98274580D02*
X101067982Y-98322200D01*
X101067982Y-98322200D02*
X101210839Y-98369819D01*
X101210839Y-98369819D02*
X101306077Y-98369819D01*
X101306077Y-98369819D02*
X101448934Y-98322200D01*
X101448934Y-98322200D02*
X101544172Y-98226961D01*
X101544172Y-98226961D02*
X101591791Y-98131723D01*
X101591791Y-98131723D02*
X101639410Y-97941247D01*
X101639410Y-97941247D02*
X101639410Y-97798390D01*
X101639410Y-97798390D02*
X101591791Y-97607914D01*
X101591791Y-97607914D02*
X101544172Y-97512676D01*
X101544172Y-97512676D02*
X101448934Y-97417438D01*
X101448934Y-97417438D02*
X101306077Y-97369819D01*
X101306077Y-97369819D02*
X101210839Y-97369819D01*
X101210839Y-97369819D02*
X101067982Y-97417438D01*
X101067982Y-97417438D02*
X101020363Y-97465057D01*
X100306077Y-97369819D02*
X100306077Y-98084104D01*
X100306077Y-98084104D02*
X100353696Y-98226961D01*
X100353696Y-98226961D02*
X100448934Y-98322200D01*
X100448934Y-98322200D02*
X100591791Y-98369819D01*
X100591791Y-98369819D02*
X100687029Y-98369819D01*
X99353696Y-98369819D02*
X99829886Y-98369819D01*
X99829886Y-98369819D02*
X99829886Y-97369819D01*
X98448934Y-98274580D02*
X98496553Y-98322200D01*
X98496553Y-98322200D02*
X98639410Y-98369819D01*
X98639410Y-98369819D02*
X98734648Y-98369819D01*
X98734648Y-98369819D02*
X98877505Y-98322200D01*
X98877505Y-98322200D02*
X98972743Y-98226961D01*
X98972743Y-98226961D02*
X99020362Y-98131723D01*
X99020362Y-98131723D02*
X99067981Y-97941247D01*
X99067981Y-97941247D02*
X99067981Y-97798390D01*
X99067981Y-97798390D02*
X99020362Y-97607914D01*
X99020362Y-97607914D02*
X98972743Y-97512676D01*
X98972743Y-97512676D02*
X98877505Y-97417438D01*
X98877505Y-97417438D02*
X98734648Y-97369819D01*
X98734648Y-97369819D02*
X98639410Y-97369819D01*
X98639410Y-97369819D02*
X98496553Y-97417438D01*
X98496553Y-97417438D02*
X98448934Y-97465057D01*
X97734648Y-97369819D02*
X97734648Y-98084104D01*
X97734648Y-98084104D02*
X97782267Y-98226961D01*
X97782267Y-98226961D02*
X97877505Y-98322200D01*
X97877505Y-98322200D02*
X98020362Y-98369819D01*
X98020362Y-98369819D02*
X98115600Y-98369819D01*
X96782267Y-98369819D02*
X97258457Y-98369819D01*
X97258457Y-98369819D02*
X97258457Y-97369819D01*
X95877505Y-98274580D02*
X95925124Y-98322200D01*
X95925124Y-98322200D02*
X96067981Y-98369819D01*
X96067981Y-98369819D02*
X96163219Y-98369819D01*
X96163219Y-98369819D02*
X96306076Y-98322200D01*
X96306076Y-98322200D02*
X96401314Y-98226961D01*
X96401314Y-98226961D02*
X96448933Y-98131723D01*
X96448933Y-98131723D02*
X96496552Y-97941247D01*
X96496552Y-97941247D02*
X96496552Y-97798390D01*
X96496552Y-97798390D02*
X96448933Y-97607914D01*
X96448933Y-97607914D02*
X96401314Y-97512676D01*
X96401314Y-97512676D02*
X96306076Y-97417438D01*
X96306076Y-97417438D02*
X96163219Y-97369819D01*
X96163219Y-97369819D02*
X96067981Y-97369819D01*
X96067981Y-97369819D02*
X95925124Y-97417438D01*
X95925124Y-97417438D02*
X95877505Y-97465057D01*
X95163219Y-97369819D02*
X95163219Y-98084104D01*
X95163219Y-98084104D02*
X95210838Y-98226961D01*
X95210838Y-98226961D02*
X95306076Y-98322200D01*
X95306076Y-98322200D02*
X95448933Y-98369819D01*
X95448933Y-98369819D02*
X95544171Y-98369819D01*
X94210838Y-98369819D02*
X94687028Y-98369819D01*
X94687028Y-98369819D02*
X94687028Y-97369819D01*
X93306076Y-98274580D02*
X93353695Y-98322200D01*
X93353695Y-98322200D02*
X93496552Y-98369819D01*
X93496552Y-98369819D02*
X93591790Y-98369819D01*
X93591790Y-98369819D02*
X93734647Y-98322200D01*
X93734647Y-98322200D02*
X93829885Y-98226961D01*
X93829885Y-98226961D02*
X93877504Y-98131723D01*
X93877504Y-98131723D02*
X93925123Y-97941247D01*
X93925123Y-97941247D02*
X93925123Y-97798390D01*
X93925123Y-97798390D02*
X93877504Y-97607914D01*
X93877504Y-97607914D02*
X93829885Y-97512676D01*
X93829885Y-97512676D02*
X93734647Y-97417438D01*
X93734647Y-97417438D02*
X93591790Y-97369819D01*
X93591790Y-97369819D02*
X93496552Y-97369819D01*
X93496552Y-97369819D02*
X93353695Y-97417438D01*
X93353695Y-97417438D02*
X93306076Y-97465057D01*
X133003152Y-44665350D02*
X133812676Y-44665350D01*
X133812676Y-44665350D02*
X133907914Y-44617731D01*
X133907914Y-44617731D02*
X133955533Y-44570112D01*
X133955533Y-44570112D02*
X134003152Y-44474874D01*
X134003152Y-44474874D02*
X134003152Y-44332017D01*
X134003152Y-44332017D02*
X133955533Y-44236779D01*
X133622200Y-44665350D02*
X133669819Y-44570112D01*
X133669819Y-44570112D02*
X133669819Y-44379636D01*
X133669819Y-44379636D02*
X133622200Y-44284398D01*
X133622200Y-44284398D02*
X133574580Y-44236779D01*
X133574580Y-44236779D02*
X133479342Y-44189160D01*
X133479342Y-44189160D02*
X133193628Y-44189160D01*
X133193628Y-44189160D02*
X133098390Y-44236779D01*
X133098390Y-44236779D02*
X133050771Y-44284398D01*
X133050771Y-44284398D02*
X133003152Y-44379636D01*
X133003152Y-44379636D02*
X133003152Y-44570112D01*
X133003152Y-44570112D02*
X133050771Y-44665350D01*
X133669819Y-45141541D02*
X133003152Y-45141541D01*
X132669819Y-45141541D02*
X132717438Y-45093922D01*
X132717438Y-45093922D02*
X132765057Y-45141541D01*
X132765057Y-45141541D02*
X132717438Y-45189160D01*
X132717438Y-45189160D02*
X132669819Y-45141541D01*
X132669819Y-45141541D02*
X132765057Y-45141541D01*
X133003152Y-45474874D02*
X133003152Y-45855826D01*
X132669819Y-45617731D02*
X133526961Y-45617731D01*
X133526961Y-45617731D02*
X133622200Y-45665350D01*
X133622200Y-45665350D02*
X133669819Y-45760588D01*
X133669819Y-45760588D02*
X133669819Y-45855826D01*
X133669819Y-46189160D02*
X132669819Y-46189160D01*
X133669819Y-46617731D02*
X133146009Y-46617731D01*
X133146009Y-46617731D02*
X133050771Y-46570112D01*
X133050771Y-46570112D02*
X133003152Y-46474874D01*
X133003152Y-46474874D02*
X133003152Y-46332017D01*
X133003152Y-46332017D02*
X133050771Y-46236779D01*
X133050771Y-46236779D02*
X133098390Y-46189160D01*
X133003152Y-47522493D02*
X133669819Y-47522493D01*
X133003152Y-47093922D02*
X133526961Y-47093922D01*
X133526961Y-47093922D02*
X133622200Y-47141541D01*
X133622200Y-47141541D02*
X133669819Y-47236779D01*
X133669819Y-47236779D02*
X133669819Y-47379636D01*
X133669819Y-47379636D02*
X133622200Y-47474874D01*
X133622200Y-47474874D02*
X133574580Y-47522493D01*
X133669819Y-47998684D02*
X132669819Y-47998684D01*
X133050771Y-47998684D02*
X133003152Y-48093922D01*
X133003152Y-48093922D02*
X133003152Y-48284398D01*
X133003152Y-48284398D02*
X133050771Y-48379636D01*
X133050771Y-48379636D02*
X133098390Y-48427255D01*
X133098390Y-48427255D02*
X133193628Y-48474874D01*
X133193628Y-48474874D02*
X133479342Y-48474874D01*
X133479342Y-48474874D02*
X133574580Y-48427255D01*
X133574580Y-48427255D02*
X133622200Y-48379636D01*
X133622200Y-48379636D02*
X133669819Y-48284398D01*
X133669819Y-48284398D02*
X133669819Y-48093922D01*
X133669819Y-48093922D02*
X133622200Y-47998684D01*
X133574580Y-48903446D02*
X133622200Y-48951065D01*
X133622200Y-48951065D02*
X133669819Y-48903446D01*
X133669819Y-48903446D02*
X133622200Y-48855827D01*
X133622200Y-48855827D02*
X133574580Y-48903446D01*
X133574580Y-48903446D02*
X133669819Y-48903446D01*
X133622200Y-49808207D02*
X133669819Y-49712969D01*
X133669819Y-49712969D02*
X133669819Y-49522493D01*
X133669819Y-49522493D02*
X133622200Y-49427255D01*
X133622200Y-49427255D02*
X133574580Y-49379636D01*
X133574580Y-49379636D02*
X133479342Y-49332017D01*
X133479342Y-49332017D02*
X133193628Y-49332017D01*
X133193628Y-49332017D02*
X133098390Y-49379636D01*
X133098390Y-49379636D02*
X133050771Y-49427255D01*
X133050771Y-49427255D02*
X133003152Y-49522493D01*
X133003152Y-49522493D02*
X133003152Y-49712969D01*
X133003152Y-49712969D02*
X133050771Y-49808207D01*
X133669819Y-50379636D02*
X133622200Y-50284398D01*
X133622200Y-50284398D02*
X133574580Y-50236779D01*
X133574580Y-50236779D02*
X133479342Y-50189160D01*
X133479342Y-50189160D02*
X133193628Y-50189160D01*
X133193628Y-50189160D02*
X133098390Y-50236779D01*
X133098390Y-50236779D02*
X133050771Y-50284398D01*
X133050771Y-50284398D02*
X133003152Y-50379636D01*
X133003152Y-50379636D02*
X133003152Y-50522493D01*
X133003152Y-50522493D02*
X133050771Y-50617731D01*
X133050771Y-50617731D02*
X133098390Y-50665350D01*
X133098390Y-50665350D02*
X133193628Y-50712969D01*
X133193628Y-50712969D02*
X133479342Y-50712969D01*
X133479342Y-50712969D02*
X133574580Y-50665350D01*
X133574580Y-50665350D02*
X133622200Y-50617731D01*
X133622200Y-50617731D02*
X133669819Y-50522493D01*
X133669819Y-50522493D02*
X133669819Y-50379636D01*
X133669819Y-51141541D02*
X133003152Y-51141541D01*
X133098390Y-51141541D02*
X133050771Y-51189160D01*
X133050771Y-51189160D02*
X133003152Y-51284398D01*
X133003152Y-51284398D02*
X133003152Y-51427255D01*
X133003152Y-51427255D02*
X133050771Y-51522493D01*
X133050771Y-51522493D02*
X133146009Y-51570112D01*
X133146009Y-51570112D02*
X133669819Y-51570112D01*
X133146009Y-51570112D02*
X133050771Y-51617731D01*
X133050771Y-51617731D02*
X133003152Y-51712969D01*
X133003152Y-51712969D02*
X133003152Y-51855826D01*
X133003152Y-51855826D02*
X133050771Y-51951065D01*
X133050771Y-51951065D02*
X133146009Y-51998684D01*
X133146009Y-51998684D02*
X133669819Y-51998684D01*
X132622200Y-53189159D02*
X133907914Y-52332017D01*
X133669819Y-53951064D02*
X133146009Y-53951064D01*
X133146009Y-53951064D02*
X133050771Y-53903445D01*
X133050771Y-53903445D02*
X133003152Y-53808207D01*
X133003152Y-53808207D02*
X133003152Y-53617731D01*
X133003152Y-53617731D02*
X133050771Y-53522493D01*
X133622200Y-53951064D02*
X133669819Y-53855826D01*
X133669819Y-53855826D02*
X133669819Y-53617731D01*
X133669819Y-53617731D02*
X133622200Y-53522493D01*
X133622200Y-53522493D02*
X133526961Y-53474874D01*
X133526961Y-53474874D02*
X133431723Y-53474874D01*
X133431723Y-53474874D02*
X133336485Y-53522493D01*
X133336485Y-53522493D02*
X133288866Y-53617731D01*
X133288866Y-53617731D02*
X133288866Y-53855826D01*
X133288866Y-53855826D02*
X133241247Y-53951064D01*
X133003152Y-54855826D02*
X133669819Y-54855826D01*
X133003152Y-54427255D02*
X133526961Y-54427255D01*
X133526961Y-54427255D02*
X133622200Y-54474874D01*
X133622200Y-54474874D02*
X133669819Y-54570112D01*
X133669819Y-54570112D02*
X133669819Y-54712969D01*
X133669819Y-54712969D02*
X133622200Y-54808207D01*
X133622200Y-54808207D02*
X133574580Y-54855826D01*
X133003152Y-55189160D02*
X133003152Y-55570112D01*
X132669819Y-55332017D02*
X133526961Y-55332017D01*
X133526961Y-55332017D02*
X133622200Y-55379636D01*
X133622200Y-55379636D02*
X133669819Y-55474874D01*
X133669819Y-55474874D02*
X133669819Y-55570112D01*
X133669819Y-56046303D02*
X133622200Y-55951065D01*
X133622200Y-55951065D02*
X133574580Y-55903446D01*
X133574580Y-55903446D02*
X133479342Y-55855827D01*
X133479342Y-55855827D02*
X133193628Y-55855827D01*
X133193628Y-55855827D02*
X133098390Y-55903446D01*
X133098390Y-55903446D02*
X133050771Y-55951065D01*
X133050771Y-55951065D02*
X133003152Y-56046303D01*
X133003152Y-56046303D02*
X133003152Y-56189160D01*
X133003152Y-56189160D02*
X133050771Y-56284398D01*
X133050771Y-56284398D02*
X133098390Y-56332017D01*
X133098390Y-56332017D02*
X133193628Y-56379636D01*
X133193628Y-56379636D02*
X133479342Y-56379636D01*
X133479342Y-56379636D02*
X133574580Y-56332017D01*
X133574580Y-56332017D02*
X133622200Y-56284398D01*
X133622200Y-56284398D02*
X133669819Y-56189160D01*
X133669819Y-56189160D02*
X133669819Y-56046303D01*
X133669819Y-56808208D02*
X132669819Y-56808208D01*
X133146009Y-56808208D02*
X133146009Y-57379636D01*
X133669819Y-57379636D02*
X132669819Y-57379636D01*
X133669819Y-58284398D02*
X133146009Y-58284398D01*
X133146009Y-58284398D02*
X133050771Y-58236779D01*
X133050771Y-58236779D02*
X133003152Y-58141541D01*
X133003152Y-58141541D02*
X133003152Y-57951065D01*
X133003152Y-57951065D02*
X133050771Y-57855827D01*
X133622200Y-58284398D02*
X133669819Y-58189160D01*
X133669819Y-58189160D02*
X133669819Y-57951065D01*
X133669819Y-57951065D02*
X133622200Y-57855827D01*
X133622200Y-57855827D02*
X133526961Y-57808208D01*
X133526961Y-57808208D02*
X133431723Y-57808208D01*
X133431723Y-57808208D02*
X133336485Y-57855827D01*
X133336485Y-57855827D02*
X133288866Y-57951065D01*
X133288866Y-57951065D02*
X133288866Y-58189160D01*
X133288866Y-58189160D02*
X133241247Y-58284398D01*
X133669819Y-58760589D02*
X133003152Y-58760589D01*
X133098390Y-58760589D02*
X133050771Y-58808208D01*
X133050771Y-58808208D02*
X133003152Y-58903446D01*
X133003152Y-58903446D02*
X133003152Y-59046303D01*
X133003152Y-59046303D02*
X133050771Y-59141541D01*
X133050771Y-59141541D02*
X133146009Y-59189160D01*
X133146009Y-59189160D02*
X133669819Y-59189160D01*
X133146009Y-59189160D02*
X133050771Y-59236779D01*
X133050771Y-59236779D02*
X133003152Y-59332017D01*
X133003152Y-59332017D02*
X133003152Y-59474874D01*
X133003152Y-59474874D02*
X133050771Y-59570113D01*
X133050771Y-59570113D02*
X133146009Y-59617732D01*
X133146009Y-59617732D02*
X133669819Y-59617732D01*
X133669819Y-60093922D02*
X133003152Y-60093922D01*
X133098390Y-60093922D02*
X133050771Y-60141541D01*
X133050771Y-60141541D02*
X133003152Y-60236779D01*
X133003152Y-60236779D02*
X133003152Y-60379636D01*
X133003152Y-60379636D02*
X133050771Y-60474874D01*
X133050771Y-60474874D02*
X133146009Y-60522493D01*
X133146009Y-60522493D02*
X133669819Y-60522493D01*
X133146009Y-60522493D02*
X133050771Y-60570112D01*
X133050771Y-60570112D02*
X133003152Y-60665350D01*
X133003152Y-60665350D02*
X133003152Y-60808207D01*
X133003152Y-60808207D02*
X133050771Y-60903446D01*
X133050771Y-60903446D02*
X133146009Y-60951065D01*
X133146009Y-60951065D02*
X133669819Y-60951065D01*
X133622200Y-61808207D02*
X133669819Y-61712969D01*
X133669819Y-61712969D02*
X133669819Y-61522493D01*
X133669819Y-61522493D02*
X133622200Y-61427255D01*
X133622200Y-61427255D02*
X133526961Y-61379636D01*
X133526961Y-61379636D02*
X133146009Y-61379636D01*
X133146009Y-61379636D02*
X133050771Y-61427255D01*
X133050771Y-61427255D02*
X133003152Y-61522493D01*
X133003152Y-61522493D02*
X133003152Y-61712969D01*
X133003152Y-61712969D02*
X133050771Y-61808207D01*
X133050771Y-61808207D02*
X133146009Y-61855826D01*
X133146009Y-61855826D02*
X133241247Y-61855826D01*
X133241247Y-61855826D02*
X133336485Y-61379636D01*
X133669819Y-62284398D02*
X133003152Y-62284398D01*
X133193628Y-62284398D02*
X133098390Y-62332017D01*
X133098390Y-62332017D02*
X133050771Y-62379636D01*
X133050771Y-62379636D02*
X133003152Y-62474874D01*
X133003152Y-62474874D02*
X133003152Y-62570112D01*
X132622200Y-63617731D02*
X133907914Y-62760589D01*
X133669819Y-63951065D02*
X132669819Y-63951065D01*
X133669819Y-64570112D02*
X133622200Y-64474874D01*
X133622200Y-64474874D02*
X133574580Y-64427255D01*
X133574580Y-64427255D02*
X133479342Y-64379636D01*
X133479342Y-64379636D02*
X133193628Y-64379636D01*
X133193628Y-64379636D02*
X133098390Y-64427255D01*
X133098390Y-64427255D02*
X133050771Y-64474874D01*
X133050771Y-64474874D02*
X133003152Y-64570112D01*
X133003152Y-64570112D02*
X133003152Y-64712969D01*
X133003152Y-64712969D02*
X133050771Y-64808207D01*
X133050771Y-64808207D02*
X133098390Y-64855826D01*
X133098390Y-64855826D02*
X133193628Y-64903445D01*
X133193628Y-64903445D02*
X133479342Y-64903445D01*
X133479342Y-64903445D02*
X133574580Y-64855826D01*
X133574580Y-64855826D02*
X133622200Y-64808207D01*
X133622200Y-64808207D02*
X133669819Y-64712969D01*
X133669819Y-64712969D02*
X133669819Y-64570112D01*
X133146009Y-65665350D02*
X133146009Y-65332017D01*
X133669819Y-65332017D02*
X132669819Y-65332017D01*
X132669819Y-65332017D02*
X132669819Y-65808207D01*
X133288866Y-66189160D02*
X133288866Y-66951065D01*
X133003152Y-67332017D02*
X133669819Y-67570112D01*
X133669819Y-67570112D02*
X133003152Y-67808207D01*
X132765057Y-68141541D02*
X132717438Y-68189160D01*
X132717438Y-68189160D02*
X132669819Y-68284398D01*
X132669819Y-68284398D02*
X132669819Y-68522493D01*
X132669819Y-68522493D02*
X132717438Y-68617731D01*
X132717438Y-68617731D02*
X132765057Y-68665350D01*
X132765057Y-68665350D02*
X132860295Y-68712969D01*
X132860295Y-68712969D02*
X132955533Y-68712969D01*
X132955533Y-68712969D02*
X133098390Y-68665350D01*
X133098390Y-68665350D02*
X133669819Y-68093922D01*
X133669819Y-68093922D02*
X133669819Y-68712969D01*
X132669819Y-69570112D02*
X132669819Y-69379636D01*
X132669819Y-69379636D02*
X132717438Y-69284398D01*
X132717438Y-69284398D02*
X132765057Y-69236779D01*
X132765057Y-69236779D02*
X132907914Y-69141541D01*
X132907914Y-69141541D02*
X133098390Y-69093922D01*
X133098390Y-69093922D02*
X133479342Y-69093922D01*
X133479342Y-69093922D02*
X133574580Y-69141541D01*
X133574580Y-69141541D02*
X133622200Y-69189160D01*
X133622200Y-69189160D02*
X133669819Y-69284398D01*
X133669819Y-69284398D02*
X133669819Y-69474874D01*
X133669819Y-69474874D02*
X133622200Y-69570112D01*
X133622200Y-69570112D02*
X133574580Y-69617731D01*
X133574580Y-69617731D02*
X133479342Y-69665350D01*
X133479342Y-69665350D02*
X133241247Y-69665350D01*
X133241247Y-69665350D02*
X133146009Y-69617731D01*
X133146009Y-69617731D02*
X133098390Y-69570112D01*
X133098390Y-69570112D02*
X133050771Y-69474874D01*
X133050771Y-69474874D02*
X133050771Y-69284398D01*
X133050771Y-69284398D02*
X133098390Y-69189160D01*
X133098390Y-69189160D02*
X133146009Y-69141541D01*
X133146009Y-69141541D02*
X133241247Y-69093922D01*
X133288866Y-70093922D02*
X133288866Y-70855827D01*
X133669819Y-71332017D02*
X132669819Y-71332017D01*
X132669819Y-71332017D02*
X132669819Y-71570112D01*
X132669819Y-71570112D02*
X132717438Y-71712969D01*
X132717438Y-71712969D02*
X132812676Y-71808207D01*
X132812676Y-71808207D02*
X132907914Y-71855826D01*
X132907914Y-71855826D02*
X133098390Y-71903445D01*
X133098390Y-71903445D02*
X133241247Y-71903445D01*
X133241247Y-71903445D02*
X133431723Y-71855826D01*
X133431723Y-71855826D02*
X133526961Y-71808207D01*
X133526961Y-71808207D02*
X133622200Y-71712969D01*
X133622200Y-71712969D02*
X133669819Y-71570112D01*
X133669819Y-71570112D02*
X133669819Y-71332017D01*
X133622200Y-72712969D02*
X133669819Y-72617731D01*
X133669819Y-72617731D02*
X133669819Y-72427255D01*
X133669819Y-72427255D02*
X133622200Y-72332017D01*
X133622200Y-72332017D02*
X133526961Y-72284398D01*
X133526961Y-72284398D02*
X133146009Y-72284398D01*
X133146009Y-72284398D02*
X133050771Y-72332017D01*
X133050771Y-72332017D02*
X133003152Y-72427255D01*
X133003152Y-72427255D02*
X133003152Y-72617731D01*
X133003152Y-72617731D02*
X133050771Y-72712969D01*
X133050771Y-72712969D02*
X133146009Y-72760588D01*
X133146009Y-72760588D02*
X133241247Y-72760588D01*
X133241247Y-72760588D02*
X133336485Y-72284398D01*
X133622200Y-73141541D02*
X133669819Y-73236779D01*
X133669819Y-73236779D02*
X133669819Y-73427255D01*
X133669819Y-73427255D02*
X133622200Y-73522493D01*
X133622200Y-73522493D02*
X133526961Y-73570112D01*
X133526961Y-73570112D02*
X133479342Y-73570112D01*
X133479342Y-73570112D02*
X133384104Y-73522493D01*
X133384104Y-73522493D02*
X133336485Y-73427255D01*
X133336485Y-73427255D02*
X133336485Y-73284398D01*
X133336485Y-73284398D02*
X133288866Y-73189160D01*
X133288866Y-73189160D02*
X133193628Y-73141541D01*
X133193628Y-73141541D02*
X133146009Y-73141541D01*
X133146009Y-73141541D02*
X133050771Y-73189160D01*
X133050771Y-73189160D02*
X133003152Y-73284398D01*
X133003152Y-73284398D02*
X133003152Y-73427255D01*
X133003152Y-73427255D02*
X133050771Y-73522493D01*
X133669819Y-73998684D02*
X133003152Y-73998684D01*
X132669819Y-73998684D02*
X132717438Y-73951065D01*
X132717438Y-73951065D02*
X132765057Y-73998684D01*
X132765057Y-73998684D02*
X132717438Y-74046303D01*
X132717438Y-74046303D02*
X132669819Y-73998684D01*
X132669819Y-73998684D02*
X132765057Y-73998684D01*
X133003152Y-74903445D02*
X133812676Y-74903445D01*
X133812676Y-74903445D02*
X133907914Y-74855826D01*
X133907914Y-74855826D02*
X133955533Y-74808207D01*
X133955533Y-74808207D02*
X134003152Y-74712969D01*
X134003152Y-74712969D02*
X134003152Y-74570112D01*
X134003152Y-74570112D02*
X133955533Y-74474874D01*
X133622200Y-74903445D02*
X133669819Y-74808207D01*
X133669819Y-74808207D02*
X133669819Y-74617731D01*
X133669819Y-74617731D02*
X133622200Y-74522493D01*
X133622200Y-74522493D02*
X133574580Y-74474874D01*
X133574580Y-74474874D02*
X133479342Y-74427255D01*
X133479342Y-74427255D02*
X133193628Y-74427255D01*
X133193628Y-74427255D02*
X133098390Y-74474874D01*
X133098390Y-74474874D02*
X133050771Y-74522493D01*
X133050771Y-74522493D02*
X133003152Y-74617731D01*
X133003152Y-74617731D02*
X133003152Y-74808207D01*
X133003152Y-74808207D02*
X133050771Y-74903445D01*
X133003152Y-75379636D02*
X133669819Y-75379636D01*
X133098390Y-75379636D02*
X133050771Y-75427255D01*
X133050771Y-75427255D02*
X133003152Y-75522493D01*
X133003152Y-75522493D02*
X133003152Y-75665350D01*
X133003152Y-75665350D02*
X133050771Y-75760588D01*
X133050771Y-75760588D02*
X133146009Y-75808207D01*
X133146009Y-75808207D02*
X133669819Y-75808207D01*
X133288866Y-76284398D02*
X133288866Y-77046303D01*
X133146009Y-77855826D02*
X133146009Y-77522493D01*
X133669819Y-77522493D02*
X132669819Y-77522493D01*
X132669819Y-77522493D02*
X132669819Y-77998683D01*
X133669819Y-78379636D02*
X133003152Y-78379636D01*
X132669819Y-78379636D02*
X132717438Y-78332017D01*
X132717438Y-78332017D02*
X132765057Y-78379636D01*
X132765057Y-78379636D02*
X132717438Y-78427255D01*
X132717438Y-78427255D02*
X132669819Y-78379636D01*
X132669819Y-78379636D02*
X132765057Y-78379636D01*
X133669819Y-78998683D02*
X133622200Y-78903445D01*
X133622200Y-78903445D02*
X133526961Y-78855826D01*
X133526961Y-78855826D02*
X132669819Y-78855826D01*
X133622200Y-79760588D02*
X133669819Y-79665350D01*
X133669819Y-79665350D02*
X133669819Y-79474874D01*
X133669819Y-79474874D02*
X133622200Y-79379636D01*
X133622200Y-79379636D02*
X133526961Y-79332017D01*
X133526961Y-79332017D02*
X133146009Y-79332017D01*
X133146009Y-79332017D02*
X133050771Y-79379636D01*
X133050771Y-79379636D02*
X133003152Y-79474874D01*
X133003152Y-79474874D02*
X133003152Y-79665350D01*
X133003152Y-79665350D02*
X133050771Y-79760588D01*
X133050771Y-79760588D02*
X133146009Y-79808207D01*
X133146009Y-79808207D02*
X133241247Y-79808207D01*
X133241247Y-79808207D02*
X133336485Y-79332017D01*
X133622200Y-80189160D02*
X133669819Y-80284398D01*
X133669819Y-80284398D02*
X133669819Y-80474874D01*
X133669819Y-80474874D02*
X133622200Y-80570112D01*
X133622200Y-80570112D02*
X133526961Y-80617731D01*
X133526961Y-80617731D02*
X133479342Y-80617731D01*
X133479342Y-80617731D02*
X133384104Y-80570112D01*
X133384104Y-80570112D02*
X133336485Y-80474874D01*
X133336485Y-80474874D02*
X133336485Y-80332017D01*
X133336485Y-80332017D02*
X133288866Y-80236779D01*
X133288866Y-80236779D02*
X133193628Y-80189160D01*
X133193628Y-80189160D02*
X133146009Y-80189160D01*
X133146009Y-80189160D02*
X133050771Y-80236779D01*
X133050771Y-80236779D02*
X133003152Y-80332017D01*
X133003152Y-80332017D02*
X133003152Y-80474874D01*
X133003152Y-80474874D02*
X133050771Y-80570112D01*
D12*
X98058093Y-38268357D02*
X97358093Y-38268357D01*
X97358093Y-38268357D02*
X97358093Y-38435024D01*
X97358093Y-38435024D02*
X97391426Y-38535024D01*
X97391426Y-38535024D02*
X97458093Y-38601691D01*
X97458093Y-38601691D02*
X97524760Y-38635024D01*
X97524760Y-38635024D02*
X97658093Y-38668357D01*
X97658093Y-38668357D02*
X97758093Y-38668357D01*
X97758093Y-38668357D02*
X97891426Y-38635024D01*
X97891426Y-38635024D02*
X97958093Y-38601691D01*
X97958093Y-38601691D02*
X98024760Y-38535024D01*
X98024760Y-38535024D02*
X98058093Y-38435024D01*
X98058093Y-38435024D02*
X98058093Y-38268357D01*
X98024760Y-39235024D02*
X98058093Y-39168357D01*
X98058093Y-39168357D02*
X98058093Y-39035024D01*
X98058093Y-39035024D02*
X98024760Y-38968357D01*
X98024760Y-38968357D02*
X97958093Y-38935024D01*
X97958093Y-38935024D02*
X97691426Y-38935024D01*
X97691426Y-38935024D02*
X97624760Y-38968357D01*
X97624760Y-38968357D02*
X97591426Y-39035024D01*
X97591426Y-39035024D02*
X97591426Y-39168357D01*
X97591426Y-39168357D02*
X97624760Y-39235024D01*
X97624760Y-39235024D02*
X97691426Y-39268357D01*
X97691426Y-39268357D02*
X97758093Y-39268357D01*
X97758093Y-39268357D02*
X97824760Y-38935024D01*
X97591426Y-39568357D02*
X98291426Y-39568357D01*
X97624760Y-39568357D02*
X97591426Y-39635024D01*
X97591426Y-39635024D02*
X97591426Y-39768357D01*
X97591426Y-39768357D02*
X97624760Y-39835024D01*
X97624760Y-39835024D02*
X97658093Y-39868357D01*
X97658093Y-39868357D02*
X97724760Y-39901691D01*
X97724760Y-39901691D02*
X97924760Y-39901691D01*
X97924760Y-39901691D02*
X97991426Y-39868357D01*
X97991426Y-39868357D02*
X98024760Y-39835024D01*
X98024760Y-39835024D02*
X98058093Y-39768357D01*
X98058093Y-39768357D02*
X98058093Y-39635024D01*
X98058093Y-39635024D02*
X98024760Y-39568357D01*
X98058093Y-40501690D02*
X97691426Y-40501690D01*
X97691426Y-40501690D02*
X97624760Y-40468357D01*
X97624760Y-40468357D02*
X97591426Y-40401690D01*
X97591426Y-40401690D02*
X97591426Y-40268357D01*
X97591426Y-40268357D02*
X97624760Y-40201690D01*
X98024760Y-40501690D02*
X98058093Y-40435024D01*
X98058093Y-40435024D02*
X98058093Y-40268357D01*
X98058093Y-40268357D02*
X98024760Y-40201690D01*
X98024760Y-40201690D02*
X97958093Y-40168357D01*
X97958093Y-40168357D02*
X97891426Y-40168357D01*
X97891426Y-40168357D02*
X97824760Y-40201690D01*
X97824760Y-40201690D02*
X97791426Y-40268357D01*
X97791426Y-40268357D02*
X97791426Y-40435024D01*
X97791426Y-40435024D02*
X97758093Y-40501690D01*
X98058093Y-40835023D02*
X97591426Y-40835023D01*
X97724760Y-40835023D02*
X97658093Y-40868357D01*
X97658093Y-40868357D02*
X97624760Y-40901690D01*
X97624760Y-40901690D02*
X97591426Y-40968357D01*
X97591426Y-40968357D02*
X97591426Y-41035023D01*
X97591426Y-41168356D02*
X97591426Y-41435023D01*
X97358093Y-41268356D02*
X97958093Y-41268356D01*
X97958093Y-41268356D02*
X98024760Y-41301690D01*
X98024760Y-41301690D02*
X98058093Y-41368356D01*
X98058093Y-41368356D02*
X98058093Y-41435023D01*
X98058093Y-41668356D02*
X97591426Y-41668356D01*
X97658093Y-41668356D02*
X97624760Y-41701690D01*
X97624760Y-41701690D02*
X97591426Y-41768356D01*
X97591426Y-41768356D02*
X97591426Y-41868356D01*
X97591426Y-41868356D02*
X97624760Y-41935023D01*
X97624760Y-41935023D02*
X97691426Y-41968356D01*
X97691426Y-41968356D02*
X98058093Y-41968356D01*
X97691426Y-41968356D02*
X97624760Y-42001690D01*
X97624760Y-42001690D02*
X97591426Y-42068356D01*
X97591426Y-42068356D02*
X97591426Y-42168356D01*
X97591426Y-42168356D02*
X97624760Y-42235023D01*
X97624760Y-42235023D02*
X97691426Y-42268356D01*
X97691426Y-42268356D02*
X98058093Y-42268356D01*
X98024760Y-42868356D02*
X98058093Y-42801689D01*
X98058093Y-42801689D02*
X98058093Y-42668356D01*
X98058093Y-42668356D02*
X98024760Y-42601689D01*
X98024760Y-42601689D02*
X97958093Y-42568356D01*
X97958093Y-42568356D02*
X97691426Y-42568356D01*
X97691426Y-42568356D02*
X97624760Y-42601689D01*
X97624760Y-42601689D02*
X97591426Y-42668356D01*
X97591426Y-42668356D02*
X97591426Y-42801689D01*
X97591426Y-42801689D02*
X97624760Y-42868356D01*
X97624760Y-42868356D02*
X97691426Y-42901689D01*
X97691426Y-42901689D02*
X97758093Y-42901689D01*
X97758093Y-42901689D02*
X97824760Y-42568356D01*
X97591426Y-43201689D02*
X98058093Y-43201689D01*
X97658093Y-43201689D02*
X97624760Y-43235023D01*
X97624760Y-43235023D02*
X97591426Y-43301689D01*
X97591426Y-43301689D02*
X97591426Y-43401689D01*
X97591426Y-43401689D02*
X97624760Y-43468356D01*
X97624760Y-43468356D02*
X97691426Y-43501689D01*
X97691426Y-43501689D02*
X98058093Y-43501689D01*
X97591426Y-43735022D02*
X97591426Y-44001689D01*
X97358093Y-43835022D02*
X97958093Y-43835022D01*
X97958093Y-43835022D02*
X98024760Y-43868356D01*
X98024760Y-43868356D02*
X98058093Y-43935022D01*
X98058093Y-43935022D02*
X98058093Y-44001689D01*
X98058093Y-44868355D02*
X98024760Y-44801689D01*
X98024760Y-44801689D02*
X97991426Y-44768355D01*
X97991426Y-44768355D02*
X97924760Y-44735022D01*
X97924760Y-44735022D02*
X97724760Y-44735022D01*
X97724760Y-44735022D02*
X97658093Y-44768355D01*
X97658093Y-44768355D02*
X97624760Y-44801689D01*
X97624760Y-44801689D02*
X97591426Y-44868355D01*
X97591426Y-44868355D02*
X97591426Y-44968355D01*
X97591426Y-44968355D02*
X97624760Y-45035022D01*
X97624760Y-45035022D02*
X97658093Y-45068355D01*
X97658093Y-45068355D02*
X97724760Y-45101689D01*
X97724760Y-45101689D02*
X97924760Y-45101689D01*
X97924760Y-45101689D02*
X97991426Y-45068355D01*
X97991426Y-45068355D02*
X98024760Y-45035022D01*
X98024760Y-45035022D02*
X98058093Y-44968355D01*
X98058093Y-44968355D02*
X98058093Y-44868355D01*
X97591426Y-45301688D02*
X97591426Y-45568355D01*
X98058093Y-45401688D02*
X97458093Y-45401688D01*
X97458093Y-45401688D02*
X97391426Y-45435022D01*
X97391426Y-45435022D02*
X97358093Y-45501688D01*
X97358093Y-45501688D02*
X97358093Y-45568355D01*
X97691426Y-46335021D02*
X97691426Y-46568355D01*
X98058093Y-46668355D02*
X98058093Y-46335021D01*
X98058093Y-46335021D02*
X97358093Y-46335021D01*
X97358093Y-46335021D02*
X97358093Y-46668355D01*
X97591426Y-46968354D02*
X98058093Y-46968354D01*
X97658093Y-46968354D02*
X97624760Y-47001688D01*
X97624760Y-47001688D02*
X97591426Y-47068354D01*
X97591426Y-47068354D02*
X97591426Y-47168354D01*
X97591426Y-47168354D02*
X97624760Y-47235021D01*
X97624760Y-47235021D02*
X97691426Y-47268354D01*
X97691426Y-47268354D02*
X98058093Y-47268354D01*
X97591426Y-47901687D02*
X98158093Y-47901687D01*
X98158093Y-47901687D02*
X98224760Y-47868354D01*
X98224760Y-47868354D02*
X98258093Y-47835021D01*
X98258093Y-47835021D02*
X98291426Y-47768354D01*
X98291426Y-47768354D02*
X98291426Y-47668354D01*
X98291426Y-47668354D02*
X98258093Y-47601687D01*
X98024760Y-47901687D02*
X98058093Y-47835021D01*
X98058093Y-47835021D02*
X98058093Y-47701687D01*
X98058093Y-47701687D02*
X98024760Y-47635021D01*
X98024760Y-47635021D02*
X97991426Y-47601687D01*
X97991426Y-47601687D02*
X97924760Y-47568354D01*
X97924760Y-47568354D02*
X97724760Y-47568354D01*
X97724760Y-47568354D02*
X97658093Y-47601687D01*
X97658093Y-47601687D02*
X97624760Y-47635021D01*
X97624760Y-47635021D02*
X97591426Y-47701687D01*
X97591426Y-47701687D02*
X97591426Y-47835021D01*
X97591426Y-47835021D02*
X97624760Y-47901687D01*
X98058093Y-48235020D02*
X97591426Y-48235020D01*
X97358093Y-48235020D02*
X97391426Y-48201687D01*
X97391426Y-48201687D02*
X97424760Y-48235020D01*
X97424760Y-48235020D02*
X97391426Y-48268354D01*
X97391426Y-48268354D02*
X97358093Y-48235020D01*
X97358093Y-48235020D02*
X97424760Y-48235020D01*
X97591426Y-48568353D02*
X98058093Y-48568353D01*
X97658093Y-48568353D02*
X97624760Y-48601687D01*
X97624760Y-48601687D02*
X97591426Y-48668353D01*
X97591426Y-48668353D02*
X97591426Y-48768353D01*
X97591426Y-48768353D02*
X97624760Y-48835020D01*
X97624760Y-48835020D02*
X97691426Y-48868353D01*
X97691426Y-48868353D02*
X98058093Y-48868353D01*
X98024760Y-49468353D02*
X98058093Y-49401686D01*
X98058093Y-49401686D02*
X98058093Y-49268353D01*
X98058093Y-49268353D02*
X98024760Y-49201686D01*
X98024760Y-49201686D02*
X97958093Y-49168353D01*
X97958093Y-49168353D02*
X97691426Y-49168353D01*
X97691426Y-49168353D02*
X97624760Y-49201686D01*
X97624760Y-49201686D02*
X97591426Y-49268353D01*
X97591426Y-49268353D02*
X97591426Y-49401686D01*
X97591426Y-49401686D02*
X97624760Y-49468353D01*
X97624760Y-49468353D02*
X97691426Y-49501686D01*
X97691426Y-49501686D02*
X97758093Y-49501686D01*
X97758093Y-49501686D02*
X97824760Y-49168353D01*
X98024760Y-50068353D02*
X98058093Y-50001686D01*
X98058093Y-50001686D02*
X98058093Y-49868353D01*
X98058093Y-49868353D02*
X98024760Y-49801686D01*
X98024760Y-49801686D02*
X97958093Y-49768353D01*
X97958093Y-49768353D02*
X97691426Y-49768353D01*
X97691426Y-49768353D02*
X97624760Y-49801686D01*
X97624760Y-49801686D02*
X97591426Y-49868353D01*
X97591426Y-49868353D02*
X97591426Y-50001686D01*
X97591426Y-50001686D02*
X97624760Y-50068353D01*
X97624760Y-50068353D02*
X97691426Y-50101686D01*
X97691426Y-50101686D02*
X97758093Y-50101686D01*
X97758093Y-50101686D02*
X97824760Y-49768353D01*
X98058093Y-50401686D02*
X97591426Y-50401686D01*
X97724760Y-50401686D02*
X97658093Y-50435020D01*
X97658093Y-50435020D02*
X97624760Y-50468353D01*
X97624760Y-50468353D02*
X97591426Y-50535020D01*
X97591426Y-50535020D02*
X97591426Y-50601686D01*
X98058093Y-50835019D02*
X97591426Y-50835019D01*
X97358093Y-50835019D02*
X97391426Y-50801686D01*
X97391426Y-50801686D02*
X97424760Y-50835019D01*
X97424760Y-50835019D02*
X97391426Y-50868353D01*
X97391426Y-50868353D02*
X97358093Y-50835019D01*
X97358093Y-50835019D02*
X97424760Y-50835019D01*
X97591426Y-51168352D02*
X98058093Y-51168352D01*
X97658093Y-51168352D02*
X97624760Y-51201686D01*
X97624760Y-51201686D02*
X97591426Y-51268352D01*
X97591426Y-51268352D02*
X97591426Y-51368352D01*
X97591426Y-51368352D02*
X97624760Y-51435019D01*
X97624760Y-51435019D02*
X97691426Y-51468352D01*
X97691426Y-51468352D02*
X98058093Y-51468352D01*
X97591426Y-52101685D02*
X98158093Y-52101685D01*
X98158093Y-52101685D02*
X98224760Y-52068352D01*
X98224760Y-52068352D02*
X98258093Y-52035019D01*
X98258093Y-52035019D02*
X98291426Y-51968352D01*
X98291426Y-51968352D02*
X98291426Y-51868352D01*
X98291426Y-51868352D02*
X98258093Y-51801685D01*
X98024760Y-52101685D02*
X98058093Y-52035019D01*
X98058093Y-52035019D02*
X98058093Y-51901685D01*
X98058093Y-51901685D02*
X98024760Y-51835019D01*
X98024760Y-51835019D02*
X97991426Y-51801685D01*
X97991426Y-51801685D02*
X97924760Y-51768352D01*
X97924760Y-51768352D02*
X97724760Y-51768352D01*
X97724760Y-51768352D02*
X97658093Y-51801685D01*
X97658093Y-51801685D02*
X97624760Y-51835019D01*
X97624760Y-51835019D02*
X97591426Y-51901685D01*
X97591426Y-51901685D02*
X97591426Y-52035019D01*
X97591426Y-52035019D02*
X97624760Y-52101685D01*
X97991426Y-53368351D02*
X98024760Y-53335018D01*
X98024760Y-53335018D02*
X98058093Y-53235018D01*
X98058093Y-53235018D02*
X98058093Y-53168351D01*
X98058093Y-53168351D02*
X98024760Y-53068351D01*
X98024760Y-53068351D02*
X97958093Y-53001685D01*
X97958093Y-53001685D02*
X97891426Y-52968351D01*
X97891426Y-52968351D02*
X97758093Y-52935018D01*
X97758093Y-52935018D02*
X97658093Y-52935018D01*
X97658093Y-52935018D02*
X97524760Y-52968351D01*
X97524760Y-52968351D02*
X97458093Y-53001685D01*
X97458093Y-53001685D02*
X97391426Y-53068351D01*
X97391426Y-53068351D02*
X97358093Y-53168351D01*
X97358093Y-53168351D02*
X97358093Y-53235018D01*
X97358093Y-53235018D02*
X97391426Y-53335018D01*
X97391426Y-53335018D02*
X97424760Y-53368351D01*
X97591426Y-53601685D02*
X98058093Y-53768351D01*
X97591426Y-53935018D02*
X98058093Y-53768351D01*
X98058093Y-53768351D02*
X98224760Y-53701685D01*
X98224760Y-53701685D02*
X98258093Y-53668351D01*
X98258093Y-53668351D02*
X98291426Y-53601685D01*
X98058093Y-54201684D02*
X97358093Y-54201684D01*
X97624760Y-54201684D02*
X97591426Y-54268351D01*
X97591426Y-54268351D02*
X97591426Y-54401684D01*
X97591426Y-54401684D02*
X97624760Y-54468351D01*
X97624760Y-54468351D02*
X97658093Y-54501684D01*
X97658093Y-54501684D02*
X97724760Y-54535018D01*
X97724760Y-54535018D02*
X97924760Y-54535018D01*
X97924760Y-54535018D02*
X97991426Y-54501684D01*
X97991426Y-54501684D02*
X98024760Y-54468351D01*
X98024760Y-54468351D02*
X98058093Y-54401684D01*
X98058093Y-54401684D02*
X98058093Y-54268351D01*
X98058093Y-54268351D02*
X98024760Y-54201684D01*
X98024760Y-55101684D02*
X98058093Y-55035017D01*
X98058093Y-55035017D02*
X98058093Y-54901684D01*
X98058093Y-54901684D02*
X98024760Y-54835017D01*
X98024760Y-54835017D02*
X97958093Y-54801684D01*
X97958093Y-54801684D02*
X97691426Y-54801684D01*
X97691426Y-54801684D02*
X97624760Y-54835017D01*
X97624760Y-54835017D02*
X97591426Y-54901684D01*
X97591426Y-54901684D02*
X97591426Y-55035017D01*
X97591426Y-55035017D02*
X97624760Y-55101684D01*
X97624760Y-55101684D02*
X97691426Y-55135017D01*
X97691426Y-55135017D02*
X97758093Y-55135017D01*
X97758093Y-55135017D02*
X97824760Y-54801684D01*
X98058093Y-55435017D02*
X97591426Y-55435017D01*
X97724760Y-55435017D02*
X97658093Y-55468351D01*
X97658093Y-55468351D02*
X97624760Y-55501684D01*
X97624760Y-55501684D02*
X97591426Y-55568351D01*
X97591426Y-55568351D02*
X97591426Y-55635017D01*
X97591426Y-55868350D02*
X98058093Y-55868350D01*
X97658093Y-55868350D02*
X97624760Y-55901684D01*
X97624760Y-55901684D02*
X97591426Y-55968350D01*
X97591426Y-55968350D02*
X97591426Y-56068350D01*
X97591426Y-56068350D02*
X97624760Y-56135017D01*
X97624760Y-56135017D02*
X97691426Y-56168350D01*
X97691426Y-56168350D02*
X98058093Y-56168350D01*
X98024760Y-56768350D02*
X98058093Y-56701683D01*
X98058093Y-56701683D02*
X98058093Y-56568350D01*
X98058093Y-56568350D02*
X98024760Y-56501683D01*
X98024760Y-56501683D02*
X97958093Y-56468350D01*
X97958093Y-56468350D02*
X97691426Y-56468350D01*
X97691426Y-56468350D02*
X97624760Y-56501683D01*
X97624760Y-56501683D02*
X97591426Y-56568350D01*
X97591426Y-56568350D02*
X97591426Y-56701683D01*
X97591426Y-56701683D02*
X97624760Y-56768350D01*
X97624760Y-56768350D02*
X97691426Y-56801683D01*
X97691426Y-56801683D02*
X97758093Y-56801683D01*
X97758093Y-56801683D02*
X97824760Y-56468350D01*
X97591426Y-57001683D02*
X97591426Y-57268350D01*
X97358093Y-57101683D02*
X97958093Y-57101683D01*
X97958093Y-57101683D02*
X98024760Y-57135017D01*
X98024760Y-57135017D02*
X98058093Y-57201683D01*
X98058093Y-57201683D02*
X98058093Y-57268350D01*
X98058093Y-57501683D02*
X97591426Y-57501683D01*
X97358093Y-57501683D02*
X97391426Y-57468350D01*
X97391426Y-57468350D02*
X97424760Y-57501683D01*
X97424760Y-57501683D02*
X97391426Y-57535017D01*
X97391426Y-57535017D02*
X97358093Y-57501683D01*
X97358093Y-57501683D02*
X97424760Y-57501683D01*
X98024760Y-58135016D02*
X98058093Y-58068350D01*
X98058093Y-58068350D02*
X98058093Y-57935016D01*
X98058093Y-57935016D02*
X98024760Y-57868350D01*
X98024760Y-57868350D02*
X97991426Y-57835016D01*
X97991426Y-57835016D02*
X97924760Y-57801683D01*
X97924760Y-57801683D02*
X97724760Y-57801683D01*
X97724760Y-57801683D02*
X97658093Y-57835016D01*
X97658093Y-57835016D02*
X97624760Y-57868350D01*
X97624760Y-57868350D02*
X97591426Y-57935016D01*
X97591426Y-57935016D02*
X97591426Y-58068350D01*
X97591426Y-58068350D02*
X97624760Y-58135016D01*
X98024760Y-58401683D02*
X98058093Y-58468350D01*
X98058093Y-58468350D02*
X98058093Y-58601683D01*
X98058093Y-58601683D02*
X98024760Y-58668350D01*
X98024760Y-58668350D02*
X97958093Y-58701683D01*
X97958093Y-58701683D02*
X97924760Y-58701683D01*
X97924760Y-58701683D02*
X97858093Y-58668350D01*
X97858093Y-58668350D02*
X97824760Y-58601683D01*
X97824760Y-58601683D02*
X97824760Y-58501683D01*
X97824760Y-58501683D02*
X97791426Y-58435016D01*
X97791426Y-58435016D02*
X97724760Y-58401683D01*
X97724760Y-58401683D02*
X97691426Y-58401683D01*
X97691426Y-58401683D02*
X97624760Y-58435016D01*
X97624760Y-58435016D02*
X97591426Y-58501683D01*
X97591426Y-58501683D02*
X97591426Y-58601683D01*
X97591426Y-58601683D02*
X97624760Y-58668350D01*
D10*
X114769819Y-36036779D02*
X113769819Y-36036779D01*
X113769819Y-36036779D02*
X113769819Y-36274874D01*
X113769819Y-36274874D02*
X113817438Y-36417731D01*
X113817438Y-36417731D02*
X113912676Y-36512969D01*
X113912676Y-36512969D02*
X114007914Y-36560588D01*
X114007914Y-36560588D02*
X114198390Y-36608207D01*
X114198390Y-36608207D02*
X114341247Y-36608207D01*
X114341247Y-36608207D02*
X114531723Y-36560588D01*
X114531723Y-36560588D02*
X114626961Y-36512969D01*
X114626961Y-36512969D02*
X114722200Y-36417731D01*
X114722200Y-36417731D02*
X114769819Y-36274874D01*
X114769819Y-36274874D02*
X114769819Y-36036779D01*
X114388866Y-37036779D02*
X114388866Y-37798684D01*
X101297618Y-81752438D02*
X101392856Y-81704819D01*
X101392856Y-81704819D02*
X101535713Y-81704819D01*
X101535713Y-81704819D02*
X101678570Y-81752438D01*
X101678570Y-81752438D02*
X101773808Y-81847676D01*
X101773808Y-81847676D02*
X101821427Y-81942914D01*
X101821427Y-81942914D02*
X101869046Y-82133390D01*
X101869046Y-82133390D02*
X101869046Y-82276247D01*
X101869046Y-82276247D02*
X101821427Y-82466723D01*
X101821427Y-82466723D02*
X101773808Y-82561961D01*
X101773808Y-82561961D02*
X101678570Y-82657200D01*
X101678570Y-82657200D02*
X101535713Y-82704819D01*
X101535713Y-82704819D02*
X101440475Y-82704819D01*
X101440475Y-82704819D02*
X101297618Y-82657200D01*
X101297618Y-82657200D02*
X101249999Y-82609580D01*
X101249999Y-82609580D02*
X101249999Y-82276247D01*
X101249999Y-82276247D02*
X101440475Y-82276247D01*
X100821427Y-82704819D02*
X100821427Y-81704819D01*
X100821427Y-81704819D02*
X100440475Y-81704819D01*
X100440475Y-81704819D02*
X100345237Y-81752438D01*
X100345237Y-81752438D02*
X100297618Y-81800057D01*
X100297618Y-81800057D02*
X100249999Y-81895295D01*
X100249999Y-81895295D02*
X100249999Y-82038152D01*
X100249999Y-82038152D02*
X100297618Y-82133390D01*
X100297618Y-82133390D02*
X100345237Y-82181009D01*
X100345237Y-82181009D02*
X100440475Y-82228628D01*
X100440475Y-82228628D02*
X100821427Y-82228628D01*
X99821427Y-82704819D02*
X99821427Y-81704819D01*
X99154761Y-81704819D02*
X98964285Y-81704819D01*
X98964285Y-81704819D02*
X98869047Y-81752438D01*
X98869047Y-81752438D02*
X98773809Y-81847676D01*
X98773809Y-81847676D02*
X98726190Y-82038152D01*
X98726190Y-82038152D02*
X98726190Y-82371485D01*
X98726190Y-82371485D02*
X98773809Y-82561961D01*
X98773809Y-82561961D02*
X98869047Y-82657200D01*
X98869047Y-82657200D02*
X98964285Y-82704819D01*
X98964285Y-82704819D02*
X99154761Y-82704819D01*
X99154761Y-82704819D02*
X99249999Y-82657200D01*
X99249999Y-82657200D02*
X99345237Y-82561961D01*
X99345237Y-82561961D02*
X99392856Y-82371485D01*
X99392856Y-82371485D02*
X99392856Y-82038152D01*
X99392856Y-82038152D02*
X99345237Y-81847676D01*
X99345237Y-81847676D02*
X99249999Y-81752438D01*
X99249999Y-81752438D02*
X99154761Y-81704819D01*
X98535714Y-82800057D02*
X97773809Y-82800057D01*
X97535713Y-82704819D02*
X97535713Y-81704819D01*
X97535713Y-81704819D02*
X97154761Y-81704819D01*
X97154761Y-81704819D02*
X97059523Y-81752438D01*
X97059523Y-81752438D02*
X97011904Y-81800057D01*
X97011904Y-81800057D02*
X96964285Y-81895295D01*
X96964285Y-81895295D02*
X96964285Y-82038152D01*
X96964285Y-82038152D02*
X97011904Y-82133390D01*
X97011904Y-82133390D02*
X97059523Y-82181009D01*
X97059523Y-82181009D02*
X97154761Y-82228628D01*
X97154761Y-82228628D02*
X97535713Y-82228628D01*
X96535713Y-82609580D02*
X96488094Y-82657200D01*
X96488094Y-82657200D02*
X96535713Y-82704819D01*
X96535713Y-82704819D02*
X96583332Y-82657200D01*
X96583332Y-82657200D02*
X96535713Y-82609580D01*
X96535713Y-82609580D02*
X96535713Y-82704819D01*
X95869047Y-81704819D02*
X95773809Y-81704819D01*
X95773809Y-81704819D02*
X95678571Y-81752438D01*
X95678571Y-81752438D02*
X95630952Y-81800057D01*
X95630952Y-81800057D02*
X95583333Y-81895295D01*
X95583333Y-81895295D02*
X95535714Y-82085771D01*
X95535714Y-82085771D02*
X95535714Y-82323866D01*
X95535714Y-82323866D02*
X95583333Y-82514342D01*
X95583333Y-82514342D02*
X95630952Y-82609580D01*
X95630952Y-82609580D02*
X95678571Y-82657200D01*
X95678571Y-82657200D02*
X95773809Y-82704819D01*
X95773809Y-82704819D02*
X95869047Y-82704819D01*
X95869047Y-82704819D02*
X95964285Y-82657200D01*
X95964285Y-82657200D02*
X96011904Y-82609580D01*
X96011904Y-82609580D02*
X96059523Y-82514342D01*
X96059523Y-82514342D02*
X96107142Y-82323866D01*
X96107142Y-82323866D02*
X96107142Y-82085771D01*
X96107142Y-82085771D02*
X96059523Y-81895295D01*
X96059523Y-81895295D02*
X96011904Y-81800057D01*
X96011904Y-81800057D02*
X95964285Y-81752438D01*
X95964285Y-81752438D02*
X95869047Y-81704819D01*
X95154761Y-81800057D02*
X95107142Y-81752438D01*
X95107142Y-81752438D02*
X95011904Y-81704819D01*
X95011904Y-81704819D02*
X94773809Y-81704819D01*
X94773809Y-81704819D02*
X94678571Y-81752438D01*
X94678571Y-81752438D02*
X94630952Y-81800057D01*
X94630952Y-81800057D02*
X94583333Y-81895295D01*
X94583333Y-81895295D02*
X94583333Y-81990533D01*
X94583333Y-81990533D02*
X94630952Y-82133390D01*
X94630952Y-82133390D02*
X95202380Y-82704819D01*
X95202380Y-82704819D02*
X94583333Y-82704819D01*
X93678571Y-81704819D02*
X94154761Y-81704819D01*
X94154761Y-81704819D02*
X94202380Y-82181009D01*
X94202380Y-82181009D02*
X94154761Y-82133390D01*
X94154761Y-82133390D02*
X94059523Y-82085771D01*
X94059523Y-82085771D02*
X93821428Y-82085771D01*
X93821428Y-82085771D02*
X93726190Y-82133390D01*
X93726190Y-82133390D02*
X93678571Y-82181009D01*
X93678571Y-82181009D02*
X93630952Y-82276247D01*
X93630952Y-82276247D02*
X93630952Y-82514342D01*
X93630952Y-82514342D02*
X93678571Y-82609580D01*
X93678571Y-82609580D02*
X93726190Y-82657200D01*
X93726190Y-82657200D02*
X93821428Y-82704819D01*
X93821428Y-82704819D02*
X94059523Y-82704819D01*
X94059523Y-82704819D02*
X94154761Y-82657200D01*
X94154761Y-82657200D02*
X94202380Y-82609580D01*
X107454819Y-46471428D02*
X108264342Y-46471428D01*
X108264342Y-46471428D02*
X108359580Y-46519047D01*
X108359580Y-46519047D02*
X108407200Y-46566666D01*
X108407200Y-46566666D02*
X108454819Y-46661904D01*
X108454819Y-46661904D02*
X108454819Y-46852380D01*
X108454819Y-46852380D02*
X108407200Y-46947618D01*
X108407200Y-46947618D02*
X108359580Y-46995237D01*
X108359580Y-46995237D02*
X108264342Y-47042856D01*
X108264342Y-47042856D02*
X107454819Y-47042856D01*
X108169104Y-47471428D02*
X108169104Y-47947618D01*
X108454819Y-47376190D02*
X107454819Y-47709523D01*
X107454819Y-47709523D02*
X108454819Y-48042856D01*
X108454819Y-48947618D02*
X107978628Y-48614285D01*
X108454819Y-48376190D02*
X107454819Y-48376190D01*
X107454819Y-48376190D02*
X107454819Y-48757142D01*
X107454819Y-48757142D02*
X107502438Y-48852380D01*
X107502438Y-48852380D02*
X107550057Y-48899999D01*
X107550057Y-48899999D02*
X107645295Y-48947618D01*
X107645295Y-48947618D02*
X107788152Y-48947618D01*
X107788152Y-48947618D02*
X107883390Y-48899999D01*
X107883390Y-48899999D02*
X107931009Y-48852380D01*
X107931009Y-48852380D02*
X107978628Y-48757142D01*
X107978628Y-48757142D02*
X107978628Y-48376190D01*
X107454819Y-49233333D02*
X107454819Y-49804761D01*
X108454819Y-49519047D02*
X107454819Y-49519047D01*
X108550057Y-49900000D02*
X108550057Y-50661904D01*
X108454819Y-51471428D02*
X107978628Y-51138095D01*
X108454819Y-50900000D02*
X107454819Y-50900000D01*
X107454819Y-50900000D02*
X107454819Y-51280952D01*
X107454819Y-51280952D02*
X107502438Y-51376190D01*
X107502438Y-51376190D02*
X107550057Y-51423809D01*
X107550057Y-51423809D02*
X107645295Y-51471428D01*
X107645295Y-51471428D02*
X107788152Y-51471428D01*
X107788152Y-51471428D02*
X107883390Y-51423809D01*
X107883390Y-51423809D02*
X107931009Y-51376190D01*
X107931009Y-51376190D02*
X107978628Y-51280952D01*
X107978628Y-51280952D02*
X107978628Y-50900000D01*
X107454819Y-51804762D02*
X108454819Y-52471428D01*
X107454819Y-52471428D02*
X108454819Y-51804762D01*
X108454819Y-53376190D02*
X108454819Y-52804762D01*
X108454819Y-53090476D02*
X107454819Y-53090476D01*
X107454819Y-53090476D02*
X107597676Y-52995238D01*
X107597676Y-52995238D02*
X107692914Y-52900000D01*
X107692914Y-52900000D02*
X107740533Y-52804762D01*
D12*
X115534260Y-72566666D02*
X115567593Y-72666666D01*
X115567593Y-72666666D02*
X115567593Y-72833333D01*
X115567593Y-72833333D02*
X115534260Y-72899999D01*
X115534260Y-72899999D02*
X115500926Y-72933333D01*
X115500926Y-72933333D02*
X115434260Y-72966666D01*
X115434260Y-72966666D02*
X115367593Y-72966666D01*
X115367593Y-72966666D02*
X115300926Y-72933333D01*
X115300926Y-72933333D02*
X115267593Y-72899999D01*
X115267593Y-72899999D02*
X115234260Y-72833333D01*
X115234260Y-72833333D02*
X115200926Y-72699999D01*
X115200926Y-72699999D02*
X115167593Y-72633333D01*
X115167593Y-72633333D02*
X115134260Y-72599999D01*
X115134260Y-72599999D02*
X115067593Y-72566666D01*
X115067593Y-72566666D02*
X115000926Y-72566666D01*
X115000926Y-72566666D02*
X114934260Y-72599999D01*
X114934260Y-72599999D02*
X114900926Y-72633333D01*
X114900926Y-72633333D02*
X114867593Y-72699999D01*
X114867593Y-72699999D02*
X114867593Y-72866666D01*
X114867593Y-72866666D02*
X114900926Y-72966666D01*
X115567593Y-73266666D02*
X114867593Y-73266666D01*
X114867593Y-73266666D02*
X114867593Y-73433333D01*
X114867593Y-73433333D02*
X114900926Y-73533333D01*
X114900926Y-73533333D02*
X114967593Y-73600000D01*
X114967593Y-73600000D02*
X115034260Y-73633333D01*
X115034260Y-73633333D02*
X115167593Y-73666666D01*
X115167593Y-73666666D02*
X115267593Y-73666666D01*
X115267593Y-73666666D02*
X115400926Y-73633333D01*
X115400926Y-73633333D02*
X115467593Y-73600000D01*
X115467593Y-73600000D02*
X115534260Y-73533333D01*
X115534260Y-73533333D02*
X115567593Y-73433333D01*
X115567593Y-73433333D02*
X115567593Y-73266666D01*
X115367593Y-73933333D02*
X115367593Y-74266666D01*
X115567593Y-73866666D02*
X114867593Y-74100000D01*
X114867593Y-74100000D02*
X115567593Y-74333333D01*
X115567593Y-74933333D02*
X115567593Y-74533333D01*
X115567593Y-74733333D02*
X114867593Y-74733333D01*
X114867593Y-74733333D02*
X114967593Y-74666666D01*
X114967593Y-74666666D02*
X115034260Y-74600000D01*
X115034260Y-74600000D02*
X115067593Y-74533333D01*
D10*
X114654819Y-67166666D02*
X115369104Y-67166666D01*
X115369104Y-67166666D02*
X115511961Y-67119047D01*
X115511961Y-67119047D02*
X115607200Y-67023809D01*
X115607200Y-67023809D02*
X115654819Y-66880952D01*
X115654819Y-66880952D02*
X115654819Y-66785714D01*
X115654819Y-67642857D02*
X114654819Y-67642857D01*
X114654819Y-67642857D02*
X114654819Y-68023809D01*
X114654819Y-68023809D02*
X114702438Y-68119047D01*
X114702438Y-68119047D02*
X114750057Y-68166666D01*
X114750057Y-68166666D02*
X114845295Y-68214285D01*
X114845295Y-68214285D02*
X114988152Y-68214285D01*
X114988152Y-68214285D02*
X115083390Y-68166666D01*
X115083390Y-68166666D02*
X115131009Y-68119047D01*
X115131009Y-68119047D02*
X115178628Y-68023809D01*
X115178628Y-68023809D02*
X115178628Y-67642857D01*
X115654819Y-69166666D02*
X115654819Y-68595238D01*
X115654819Y-68880952D02*
X114654819Y-68880952D01*
X114654819Y-68880952D02*
X114797676Y-68785714D01*
X114797676Y-68785714D02*
X114892914Y-68690476D01*
X114892914Y-68690476D02*
X114940533Y-68595238D01*
D12*
X115534260Y-69833333D02*
X115567593Y-69933333D01*
X115567593Y-69933333D02*
X115567593Y-70100000D01*
X115567593Y-70100000D02*
X115534260Y-70166666D01*
X115534260Y-70166666D02*
X115500926Y-70200000D01*
X115500926Y-70200000D02*
X115434260Y-70233333D01*
X115434260Y-70233333D02*
X115367593Y-70233333D01*
X115367593Y-70233333D02*
X115300926Y-70200000D01*
X115300926Y-70200000D02*
X115267593Y-70166666D01*
X115267593Y-70166666D02*
X115234260Y-70100000D01*
X115234260Y-70100000D02*
X115200926Y-69966666D01*
X115200926Y-69966666D02*
X115167593Y-69900000D01*
X115167593Y-69900000D02*
X115134260Y-69866666D01*
X115134260Y-69866666D02*
X115067593Y-69833333D01*
X115067593Y-69833333D02*
X115000926Y-69833333D01*
X115000926Y-69833333D02*
X114934260Y-69866666D01*
X114934260Y-69866666D02*
X114900926Y-69900000D01*
X114900926Y-69900000D02*
X114867593Y-69966666D01*
X114867593Y-69966666D02*
X114867593Y-70133333D01*
X114867593Y-70133333D02*
X114900926Y-70233333D01*
X115500926Y-70933333D02*
X115534260Y-70900000D01*
X115534260Y-70900000D02*
X115567593Y-70800000D01*
X115567593Y-70800000D02*
X115567593Y-70733333D01*
X115567593Y-70733333D02*
X115534260Y-70633333D01*
X115534260Y-70633333D02*
X115467593Y-70566667D01*
X115467593Y-70566667D02*
X115400926Y-70533333D01*
X115400926Y-70533333D02*
X115267593Y-70500000D01*
X115267593Y-70500000D02*
X115167593Y-70500000D01*
X115167593Y-70500000D02*
X115034260Y-70533333D01*
X115034260Y-70533333D02*
X114967593Y-70566667D01*
X114967593Y-70566667D02*
X114900926Y-70633333D01*
X114900926Y-70633333D02*
X114867593Y-70733333D01*
X114867593Y-70733333D02*
X114867593Y-70800000D01*
X114867593Y-70800000D02*
X114900926Y-70900000D01*
X114900926Y-70900000D02*
X114934260Y-70933333D01*
X115567593Y-71566667D02*
X115567593Y-71233333D01*
X115567593Y-71233333D02*
X114867593Y-71233333D01*
X115567593Y-72166667D02*
X115567593Y-71766667D01*
X115567593Y-71966667D02*
X114867593Y-71966667D01*
X114867593Y-71966667D02*
X114967593Y-71900000D01*
X114967593Y-71900000D02*
X115034260Y-71833334D01*
X115034260Y-71833334D02*
X115067593Y-71766667D01*
D10*
X104252438Y-65702381D02*
X104204819Y-65607143D01*
X104204819Y-65607143D02*
X104204819Y-65464286D01*
X104204819Y-65464286D02*
X104252438Y-65321429D01*
X104252438Y-65321429D02*
X104347676Y-65226191D01*
X104347676Y-65226191D02*
X104442914Y-65178572D01*
X104442914Y-65178572D02*
X104633390Y-65130953D01*
X104633390Y-65130953D02*
X104776247Y-65130953D01*
X104776247Y-65130953D02*
X104966723Y-65178572D01*
X104966723Y-65178572D02*
X105061961Y-65226191D01*
X105061961Y-65226191D02*
X105157200Y-65321429D01*
X105157200Y-65321429D02*
X105204819Y-65464286D01*
X105204819Y-65464286D02*
X105204819Y-65559524D01*
X105204819Y-65559524D02*
X105157200Y-65702381D01*
X105157200Y-65702381D02*
X105109580Y-65750000D01*
X105109580Y-65750000D02*
X104776247Y-65750000D01*
X104776247Y-65750000D02*
X104776247Y-65559524D01*
X105204819Y-66178572D02*
X104204819Y-66178572D01*
X104204819Y-66178572D02*
X104204819Y-66559524D01*
X104204819Y-66559524D02*
X104252438Y-66654762D01*
X104252438Y-66654762D02*
X104300057Y-66702381D01*
X104300057Y-66702381D02*
X104395295Y-66750000D01*
X104395295Y-66750000D02*
X104538152Y-66750000D01*
X104538152Y-66750000D02*
X104633390Y-66702381D01*
X104633390Y-66702381D02*
X104681009Y-66654762D01*
X104681009Y-66654762D02*
X104728628Y-66559524D01*
X104728628Y-66559524D02*
X104728628Y-66178572D01*
X105204819Y-67178572D02*
X104204819Y-67178572D01*
X104204819Y-67845238D02*
X104204819Y-68035714D01*
X104204819Y-68035714D02*
X104252438Y-68130952D01*
X104252438Y-68130952D02*
X104347676Y-68226190D01*
X104347676Y-68226190D02*
X104538152Y-68273809D01*
X104538152Y-68273809D02*
X104871485Y-68273809D01*
X104871485Y-68273809D02*
X105061961Y-68226190D01*
X105061961Y-68226190D02*
X105157200Y-68130952D01*
X105157200Y-68130952D02*
X105204819Y-68035714D01*
X105204819Y-68035714D02*
X105204819Y-67845238D01*
X105204819Y-67845238D02*
X105157200Y-67750000D01*
X105157200Y-67750000D02*
X105061961Y-67654762D01*
X105061961Y-67654762D02*
X104871485Y-67607143D01*
X104871485Y-67607143D02*
X104538152Y-67607143D01*
X104538152Y-67607143D02*
X104347676Y-67654762D01*
X104347676Y-67654762D02*
X104252438Y-67750000D01*
X104252438Y-67750000D02*
X104204819Y-67845238D01*
X105300057Y-68464286D02*
X105300057Y-69226190D01*
X105204819Y-69464286D02*
X104204819Y-69464286D01*
X104204819Y-69464286D02*
X104204819Y-69845238D01*
X104204819Y-69845238D02*
X104252438Y-69940476D01*
X104252438Y-69940476D02*
X104300057Y-69988095D01*
X104300057Y-69988095D02*
X104395295Y-70035714D01*
X104395295Y-70035714D02*
X104538152Y-70035714D01*
X104538152Y-70035714D02*
X104633390Y-69988095D01*
X104633390Y-69988095D02*
X104681009Y-69940476D01*
X104681009Y-69940476D02*
X104728628Y-69845238D01*
X104728628Y-69845238D02*
X104728628Y-69464286D01*
X105109580Y-70464286D02*
X105157200Y-70511905D01*
X105157200Y-70511905D02*
X105204819Y-70464286D01*
X105204819Y-70464286D02*
X105157200Y-70416667D01*
X105157200Y-70416667D02*
X105109580Y-70464286D01*
X105109580Y-70464286D02*
X105204819Y-70464286D01*
X104204819Y-71130952D02*
X104204819Y-71226190D01*
X104204819Y-71226190D02*
X104252438Y-71321428D01*
X104252438Y-71321428D02*
X104300057Y-71369047D01*
X104300057Y-71369047D02*
X104395295Y-71416666D01*
X104395295Y-71416666D02*
X104585771Y-71464285D01*
X104585771Y-71464285D02*
X104823866Y-71464285D01*
X104823866Y-71464285D02*
X105014342Y-71416666D01*
X105014342Y-71416666D02*
X105109580Y-71369047D01*
X105109580Y-71369047D02*
X105157200Y-71321428D01*
X105157200Y-71321428D02*
X105204819Y-71226190D01*
X105204819Y-71226190D02*
X105204819Y-71130952D01*
X105204819Y-71130952D02*
X105157200Y-71035714D01*
X105157200Y-71035714D02*
X105109580Y-70988095D01*
X105109580Y-70988095D02*
X105014342Y-70940476D01*
X105014342Y-70940476D02*
X104823866Y-70892857D01*
X104823866Y-70892857D02*
X104585771Y-70892857D01*
X104585771Y-70892857D02*
X104395295Y-70940476D01*
X104395295Y-70940476D02*
X104300057Y-70988095D01*
X104300057Y-70988095D02*
X104252438Y-71035714D01*
X104252438Y-71035714D02*
X104204819Y-71130952D01*
X105204819Y-72416666D02*
X105204819Y-71845238D01*
X105204819Y-72130952D02*
X104204819Y-72130952D01*
X104204819Y-72130952D02*
X104347676Y-72035714D01*
X104347676Y-72035714D02*
X104442914Y-71940476D01*
X104442914Y-71940476D02*
X104490533Y-71845238D01*
X104204819Y-73273809D02*
X104204819Y-73083333D01*
X104204819Y-73083333D02*
X104252438Y-72988095D01*
X104252438Y-72988095D02*
X104300057Y-72940476D01*
X104300057Y-72940476D02*
X104442914Y-72845238D01*
X104442914Y-72845238D02*
X104633390Y-72797619D01*
X104633390Y-72797619D02*
X105014342Y-72797619D01*
X105014342Y-72797619D02*
X105109580Y-72845238D01*
X105109580Y-72845238D02*
X105157200Y-72892857D01*
X105157200Y-72892857D02*
X105204819Y-72988095D01*
X105204819Y-72988095D02*
X105204819Y-73178571D01*
X105204819Y-73178571D02*
X105157200Y-73273809D01*
X105157200Y-73273809D02*
X105109580Y-73321428D01*
X105109580Y-73321428D02*
X105014342Y-73369047D01*
X105014342Y-73369047D02*
X104776247Y-73369047D01*
X104776247Y-73369047D02*
X104681009Y-73321428D01*
X104681009Y-73321428D02*
X104633390Y-73273809D01*
X104633390Y-73273809D02*
X104585771Y-73178571D01*
X104585771Y-73178571D02*
X104585771Y-72988095D01*
X104585771Y-72988095D02*
X104633390Y-72892857D01*
X104633390Y-72892857D02*
X104681009Y-72845238D01*
X104681009Y-72845238D02*
X104776247Y-72797619D01*
X105254819Y-46490476D02*
X106064342Y-46490476D01*
X106064342Y-46490476D02*
X106159580Y-46538095D01*
X106159580Y-46538095D02*
X106207200Y-46585714D01*
X106207200Y-46585714D02*
X106254819Y-46680952D01*
X106254819Y-46680952D02*
X106254819Y-46871428D01*
X106254819Y-46871428D02*
X106207200Y-46966666D01*
X106207200Y-46966666D02*
X106159580Y-47014285D01*
X106159580Y-47014285D02*
X106064342Y-47061904D01*
X106064342Y-47061904D02*
X105254819Y-47061904D01*
X105969104Y-47490476D02*
X105969104Y-47966666D01*
X106254819Y-47395238D02*
X105254819Y-47728571D01*
X105254819Y-47728571D02*
X106254819Y-48061904D01*
X106254819Y-48966666D02*
X105778628Y-48633333D01*
X106254819Y-48395238D02*
X105254819Y-48395238D01*
X105254819Y-48395238D02*
X105254819Y-48776190D01*
X105254819Y-48776190D02*
X105302438Y-48871428D01*
X105302438Y-48871428D02*
X105350057Y-48919047D01*
X105350057Y-48919047D02*
X105445295Y-48966666D01*
X105445295Y-48966666D02*
X105588152Y-48966666D01*
X105588152Y-48966666D02*
X105683390Y-48919047D01*
X105683390Y-48919047D02*
X105731009Y-48871428D01*
X105731009Y-48871428D02*
X105778628Y-48776190D01*
X105778628Y-48776190D02*
X105778628Y-48395238D01*
X105254819Y-49252381D02*
X105254819Y-49823809D01*
X106254819Y-49538095D02*
X105254819Y-49538095D01*
X106350057Y-49919048D02*
X106350057Y-50680952D01*
X105254819Y-50776191D02*
X105254819Y-51347619D01*
X106254819Y-51061905D02*
X105254819Y-51061905D01*
X105254819Y-51585715D02*
X106254819Y-52252381D01*
X105254819Y-52252381D02*
X106254819Y-51585715D01*
X106254819Y-53157143D02*
X106254819Y-52585715D01*
X106254819Y-52871429D02*
X105254819Y-52871429D01*
X105254819Y-52871429D02*
X105397676Y-52776191D01*
X105397676Y-52776191D02*
X105492914Y-52680953D01*
X105492914Y-52680953D02*
X105540533Y-52585715D01*
X101297618Y-80002438D02*
X101392856Y-79954819D01*
X101392856Y-79954819D02*
X101535713Y-79954819D01*
X101535713Y-79954819D02*
X101678570Y-80002438D01*
X101678570Y-80002438D02*
X101773808Y-80097676D01*
X101773808Y-80097676D02*
X101821427Y-80192914D01*
X101821427Y-80192914D02*
X101869046Y-80383390D01*
X101869046Y-80383390D02*
X101869046Y-80526247D01*
X101869046Y-80526247D02*
X101821427Y-80716723D01*
X101821427Y-80716723D02*
X101773808Y-80811961D01*
X101773808Y-80811961D02*
X101678570Y-80907200D01*
X101678570Y-80907200D02*
X101535713Y-80954819D01*
X101535713Y-80954819D02*
X101440475Y-80954819D01*
X101440475Y-80954819D02*
X101297618Y-80907200D01*
X101297618Y-80907200D02*
X101249999Y-80859580D01*
X101249999Y-80859580D02*
X101249999Y-80526247D01*
X101249999Y-80526247D02*
X101440475Y-80526247D01*
X100821427Y-80954819D02*
X100821427Y-79954819D01*
X100821427Y-79954819D02*
X100440475Y-79954819D01*
X100440475Y-79954819D02*
X100345237Y-80002438D01*
X100345237Y-80002438D02*
X100297618Y-80050057D01*
X100297618Y-80050057D02*
X100249999Y-80145295D01*
X100249999Y-80145295D02*
X100249999Y-80288152D01*
X100249999Y-80288152D02*
X100297618Y-80383390D01*
X100297618Y-80383390D02*
X100345237Y-80431009D01*
X100345237Y-80431009D02*
X100440475Y-80478628D01*
X100440475Y-80478628D02*
X100821427Y-80478628D01*
X99821427Y-80954819D02*
X99821427Y-79954819D01*
X99154761Y-79954819D02*
X98964285Y-79954819D01*
X98964285Y-79954819D02*
X98869047Y-80002438D01*
X98869047Y-80002438D02*
X98773809Y-80097676D01*
X98773809Y-80097676D02*
X98726190Y-80288152D01*
X98726190Y-80288152D02*
X98726190Y-80621485D01*
X98726190Y-80621485D02*
X98773809Y-80811961D01*
X98773809Y-80811961D02*
X98869047Y-80907200D01*
X98869047Y-80907200D02*
X98964285Y-80954819D01*
X98964285Y-80954819D02*
X99154761Y-80954819D01*
X99154761Y-80954819D02*
X99249999Y-80907200D01*
X99249999Y-80907200D02*
X99345237Y-80811961D01*
X99345237Y-80811961D02*
X99392856Y-80621485D01*
X99392856Y-80621485D02*
X99392856Y-80288152D01*
X99392856Y-80288152D02*
X99345237Y-80097676D01*
X99345237Y-80097676D02*
X99249999Y-80002438D01*
X99249999Y-80002438D02*
X99154761Y-79954819D01*
X98535714Y-81050057D02*
X97773809Y-81050057D01*
X97535713Y-80954819D02*
X97535713Y-79954819D01*
X97535713Y-79954819D02*
X97154761Y-79954819D01*
X97154761Y-79954819D02*
X97059523Y-80002438D01*
X97059523Y-80002438D02*
X97011904Y-80050057D01*
X97011904Y-80050057D02*
X96964285Y-80145295D01*
X96964285Y-80145295D02*
X96964285Y-80288152D01*
X96964285Y-80288152D02*
X97011904Y-80383390D01*
X97011904Y-80383390D02*
X97059523Y-80431009D01*
X97059523Y-80431009D02*
X97154761Y-80478628D01*
X97154761Y-80478628D02*
X97535713Y-80478628D01*
X96535713Y-80859580D02*
X96488094Y-80907200D01*
X96488094Y-80907200D02*
X96535713Y-80954819D01*
X96535713Y-80954819D02*
X96583332Y-80907200D01*
X96583332Y-80907200D02*
X96535713Y-80859580D01*
X96535713Y-80859580D02*
X96535713Y-80954819D01*
X95869047Y-79954819D02*
X95773809Y-79954819D01*
X95773809Y-79954819D02*
X95678571Y-80002438D01*
X95678571Y-80002438D02*
X95630952Y-80050057D01*
X95630952Y-80050057D02*
X95583333Y-80145295D01*
X95583333Y-80145295D02*
X95535714Y-80335771D01*
X95535714Y-80335771D02*
X95535714Y-80573866D01*
X95535714Y-80573866D02*
X95583333Y-80764342D01*
X95583333Y-80764342D02*
X95630952Y-80859580D01*
X95630952Y-80859580D02*
X95678571Y-80907200D01*
X95678571Y-80907200D02*
X95773809Y-80954819D01*
X95773809Y-80954819D02*
X95869047Y-80954819D01*
X95869047Y-80954819D02*
X95964285Y-80907200D01*
X95964285Y-80907200D02*
X96011904Y-80859580D01*
X96011904Y-80859580D02*
X96059523Y-80764342D01*
X96059523Y-80764342D02*
X96107142Y-80573866D01*
X96107142Y-80573866D02*
X96107142Y-80335771D01*
X96107142Y-80335771D02*
X96059523Y-80145295D01*
X96059523Y-80145295D02*
X96011904Y-80050057D01*
X96011904Y-80050057D02*
X95964285Y-80002438D01*
X95964285Y-80002438D02*
X95869047Y-79954819D01*
X95154761Y-80050057D02*
X95107142Y-80002438D01*
X95107142Y-80002438D02*
X95011904Y-79954819D01*
X95011904Y-79954819D02*
X94773809Y-79954819D01*
X94773809Y-79954819D02*
X94678571Y-80002438D01*
X94678571Y-80002438D02*
X94630952Y-80050057D01*
X94630952Y-80050057D02*
X94583333Y-80145295D01*
X94583333Y-80145295D02*
X94583333Y-80240533D01*
X94583333Y-80240533D02*
X94630952Y-80383390D01*
X94630952Y-80383390D02*
X95202380Y-80954819D01*
X95202380Y-80954819D02*
X94583333Y-80954819D01*
X93726190Y-80288152D02*
X93726190Y-80954819D01*
X93964285Y-79907200D02*
X94202380Y-80621485D01*
X94202380Y-80621485D02*
X93583333Y-80621485D01*
D12*
X103700000Y-82250000D02*
G75*
G02*
X102300000Y-82250000I-700000J0D01*
G01*
X102300000Y-82250000D02*
G75*
G02*
X103700000Y-82250000I700000J0D01*
G01*
X108700000Y-45250000D02*
G75*
G02*
X107300000Y-45250000I-700000J0D01*
G01*
X107300000Y-45250000D02*
G75*
G02*
X108700000Y-45250000I700000J0D01*
G01*
D13*
G36*
X95830918Y-41362103D02*
G01*
X95906786Y-41380906D01*
X95979843Y-41409614D01*
X96048991Y-41448114D01*
X96113133Y-41496295D01*
X96171169Y-41554045D01*
X96222003Y-41621253D01*
X96242380Y-41654228D01*
X96265065Y-41697353D01*
X96283814Y-41742564D01*
X96300021Y-41793331D01*
X96315077Y-41853125D01*
X96315565Y-41857018D01*
X96316260Y-41872821D01*
X96316586Y-41897340D01*
X96316522Y-41928068D01*
X96316046Y-41962500D01*
X96316021Y-41963801D01*
X96314299Y-42013848D01*
X96310859Y-42054962D01*
X96304957Y-42090592D01*
X96295851Y-42124187D01*
X96282796Y-42159197D01*
X96265049Y-42199071D01*
X96252731Y-42224261D01*
X96220317Y-42280124D01*
X96182719Y-42330002D01*
X96136619Y-42378530D01*
X96126324Y-42388230D01*
X96062481Y-42440313D01*
X95994941Y-42481415D01*
X95921668Y-42512612D01*
X95840625Y-42534982D01*
X95813107Y-42539269D01*
X95774642Y-42542468D01*
X95731896Y-42543969D01*
X95689029Y-42543720D01*
X95650199Y-42541668D01*
X95619563Y-42537762D01*
X95598752Y-42533379D01*
X95515424Y-42508066D01*
X95437029Y-42471547D01*
X95364625Y-42424386D01*
X95299268Y-42367145D01*
X95274837Y-42340971D01*
X95224045Y-42274331D01*
X95183932Y-42202818D01*
X95154492Y-42127570D01*
X95135721Y-42049724D01*
X95127614Y-41970420D01*
X95130168Y-41890794D01*
X95143376Y-41811985D01*
X95167236Y-41735130D01*
X95201741Y-41661367D01*
X95246888Y-41591835D01*
X95302671Y-41527671D01*
X95313404Y-41517197D01*
X95378195Y-41463539D01*
X95447862Y-41420568D01*
X95521309Y-41388172D01*
X95597436Y-41366239D01*
X95675145Y-41354658D01*
X95753339Y-41353317D01*
X95830918Y-41362103D01*
G37*
G36*
X95203125Y-47662493D02*
G01*
X95203125Y-47721861D01*
X95125000Y-47729592D01*
X95049758Y-47738828D01*
X94974267Y-47752885D01*
X94904361Y-47771818D01*
X94836598Y-47796574D01*
X94767534Y-47828104D01*
X94719331Y-47853474D01*
X94640235Y-47902593D01*
X94572837Y-47955203D01*
X94517241Y-48011206D01*
X94473548Y-48070509D01*
X94441860Y-48133015D01*
X94440947Y-48135303D01*
X94431447Y-48160406D01*
X94423723Y-48184272D01*
X94417566Y-48208618D01*
X94412765Y-48235162D01*
X94409110Y-48265620D01*
X94406392Y-48301709D01*
X94404400Y-48345147D01*
X94402924Y-48397651D01*
X94401755Y-48460937D01*
X94398691Y-48656250D01*
X95733720Y-48656250D01*
X97068750Y-48656250D01*
X97068750Y-48434375D01*
X97068750Y-48212500D01*
X97118750Y-48212500D01*
X97168750Y-48212500D01*
X97168750Y-48884375D01*
X97168750Y-49556250D01*
X97118750Y-49556250D01*
X97068750Y-49556250D01*
X97068750Y-49334375D01*
X97068750Y-49112500D01*
X95734375Y-49112500D01*
X94400000Y-49112500D01*
X94399999Y-49259621D01*
X94400352Y-49315191D01*
X94402387Y-49390971D01*
X94406484Y-49456782D01*
X94412930Y-49514094D01*
X94422009Y-49564378D01*
X94434008Y-49609103D01*
X94449211Y-49649740D01*
X94467906Y-49687758D01*
X94490377Y-49724626D01*
X94506017Y-49746661D01*
X94549452Y-49796182D01*
X94602374Y-49842151D01*
X94665769Y-49885364D01*
X94740625Y-49926617D01*
X94756424Y-49934388D01*
X94815192Y-49960554D01*
X94875006Y-49982526D01*
X94938145Y-50000907D01*
X95006889Y-50016303D01*
X95083518Y-50029318D01*
X95170312Y-50040556D01*
X95206249Y-50044649D01*
X95206249Y-50106739D01*
X95206249Y-50168830D01*
X94742187Y-50167227D01*
X94278125Y-50165625D01*
X94278125Y-48884375D01*
X94278125Y-47603125D01*
X94740625Y-47603125D01*
X95203125Y-47603125D01*
X95203125Y-47662493D01*
G37*
G36*
X94376470Y-50588801D02*
G01*
X94378125Y-50778125D01*
X95723345Y-50779701D01*
X97068566Y-50781278D01*
X97070220Y-50592201D01*
X97071875Y-50403125D01*
X97118750Y-50403125D01*
X97165625Y-50403125D01*
X97167226Y-50876562D01*
X97168828Y-51350000D01*
X97118789Y-51350000D01*
X97068750Y-51350000D01*
X97068750Y-51132264D01*
X97068750Y-50914529D01*
X96829687Y-50910398D01*
X96805689Y-50910049D01*
X96763885Y-50909604D01*
X96711079Y-50909175D01*
X96648120Y-50908764D01*
X96575858Y-50908375D01*
X96495141Y-50908010D01*
X96406818Y-50907672D01*
X96311740Y-50907364D01*
X96210754Y-50907088D01*
X96104711Y-50906846D01*
X95994459Y-50906643D01*
X95880848Y-50906479D01*
X95764726Y-50906359D01*
X95646943Y-50906284D01*
X95528348Y-50906258D01*
X95428257Y-50906264D01*
X95299601Y-50906294D01*
X95182569Y-50906354D01*
X95076652Y-50906448D01*
X94981340Y-50906580D01*
X94896123Y-50906755D01*
X94820492Y-50906976D01*
X94753939Y-50907247D01*
X94695952Y-50907573D01*
X94646024Y-50907958D01*
X94603644Y-50908406D01*
X94568303Y-50908920D01*
X94539492Y-50909506D01*
X94516701Y-50910167D01*
X94499422Y-50910907D01*
X94487143Y-50911730D01*
X94479357Y-50912641D01*
X94475553Y-50913643D01*
X94475223Y-50914741D01*
X94477989Y-50916769D01*
X94490454Y-50925520D01*
X94512506Y-50940849D01*
X94543711Y-50962459D01*
X94583636Y-50990051D01*
X94631848Y-51023326D01*
X94687913Y-51061988D01*
X94751400Y-51105737D01*
X94821873Y-51154276D01*
X94898901Y-51207305D01*
X94982050Y-51264528D01*
X95070887Y-51325646D01*
X95164979Y-51390360D01*
X95263892Y-51458373D01*
X95367194Y-51529386D01*
X95474452Y-51603101D01*
X95585231Y-51679220D01*
X95699100Y-51757445D01*
X95815625Y-51837477D01*
X95887772Y-51887026D01*
X96003251Y-51966339D01*
X96116011Y-52043790D01*
X96225607Y-52119073D01*
X96331593Y-52191882D01*
X96433522Y-52261909D01*
X96530948Y-52328849D01*
X96623424Y-52392393D01*
X96710504Y-52452237D01*
X96791743Y-52508072D01*
X96866693Y-52559592D01*
X96934909Y-52606491D01*
X96995944Y-52648461D01*
X97049352Y-52685196D01*
X97094687Y-52716389D01*
X97131502Y-52741733D01*
X97159351Y-52760923D01*
X97177788Y-52773650D01*
X97186367Y-52779608D01*
X97206567Y-52795118D01*
X97219402Y-52807854D01*
X97222650Y-52815856D01*
X97221851Y-52818098D01*
X97217672Y-52831601D01*
X97212608Y-52849595D01*
X97205775Y-52874972D01*
X95791950Y-52876548D01*
X94378125Y-52878125D01*
X94376464Y-53054948D01*
X94374804Y-53231772D01*
X94326464Y-53229948D01*
X94278125Y-53228125D01*
X94278125Y-52771875D01*
X94278125Y-52315625D01*
X94326562Y-52313799D01*
X94375000Y-52311974D01*
X94375000Y-52524618D01*
X94375000Y-52737261D01*
X94389062Y-52740654D01*
X94390674Y-52740806D01*
X94403183Y-52741165D01*
X94427232Y-52741491D01*
X94462133Y-52741782D01*
X94507200Y-52742036D01*
X94561745Y-52742254D01*
X94625081Y-52742433D01*
X94696519Y-52742572D01*
X94775373Y-52742670D01*
X94860956Y-52742726D01*
X94952579Y-52742739D01*
X95049555Y-52742708D01*
X95151197Y-52742631D01*
X95256818Y-52742507D01*
X95365730Y-52742336D01*
X96328336Y-52740625D01*
X95301720Y-52034375D01*
X94275104Y-51328125D01*
X94276614Y-50865625D01*
X94278125Y-50403125D01*
X94326470Y-50401301D01*
X94374815Y-50399477D01*
X94376470Y-50588801D01*
G37*
G36*
X94375000Y-44705232D02*
G01*
X94375000Y-44891714D01*
X94642187Y-44895849D01*
X94645417Y-44895898D01*
X94697336Y-44896560D01*
X94760598Y-44897162D01*
X94834122Y-44897703D01*
X94916828Y-44898184D01*
X95007635Y-44898605D01*
X95105464Y-44898965D01*
X95209233Y-44899265D01*
X95317862Y-44899505D01*
X95430271Y-44899684D01*
X95545380Y-44899803D01*
X95662107Y-44899862D01*
X95779373Y-44899860D01*
X95896098Y-44899798D01*
X96011200Y-44899675D01*
X96123599Y-44899493D01*
X96232215Y-44899249D01*
X96335968Y-44898946D01*
X96433777Y-44898582D01*
X96524562Y-44898158D01*
X96607242Y-44897673D01*
X96680736Y-44897128D01*
X96743966Y-44896522D01*
X96795849Y-44895856D01*
X97068750Y-44891713D01*
X97068750Y-44705231D01*
X97068750Y-44518750D01*
X97118750Y-44518750D01*
X97168750Y-44518750D01*
X97168750Y-44990625D01*
X97168750Y-45462500D01*
X97118750Y-45462500D01*
X97068750Y-45462500D01*
X97068750Y-45244768D01*
X97068750Y-45027036D01*
X96792187Y-45022901D01*
X96777630Y-45022701D01*
X96734861Y-45022240D01*
X96680890Y-45021795D01*
X96616627Y-45021369D01*
X96542982Y-45020965D01*
X96460866Y-45020585D01*
X96371189Y-45020233D01*
X96274862Y-45019912D01*
X96172796Y-45019624D01*
X96065900Y-45019372D01*
X95955085Y-45019159D01*
X95841262Y-45018988D01*
X95725341Y-45018862D01*
X95608233Y-45018784D01*
X95490848Y-45018757D01*
X95431778Y-45018759D01*
X95302238Y-45018782D01*
X95184456Y-45018834D01*
X95077913Y-45018921D01*
X94982089Y-45019046D01*
X94896466Y-45019214D01*
X94820523Y-45019428D01*
X94753742Y-45019695D01*
X94695602Y-45020017D01*
X94645585Y-45020399D01*
X94603171Y-45020846D01*
X94567840Y-45021362D01*
X94539073Y-45021951D01*
X94516350Y-45022618D01*
X94499152Y-45023366D01*
X94486960Y-45024201D01*
X94479254Y-45025127D01*
X94475515Y-45026147D01*
X94475223Y-45027267D01*
X94480436Y-45031032D01*
X94495580Y-45041633D01*
X94520200Y-45058745D01*
X94553868Y-45082073D01*
X94596159Y-45111324D01*
X94646646Y-45146203D01*
X94704901Y-45186417D01*
X94770499Y-45231670D01*
X94843013Y-45281671D01*
X94922017Y-45336123D01*
X95007083Y-45394734D01*
X95097785Y-45457210D01*
X95193698Y-45523256D01*
X95294393Y-45592578D01*
X95399445Y-45664882D01*
X95508427Y-45739875D01*
X95620912Y-45817262D01*
X95736474Y-45896750D01*
X95854687Y-45978044D01*
X95967162Y-46055389D01*
X96082678Y-46134833D01*
X96195079Y-46212144D01*
X96303943Y-46287030D01*
X96408847Y-46359202D01*
X96509369Y-46428367D01*
X96605086Y-46494235D01*
X96695575Y-46556515D01*
X96780413Y-46614915D01*
X96859177Y-46669145D01*
X96931445Y-46718913D01*
X96996795Y-46763929D01*
X97054802Y-46803901D01*
X97105046Y-46838538D01*
X97147102Y-46867550D01*
X97180548Y-46890645D01*
X97204961Y-46907531D01*
X97219920Y-46917919D01*
X97225000Y-46921517D01*
X97224201Y-46924690D01*
X97220708Y-46936977D01*
X97215382Y-46955115D01*
X97205765Y-46987500D01*
X95838200Y-46987500D01*
X95822384Y-46987500D01*
X95692183Y-46987522D01*
X95565004Y-46987580D01*
X95441440Y-46987672D01*
X95322083Y-46987796D01*
X95207526Y-46987950D01*
X95098361Y-46988132D01*
X94995180Y-46988342D01*
X94898575Y-46988576D01*
X94809140Y-46988834D01*
X94727465Y-46989114D01*
X94654145Y-46989414D01*
X94589770Y-46989732D01*
X94534934Y-46990068D01*
X94490228Y-46990418D01*
X94456245Y-46990781D01*
X94433577Y-46991156D01*
X94422817Y-46991542D01*
X94375000Y-46995584D01*
X94375000Y-47169667D01*
X94375000Y-47343750D01*
X94325000Y-47343750D01*
X94275000Y-47343750D01*
X94275000Y-46887500D01*
X94275000Y-46431250D01*
X94325000Y-46431250D01*
X94375000Y-46431250D01*
X94375000Y-46640821D01*
X94375014Y-46665144D01*
X94375203Y-46720319D01*
X94375639Y-46764387D01*
X94376358Y-46798356D01*
X94377398Y-46823232D01*
X94378795Y-46840021D01*
X94380588Y-46849729D01*
X94382812Y-46853363D01*
X94384449Y-46853512D01*
X94396844Y-46853823D01*
X94420755Y-46854104D01*
X94455504Y-46854353D01*
X94500410Y-46854569D01*
X94554794Y-46854752D01*
X94617976Y-46854900D01*
X94689277Y-46855013D01*
X94768017Y-46855089D01*
X94853516Y-46855128D01*
X94945095Y-46855129D01*
X95042074Y-46855090D01*
X95143773Y-46855012D01*
X95249514Y-46854892D01*
X95358616Y-46854730D01*
X96326607Y-46853125D01*
X95300803Y-46147199D01*
X94275000Y-45441273D01*
X94275000Y-44980011D01*
X94275000Y-44518750D01*
X94325000Y-44518750D01*
X94375000Y-44518750D01*
X94375000Y-44705232D01*
G37*
G36*
X95830080Y-40498891D02*
G01*
X95920515Y-40499093D01*
X96008955Y-40499421D01*
X96094447Y-40499874D01*
X96176042Y-40500451D01*
X96252789Y-40501155D01*
X96323740Y-40501984D01*
X96387942Y-40502939D01*
X96444446Y-40504019D01*
X96456250Y-40504316D01*
X96492302Y-40505224D01*
X96530559Y-40506555D01*
X96558268Y-40508012D01*
X96574477Y-40509594D01*
X96612797Y-40516916D01*
X96701228Y-40542542D01*
X96785215Y-40579089D01*
X96863765Y-40625726D01*
X96935882Y-40681625D01*
X97000572Y-40745956D01*
X97056840Y-40817890D01*
X97103692Y-40896598D01*
X97140133Y-40981250D01*
X97141639Y-40985593D01*
X97151236Y-41016431D01*
X97160828Y-41051622D01*
X97168544Y-41084375D01*
X97169660Y-41089850D01*
X97171266Y-41098717D01*
X97172705Y-41108519D01*
X97173986Y-41119936D01*
X97175118Y-41133649D01*
X97176112Y-41150338D01*
X97176977Y-41170682D01*
X97177723Y-41195363D01*
X97178358Y-41225060D01*
X97178894Y-41260455D01*
X97179339Y-41302227D01*
X97179704Y-41351056D01*
X97179998Y-41407623D01*
X97180230Y-41472608D01*
X97180411Y-41546692D01*
X97180549Y-41630555D01*
X97180656Y-41724876D01*
X97180739Y-41830338D01*
X97180810Y-41947618D01*
X97180863Y-42043325D01*
X97180917Y-42154494D01*
X97180931Y-42254391D01*
X97180881Y-42343706D01*
X97180742Y-42423125D01*
X97180489Y-42493338D01*
X97180098Y-42555033D01*
X97179544Y-42608897D01*
X97178803Y-42655618D01*
X97177849Y-42695886D01*
X97176657Y-42730387D01*
X97175204Y-42759810D01*
X97173464Y-42784844D01*
X97171414Y-42806176D01*
X97169027Y-42824494D01*
X97166279Y-42840487D01*
X97163146Y-42854843D01*
X97159603Y-42868249D01*
X97155625Y-42881395D01*
X97151187Y-42894968D01*
X97146265Y-42909656D01*
X97138087Y-42932792D01*
X97099791Y-43018056D01*
X97051132Y-43097308D01*
X96993028Y-43169632D01*
X96926393Y-43234112D01*
X96852145Y-43289832D01*
X96771199Y-43335876D01*
X96684472Y-43371327D01*
X96683623Y-43371611D01*
X96669041Y-43376502D01*
X96655549Y-43380914D01*
X96642467Y-43384872D01*
X96629117Y-43388399D01*
X96614818Y-43391518D01*
X96598891Y-43394251D01*
X96580657Y-43396623D01*
X96559437Y-43398656D01*
X96534549Y-43400373D01*
X96505316Y-43401798D01*
X96471058Y-43402954D01*
X96431095Y-43403863D01*
X96384747Y-43404550D01*
X96331335Y-43405037D01*
X96270180Y-43405347D01*
X96200602Y-43405504D01*
X96121922Y-43405531D01*
X96033459Y-43405451D01*
X95934535Y-43405286D01*
X95824470Y-43405061D01*
X95702585Y-43404799D01*
X95604162Y-43404587D01*
X95495771Y-43404345D01*
X95398668Y-43404108D01*
X95312187Y-43403864D01*
X95235665Y-43403602D01*
X95168438Y-43403310D01*
X95109839Y-43402977D01*
X95059206Y-43402592D01*
X95015874Y-43402141D01*
X94979178Y-43401615D01*
X94948455Y-43401001D01*
X94923039Y-43400288D01*
X94902266Y-43399464D01*
X94885472Y-43398517D01*
X94871992Y-43397437D01*
X94861163Y-43396212D01*
X94852319Y-43394829D01*
X94844796Y-43393278D01*
X94837930Y-43391547D01*
X94831057Y-43389624D01*
X94799988Y-43380205D01*
X94705827Y-43343990D01*
X94619996Y-43298719D01*
X94542737Y-43244607D01*
X94474295Y-43181868D01*
X94414914Y-43110717D01*
X94364838Y-43031369D01*
X94324311Y-42944039D01*
X94320384Y-42934106D01*
X94314327Y-42919045D01*
X94308884Y-42905340D01*
X94304022Y-42892299D01*
X94299705Y-42879229D01*
X94295900Y-42865438D01*
X94292572Y-42850231D01*
X94289687Y-42832917D01*
X94287210Y-42812802D01*
X94285108Y-42789195D01*
X94283344Y-42761401D01*
X94281886Y-42728728D01*
X94280699Y-42690484D01*
X94280502Y-42681250D01*
X94999947Y-42681250D01*
X95728098Y-42681250D01*
X96456250Y-42681250D01*
X96456250Y-41953098D01*
X96456250Y-41224947D01*
X95729687Y-41226536D01*
X95003125Y-41228125D01*
X95001536Y-41954687D01*
X94999947Y-42681250D01*
X94280502Y-42681250D01*
X94279748Y-42645976D01*
X94279000Y-42594510D01*
X94278419Y-42535394D01*
X94277971Y-42467935D01*
X94277622Y-42391441D01*
X94277337Y-42305218D01*
X94277083Y-42208573D01*
X94276825Y-42100815D01*
X94276527Y-41981250D01*
X94276238Y-41870890D01*
X94275961Y-41760051D01*
X94275752Y-41660406D01*
X94275637Y-41571268D01*
X94275640Y-41491951D01*
X94275786Y-41421768D01*
X94276100Y-41360034D01*
X94276607Y-41306061D01*
X94277331Y-41259165D01*
X94278297Y-41218657D01*
X94279530Y-41183853D01*
X94281054Y-41154066D01*
X94282894Y-41128609D01*
X94285076Y-41106797D01*
X94287624Y-41087942D01*
X94290562Y-41071359D01*
X94293916Y-41056361D01*
X94297709Y-41042263D01*
X94301968Y-41028377D01*
X94306716Y-41014017D01*
X94311979Y-40998498D01*
X94334214Y-40940034D01*
X94372343Y-40863786D01*
X94419532Y-40793474D01*
X94477500Y-40726270D01*
X94478858Y-40724858D01*
X94525803Y-40679159D01*
X94571620Y-40641548D01*
X94620470Y-40608928D01*
X94676515Y-40578202D01*
X94726873Y-40554422D01*
X94775946Y-40535548D01*
X94826348Y-40521230D01*
X94883631Y-40509628D01*
X94886457Y-40509213D01*
X94905072Y-40507662D01*
X94934993Y-40506236D01*
X94975271Y-40504935D01*
X95024955Y-40503759D01*
X95083095Y-40502709D01*
X95148741Y-40501784D01*
X95220942Y-40500984D01*
X95298748Y-40500309D01*
X95381209Y-40499760D01*
X95467374Y-40499336D01*
X95556295Y-40499037D01*
X95647019Y-40498863D01*
X95738597Y-40498814D01*
X95830080Y-40498891D01*
G37*
G36*
X94375000Y-53771612D02*
G01*
X94375000Y-53950000D01*
X95295312Y-53950238D01*
X95358721Y-53950260D01*
X95501156Y-53950364D01*
X95631900Y-53950547D01*
X95751523Y-53950817D01*
X95860594Y-53951184D01*
X95959684Y-53951659D01*
X96049361Y-53952249D01*
X96130196Y-53952965D01*
X96202758Y-53953816D01*
X96267616Y-53954812D01*
X96325342Y-53955961D01*
X96376504Y-53957274D01*
X96421672Y-53958760D01*
X96461416Y-53960428D01*
X96496305Y-53962287D01*
X96526910Y-53964348D01*
X96553799Y-53966619D01*
X96577544Y-53969110D01*
X96598712Y-53971831D01*
X96614071Y-53974117D01*
X96707000Y-53993395D01*
X96790588Y-54020791D01*
X96865104Y-54056451D01*
X96930817Y-54100526D01*
X96987994Y-54153163D01*
X97036904Y-54214511D01*
X97063665Y-54258667D01*
X97095517Y-54326380D01*
X97123786Y-54404955D01*
X97148316Y-54493716D01*
X97168948Y-54591987D01*
X97185524Y-54699092D01*
X97197886Y-54814357D01*
X97205876Y-54937105D01*
X97207944Y-55000174D01*
X97208380Y-55105117D01*
X97205475Y-55211397D01*
X97199344Y-55312500D01*
X97188596Y-55416032D01*
X97170222Y-55528641D01*
X97145577Y-55630721D01*
X97114510Y-55722513D01*
X97076870Y-55804255D01*
X97032505Y-55876186D01*
X96981266Y-55938546D01*
X96923001Y-55991575D01*
X96857559Y-56035511D01*
X96784789Y-56070594D01*
X96704541Y-56097064D01*
X96704336Y-56097118D01*
X96687980Y-56101473D01*
X96672874Y-56105455D01*
X96658420Y-56109083D01*
X96644022Y-56112375D01*
X96629080Y-56115352D01*
X96612997Y-56118032D01*
X96595176Y-56120435D01*
X96575018Y-56122579D01*
X96551925Y-56124484D01*
X96525300Y-56126169D01*
X96494546Y-56127654D01*
X96459063Y-56128957D01*
X96418254Y-56130097D01*
X96371521Y-56131094D01*
X96318268Y-56131967D01*
X96257895Y-56132735D01*
X96189804Y-56133417D01*
X96113399Y-56134033D01*
X96028081Y-56134601D01*
X95933252Y-56135141D01*
X95828315Y-56135672D01*
X95712672Y-56136214D01*
X95585724Y-56136784D01*
X95446875Y-56137403D01*
X95424713Y-56137502D01*
X95310720Y-56138019D01*
X95200251Y-56138529D01*
X95093947Y-56139028D01*
X94992450Y-56139513D01*
X94896400Y-56139980D01*
X94806438Y-56140427D01*
X94723207Y-56140850D01*
X94647346Y-56141246D01*
X94579498Y-56141611D01*
X94520302Y-56141942D01*
X94470401Y-56142235D01*
X94430436Y-56142488D01*
X94401046Y-56142697D01*
X94382875Y-56142859D01*
X94376562Y-56142970D01*
X94376479Y-56143259D01*
X94376085Y-56151762D01*
X94375731Y-56170874D01*
X94375431Y-56199018D01*
X94375201Y-56234617D01*
X94375052Y-56276094D01*
X94375000Y-56321875D01*
X94375000Y-56500000D01*
X94325000Y-56500000D01*
X94275000Y-56500000D01*
X94275000Y-56046875D01*
X94275000Y-55593750D01*
X94325000Y-55593750D01*
X94375000Y-55593750D01*
X94374999Y-55799000D01*
X94374999Y-56004250D01*
X94526012Y-56008375D01*
X94555569Y-56009027D01*
X94597819Y-56009672D01*
X94649638Y-56010249D01*
X94710142Y-56010758D01*
X94778450Y-56011201D01*
X94853678Y-56011578D01*
X94934944Y-56011892D01*
X95021365Y-56012141D01*
X95112058Y-56012329D01*
X95206140Y-56012455D01*
X95302730Y-56012520D01*
X95400943Y-56012527D01*
X95499897Y-56012475D01*
X95598710Y-56012365D01*
X95696498Y-56012199D01*
X95792380Y-56011978D01*
X95885472Y-56011702D01*
X95974891Y-56011373D01*
X96059755Y-56010992D01*
X96139181Y-56010559D01*
X96212286Y-56010076D01*
X96278188Y-56009543D01*
X96336004Y-56008962D01*
X96384851Y-56008334D01*
X96423846Y-56007659D01*
X96452106Y-56006939D01*
X96468750Y-56006174D01*
X96534952Y-55999925D01*
X96619443Y-55987049D01*
X96693824Y-55968984D01*
X96759055Y-55945199D01*
X96816092Y-55915163D01*
X96865895Y-55878343D01*
X96909422Y-55834210D01*
X96947630Y-55782231D01*
X96981478Y-55721875D01*
X96986547Y-55711414D01*
X97012763Y-55649089D01*
X97034044Y-55582312D01*
X97050586Y-55509839D01*
X97062583Y-55430426D01*
X97070233Y-55342826D01*
X97073731Y-55245795D01*
X97073273Y-55138089D01*
X97071881Y-55084590D01*
X97069552Y-55029767D01*
X97066230Y-54982759D01*
X97061623Y-54941016D01*
X97055440Y-54901988D01*
X97047390Y-54863125D01*
X97037181Y-54821875D01*
X97022024Y-54771420D01*
X96990177Y-54694491D01*
X96950258Y-54627066D01*
X96902297Y-54569175D01*
X96846323Y-54520853D01*
X96782363Y-54482130D01*
X96710447Y-54453038D01*
X96689632Y-54446767D01*
X96648421Y-54436572D01*
X96603142Y-54428346D01*
X96551692Y-54421793D01*
X96491970Y-54416619D01*
X96421875Y-54412528D01*
X96420354Y-54412457D01*
X96395573Y-54411640D01*
X96359327Y-54410878D01*
X96312573Y-54410172D01*
X96256265Y-54409525D01*
X96191358Y-54408936D01*
X96118809Y-54408407D01*
X96039573Y-54407939D01*
X95954606Y-54407533D01*
X95864862Y-54407190D01*
X95771298Y-54406912D01*
X95674868Y-54406699D01*
X95576529Y-54406553D01*
X95477236Y-54406474D01*
X95377945Y-54406464D01*
X95279610Y-54406525D01*
X95183187Y-54406656D01*
X95089632Y-54406859D01*
X94999901Y-54407136D01*
X94914949Y-54407487D01*
X94835731Y-54407913D01*
X94763202Y-54408417D01*
X94698320Y-54408997D01*
X94642038Y-54409657D01*
X94595312Y-54410397D01*
X94374999Y-54414525D01*
X94374999Y-54616637D01*
X94375000Y-54818750D01*
X94324969Y-54818750D01*
X94274938Y-54818750D01*
X94276531Y-54207812D01*
X94278125Y-53596875D01*
X94326562Y-53595049D01*
X94375000Y-53593224D01*
X94375000Y-53771612D01*
G37*
D12*
X114600000Y-73300000D02*
G75*
G02*
X113200000Y-73300000I-700000J0D01*
G01*
X113200000Y-73300000D02*
G75*
G02*
X114600000Y-73300000I700000J0D01*
G01*
D13*
G36*
X122133334Y-47633333D02*
G01*
X122100000Y-47666666D01*
X122066667Y-47633333D01*
X122100000Y-47600000D01*
X122133334Y-47633333D01*
G37*
G36*
X122200000Y-47300000D02*
G01*
X122166667Y-47333333D01*
X122133334Y-47300000D01*
X122166667Y-47266666D01*
X122200000Y-47300000D01*
G37*
G36*
X122333334Y-48366666D02*
G01*
X122300000Y-48400000D01*
X122266667Y-48366666D01*
X122300000Y-48333333D01*
X122333334Y-48366666D01*
G37*
G36*
X122466667Y-48633333D02*
G01*
X122433334Y-48666666D01*
X122400000Y-48633333D01*
X122433334Y-48600000D01*
X122466667Y-48633333D01*
G37*
G36*
X123066667Y-50900000D02*
G01*
X123033334Y-50933333D01*
X123000000Y-50900000D01*
X123033334Y-50866666D01*
X123066667Y-50900000D01*
G37*
G36*
X123133334Y-50166666D02*
G01*
X123100000Y-50200000D01*
X123066667Y-50166666D01*
X123100000Y-50133333D01*
X123133334Y-50166666D01*
G37*
G36*
X123133334Y-50633333D02*
G01*
X123100000Y-50666666D01*
X123066667Y-50633333D01*
X123100000Y-50600000D01*
X123133334Y-50633333D01*
G37*
G36*
X121466667Y-46733333D02*
G01*
X121461856Y-46768626D01*
X121422222Y-46777777D01*
X121414244Y-46768006D01*
X121422222Y-46688888D01*
X121442275Y-46678459D01*
X121466667Y-46733333D01*
G37*
G36*
X121701960Y-47338144D02*
G01*
X121711111Y-47377777D01*
X121701340Y-47385756D01*
X121622222Y-47377777D01*
X121611793Y-47357725D01*
X121666667Y-47333333D01*
X121701960Y-47338144D01*
G37*
G36*
X121800000Y-47133333D02*
G01*
X121795189Y-47168626D01*
X121755556Y-47177777D01*
X121747577Y-47168006D01*
X121755556Y-47088888D01*
X121775608Y-47078459D01*
X121800000Y-47133333D01*
G37*
G36*
X122028729Y-46543310D02*
G01*
X122048611Y-46573611D01*
X122025025Y-46586821D01*
X121920834Y-46578874D01*
X121889976Y-46554877D01*
X121961111Y-46538596D01*
X122028729Y-46543310D01*
G37*
G36*
X122095395Y-48076643D02*
G01*
X122115278Y-48106944D01*
X122091692Y-48120155D01*
X121987500Y-48112207D01*
X121956642Y-48088211D01*
X122027778Y-48071929D01*
X122095395Y-48076643D01*
G37*
G36*
X122168627Y-49138144D02*
G01*
X122177778Y-49177777D01*
X122168007Y-49185756D01*
X122088889Y-49177777D01*
X122078459Y-49157725D01*
X122133334Y-49133333D01*
X122168627Y-49138144D01*
G37*
G36*
X122400000Y-49533333D02*
G01*
X122395189Y-49568626D01*
X122355556Y-49577777D01*
X122347577Y-49568006D01*
X122355556Y-49488888D01*
X122375608Y-49478459D01*
X122400000Y-49533333D01*
G37*
G36*
X122568627Y-50071477D02*
G01*
X122577778Y-50111111D01*
X122568007Y-50119089D01*
X122488889Y-50111111D01*
X122478459Y-50091058D01*
X122533334Y-50066666D01*
X122568627Y-50071477D01*
G37*
G36*
X122635293Y-49004811D02*
G01*
X122644445Y-49044444D01*
X122634673Y-49052423D01*
X122555556Y-49044444D01*
X122545126Y-49024392D01*
X122600000Y-49000000D01*
X122635293Y-49004811D01*
G37*
G36*
X122866667Y-50066666D02*
G01*
X122861856Y-50101959D01*
X122822222Y-50111111D01*
X122814244Y-50101339D01*
X122822222Y-50022222D01*
X122842275Y-50011792D01*
X122866667Y-50066666D01*
G37*
G36*
X123128070Y-52694444D02*
G01*
X123123357Y-52762061D01*
X123093056Y-52781944D01*
X123079845Y-52758358D01*
X123087793Y-52654166D01*
X123111789Y-52623308D01*
X123128070Y-52694444D01*
G37*
G36*
X121590000Y-46330000D02*
G01*
X121571838Y-46365996D01*
X121505159Y-46403568D01*
X121461667Y-46351666D01*
X121465132Y-46332756D01*
X121536667Y-46276666D01*
X121569030Y-46273125D01*
X121590000Y-46330000D01*
G37*
G36*
X121679657Y-45747052D02*
G01*
X121733334Y-45838888D01*
X121694852Y-45911731D01*
X121614968Y-45900537D01*
X121548611Y-45812500D01*
X121550025Y-45772095D01*
X121627778Y-45733333D01*
X121679657Y-45747052D01*
G37*
G36*
X122529725Y-49801304D02*
G01*
X122597054Y-49832795D01*
X122537940Y-49897152D01*
X122513902Y-49906212D01*
X122434006Y-49867754D01*
X122427402Y-49832800D01*
X122496066Y-49800000D01*
X122529725Y-49801304D01*
G37*
G36*
X121482602Y-47001937D02*
G01*
X121533334Y-47066666D01*
X121531396Y-47082601D01*
X121466667Y-47133333D01*
X121450732Y-47131396D01*
X121400000Y-47066666D01*
X121401937Y-47050731D01*
X121466667Y-47000000D01*
X121482602Y-47001937D01*
G37*
G36*
X121548421Y-47467431D02*
G01*
X121600000Y-47496065D01*
X121596932Y-47506759D01*
X121533334Y-47566666D01*
X121507509Y-47577083D01*
X121466667Y-47537267D01*
X121469229Y-47517916D01*
X121533334Y-47466666D01*
X121548421Y-47467431D01*
G37*
G36*
X121615935Y-47801937D02*
G01*
X121666667Y-47866666D01*
X121664730Y-47882601D01*
X121600000Y-47933333D01*
X121584065Y-47931396D01*
X121533334Y-47866666D01*
X121535271Y-47850731D01*
X121600000Y-47800000D01*
X121615935Y-47801937D01*
G37*
G36*
X121681754Y-48134097D02*
G01*
X121733334Y-48162732D01*
X121730266Y-48173426D01*
X121666667Y-48233333D01*
X121640843Y-48243750D01*
X121600000Y-48203934D01*
X121602562Y-48184583D01*
X121666667Y-48133333D01*
X121681754Y-48134097D01*
G37*
G36*
X121682602Y-46668603D02*
G01*
X121733334Y-46733333D01*
X121731396Y-46749268D01*
X121666667Y-46800000D01*
X121650732Y-46798062D01*
X121600000Y-46733333D01*
X121601937Y-46717398D01*
X121666667Y-46666666D01*
X121682602Y-46668603D01*
G37*
G36*
X121749269Y-46068603D02*
G01*
X121800000Y-46133333D01*
X121798063Y-46149268D01*
X121733334Y-46200000D01*
X121717398Y-46198062D01*
X121666667Y-46133333D01*
X121668604Y-46117398D01*
X121733334Y-46066666D01*
X121749269Y-46068603D01*
G37*
G36*
X121884887Y-47542926D02*
G01*
X121900000Y-47600000D01*
X121886355Y-47618206D01*
X121796066Y-47666666D01*
X121781182Y-47664758D01*
X121733334Y-47600000D01*
X121746054Y-47568139D01*
X121837268Y-47533333D01*
X121884887Y-47542926D01*
G37*
G36*
X121882602Y-48468603D02*
G01*
X121933334Y-48533333D01*
X121931396Y-48549268D01*
X121866667Y-48600000D01*
X121850732Y-48598062D01*
X121800000Y-48533333D01*
X121801937Y-48517398D01*
X121866667Y-48466666D01*
X121882602Y-48468603D01*
G37*
G36*
X121966667Y-48909224D02*
G01*
X122014536Y-48930812D01*
X122066667Y-48973799D01*
X122055614Y-48985736D01*
X121966667Y-49000000D01*
X121920696Y-48992725D01*
X121866667Y-48935425D01*
X121880823Y-48907839D01*
X121966667Y-48909224D01*
G37*
G36*
X122120652Y-45804850D02*
G01*
X122198291Y-45858939D01*
X122160149Y-45950962D01*
X122092275Y-45969334D01*
X121986520Y-45932636D01*
X121933334Y-45859534D01*
X121958291Y-45824959D01*
X122066667Y-45800000D01*
X122120652Y-45804850D01*
G37*
G36*
X122149269Y-48535270D02*
G01*
X122200000Y-48600000D01*
X122198063Y-48615935D01*
X122133334Y-48666666D01*
X122117398Y-48664729D01*
X122066667Y-48600000D01*
X122068604Y-48584064D01*
X122133334Y-48533333D01*
X122149269Y-48535270D01*
G37*
G36*
X122266667Y-48862732D02*
G01*
X122264105Y-48882083D01*
X122200000Y-48933333D01*
X122184913Y-48932568D01*
X122133334Y-48903934D01*
X122136401Y-48893240D01*
X122200000Y-48833333D01*
X122225824Y-48822916D01*
X122266667Y-48862732D01*
G37*
G36*
X122415935Y-49135270D02*
G01*
X122466667Y-49200000D01*
X122464730Y-49215935D01*
X122400000Y-49266666D01*
X122384065Y-49264729D01*
X122333334Y-49200000D01*
X122335271Y-49184064D01*
X122400000Y-49133333D01*
X122415935Y-49135270D01*
G37*
G36*
X122733334Y-49496065D02*
G01*
X122725174Y-49545735D01*
X122666667Y-49600000D01*
X122650850Y-49598204D01*
X122600000Y-49537267D01*
X122602543Y-49518563D01*
X122666667Y-49433333D01*
X122701014Y-49427061D01*
X122733334Y-49496065D01*
G37*
G36*
X122746003Y-50340854D02*
G01*
X122800000Y-50400000D01*
X122788718Y-50430668D01*
X122700000Y-50466666D01*
X122653997Y-50459145D01*
X122600000Y-50400000D01*
X122611282Y-50369331D01*
X122700000Y-50333333D01*
X122746003Y-50340854D01*
G37*
G36*
X122882083Y-50535895D02*
G01*
X122933334Y-50600000D01*
X122932569Y-50615087D01*
X122903935Y-50666666D01*
X122893241Y-50663598D01*
X122833334Y-50600000D01*
X122822917Y-50574175D01*
X122862732Y-50533333D01*
X122882083Y-50535895D01*
G37*
G36*
X123197050Y-52951509D02*
G01*
X123294291Y-53073474D01*
X123410942Y-53245291D01*
X123452279Y-53325009D01*
X123414634Y-53304246D01*
X123297893Y-53179615D01*
X123274553Y-53152349D01*
X123174109Y-53013948D01*
X123133334Y-52919756D01*
X123139788Y-52908465D01*
X123197050Y-52951509D01*
G37*
G36*
X122995487Y-52486233D02*
G01*
X122973529Y-52582267D01*
X122919825Y-52730876D01*
X122853244Y-52887426D01*
X122792656Y-53007284D01*
X122756928Y-53045816D01*
X122755584Y-53020324D01*
X122789808Y-52902037D01*
X122860564Y-52726384D01*
X122906920Y-52625762D01*
X122968967Y-52507354D01*
X122995291Y-52481984D01*
X122995487Y-52486233D01*
G37*
G36*
X121266667Y-43654142D02*
G01*
X121212013Y-43714104D01*
X121076036Y-43764608D01*
X121049648Y-43771311D01*
X120824533Y-43893589D01*
X120610638Y-44113258D01*
X120438388Y-44400000D01*
X120332105Y-44633333D01*
X120367022Y-44403484D01*
X120382288Y-44322790D01*
X120517103Y-44005554D01*
X120753600Y-43771793D01*
X121083334Y-43630620D01*
X121210830Y-43616091D01*
X121266667Y-43654142D01*
G37*
G36*
X122912129Y-52363871D02*
G01*
X122840271Y-52516280D01*
X122734097Y-52711873D01*
X122624922Y-52891906D01*
X122506098Y-53055620D01*
X122428058Y-53119825D01*
X122400000Y-53074535D01*
X122402815Y-53053856D01*
X122468056Y-52965808D01*
X122517104Y-52913426D01*
X122616832Y-52770893D01*
X122734097Y-52578540D01*
X122826683Y-52424896D01*
X122902845Y-52316218D01*
X122932082Y-52300000D01*
X122912129Y-52363871D01*
G37*
G36*
X123413641Y-45162267D02*
G01*
X123365991Y-45238275D01*
X123253006Y-45335739D01*
X123098780Y-45428967D01*
X122875359Y-45503480D01*
X122539164Y-45549852D01*
X122167571Y-45550340D01*
X121809797Y-45502151D01*
X121661167Y-45460917D01*
X121628762Y-45426957D01*
X121721846Y-45404029D01*
X121936542Y-45393037D01*
X122268976Y-45394887D01*
X122304730Y-45395633D01*
X122605373Y-45395897D01*
X122814413Y-45378882D01*
X122969432Y-45339026D01*
X123108014Y-45270771D01*
X123159126Y-45241103D01*
X123301686Y-45164172D01*
X123376033Y-45133333D01*
X123413641Y-45162267D01*
G37*
G36*
X122546612Y-44219608D02*
G01*
X122661327Y-44316666D01*
X122715052Y-44410902D01*
X122725096Y-44471369D01*
X122693015Y-44560831D01*
X122689421Y-44569675D01*
X122625284Y-44633403D01*
X122561966Y-44590819D01*
X122533334Y-44462732D01*
X122515519Y-44388679D01*
X122425171Y-44333333D01*
X122357698Y-44349481D01*
X122389421Y-44420586D01*
X122390941Y-44422436D01*
X122416488Y-44514525D01*
X122329154Y-44621443D01*
X122265483Y-44673081D01*
X122197504Y-44696778D01*
X122156045Y-44629693D01*
X122140931Y-44572611D01*
X122165139Y-44416066D01*
X122263900Y-44290754D01*
X122402597Y-44218119D01*
X122546612Y-44219608D01*
G37*
G36*
X121165330Y-42687310D02*
G01*
X121133334Y-42727324D01*
X121073346Y-42761130D01*
X120932346Y-42798979D01*
X120911777Y-42800313D01*
X120735905Y-42855851D01*
X120507788Y-42976299D01*
X120266114Y-43138801D01*
X120049571Y-43320501D01*
X120003140Y-43368796D01*
X119832864Y-43602227D01*
X119682131Y-43885171D01*
X119574451Y-44168354D01*
X119533334Y-44402500D01*
X119521172Y-44477607D01*
X119466667Y-44533333D01*
X119417222Y-44479304D01*
X119400264Y-44334956D01*
X119415029Y-44138996D01*
X119458505Y-43930200D01*
X119527685Y-43747344D01*
X119547195Y-43710905D01*
X119806264Y-43361724D01*
X120155414Y-43058289D01*
X120556097Y-42828580D01*
X120969768Y-42700577D01*
X121087019Y-42683825D01*
X121165330Y-42687310D01*
G37*
G36*
X121207272Y-41707660D02*
G01*
X121209634Y-41735393D01*
X121096624Y-41773250D01*
X120873007Y-41817168D01*
X120543546Y-41863081D01*
X120374226Y-41885947D01*
X119931536Y-41977350D01*
X119601274Y-42099354D01*
X119305175Y-42301192D01*
X119011810Y-42636498D01*
X118789759Y-43057487D01*
X118649123Y-43544215D01*
X118600000Y-44076738D01*
X118597196Y-44194324D01*
X118574674Y-44389414D01*
X118535856Y-44492531D01*
X118488310Y-44489940D01*
X118439601Y-44367905D01*
X118433650Y-44338492D01*
X118423991Y-44132325D01*
X118440983Y-43847199D01*
X118478952Y-43524505D01*
X118532228Y-43205637D01*
X118595137Y-42931986D01*
X118662007Y-42744945D01*
X118732611Y-42624065D01*
X118934415Y-42360889D01*
X119170032Y-42128341D01*
X119395948Y-41972233D01*
X119700869Y-41858776D01*
X120158527Y-41763722D01*
X120728853Y-41704994D01*
X120837372Y-41698827D01*
X121084773Y-41694117D01*
X121207272Y-41707660D01*
G37*
G36*
X123030502Y-43350186D02*
G01*
X123170651Y-43550046D01*
X123337627Y-43854362D01*
X123511686Y-44223384D01*
X123679130Y-44624233D01*
X123826261Y-45024026D01*
X123939382Y-45389881D01*
X124004793Y-45688918D01*
X124026563Y-45858487D01*
X124069124Y-46533029D01*
X124058024Y-47295327D01*
X123995040Y-48119380D01*
X123881948Y-48979191D01*
X123720526Y-49848759D01*
X123685895Y-50024871D01*
X123679425Y-50163386D01*
X123721871Y-50263224D01*
X123823002Y-50374517D01*
X123895813Y-50457529D01*
X123985852Y-50657881D01*
X123965496Y-50887504D01*
X123835101Y-51169665D01*
X123785594Y-51250301D01*
X123633781Y-51436317D01*
X123488071Y-51504841D01*
X123331649Y-51465765D01*
X123252538Y-51437649D01*
X123200286Y-51483334D01*
X123161802Y-51635816D01*
X123149743Y-51705065D01*
X123144476Y-51792999D01*
X123162403Y-51885669D01*
X123213308Y-52004555D01*
X123306977Y-52171140D01*
X123453196Y-52406905D01*
X123661750Y-52733333D01*
X123742843Y-52861769D01*
X123886588Y-53094012D01*
X124032238Y-53333333D01*
X124136329Y-53514916D01*
X124223736Y-53687192D01*
X124259884Y-53786354D01*
X124245999Y-53821648D01*
X124140369Y-53842240D01*
X123949851Y-53810332D01*
X123696622Y-53730551D01*
X123402859Y-53607526D01*
X123257053Y-53545694D01*
X122873758Y-53451722D01*
X122482408Y-53466116D01*
X122047499Y-53588375D01*
X121890824Y-53645654D01*
X121662164Y-53716266D01*
X121548632Y-53722037D01*
X121546942Y-53657704D01*
X121653807Y-53518004D01*
X121664785Y-53506602D01*
X121817714Y-53506602D01*
X121817859Y-53506736D01*
X121888403Y-53498725D01*
X122050537Y-53458073D01*
X122269528Y-53393476D01*
X122383601Y-53359683D01*
X122667292Y-53302173D01*
X122925035Y-53305574D01*
X123202526Y-53374134D01*
X123545463Y-53512101D01*
X123592047Y-53532448D01*
X123818469Y-53617611D01*
X123974894Y-53652877D01*
X124044291Y-53636275D01*
X124009628Y-53565833D01*
X123960254Y-53496426D01*
X123864093Y-53337424D01*
X123750127Y-53133333D01*
X123644890Y-52943024D01*
X123473930Y-52645598D01*
X123309666Y-52370588D01*
X123305211Y-52363318D01*
X123184870Y-52159471D01*
X123099264Y-52000613D01*
X123066667Y-51920588D01*
X123065016Y-51893633D01*
X123026495Y-51863655D01*
X122936641Y-51955005D01*
X122795111Y-52168115D01*
X122601561Y-52503415D01*
X122534161Y-52621873D01*
X122343469Y-52925590D01*
X122166052Y-53165506D01*
X122022593Y-53312712D01*
X121962889Y-53359624D01*
X121851843Y-53457652D01*
X121817714Y-53506602D01*
X121664785Y-53506602D01*
X121865939Y-53297672D01*
X121909995Y-53251810D01*
X122079024Y-53050357D01*
X122268904Y-52794739D01*
X122462557Y-52511555D01*
X122642905Y-52227404D01*
X122792869Y-51968887D01*
X122895371Y-51762604D01*
X122933334Y-51635155D01*
X122910759Y-51532929D01*
X122844834Y-51359648D01*
X122761287Y-51184223D01*
X122686392Y-51067092D01*
X122669949Y-51067241D01*
X122588567Y-51131392D01*
X122471104Y-51261229D01*
X122346110Y-51384411D01*
X122205706Y-51447779D01*
X122105137Y-51408432D01*
X122071064Y-51282369D01*
X122193958Y-51282369D01*
X122239314Y-51333333D01*
X122305811Y-51293980D01*
X122404783Y-51180281D01*
X122491662Y-51042827D01*
X122528995Y-50933333D01*
X122528620Y-50918177D01*
X122504379Y-50884424D01*
X122431213Y-50962741D01*
X122365670Y-51032678D01*
X122333334Y-51027575D01*
X122362305Y-50938071D01*
X122438993Y-50798167D01*
X122448627Y-50783096D01*
X122497704Y-50700349D01*
X122475050Y-50711852D01*
X122372327Y-50820384D01*
X122346143Y-50851366D01*
X122258181Y-50999705D01*
X122203850Y-51157266D01*
X122193958Y-51282369D01*
X122071064Y-51282369D01*
X122066667Y-51266103D01*
X122076132Y-51192976D01*
X122133940Y-51015861D01*
X122224013Y-50824216D01*
X122322673Y-50665410D01*
X122406241Y-50586808D01*
X122414454Y-50575313D01*
X122399817Y-50477697D01*
X122342695Y-50311273D01*
X122258689Y-50111500D01*
X122163401Y-49913836D01*
X122072431Y-49753739D01*
X122001382Y-49666666D01*
X121973272Y-49640978D01*
X121896655Y-49522659D01*
X121799947Y-49312482D01*
X121677867Y-48998268D01*
X121525137Y-48567834D01*
X121426728Y-48294423D01*
X121330341Y-48050643D01*
X121253527Y-47881692D01*
X121207224Y-47813518D01*
X121205201Y-47812940D01*
X121125704Y-47850850D01*
X121027642Y-47965996D01*
X120902611Y-48094861D01*
X120740060Y-48120135D01*
X120696214Y-48113539D01*
X120621192Y-48081103D01*
X120568357Y-48001451D01*
X120523548Y-47846397D01*
X120472606Y-47587750D01*
X120454205Y-47458903D01*
X120615168Y-47458903D01*
X120631769Y-47646139D01*
X120635826Y-47671802D01*
X120692328Y-47867955D01*
X120774686Y-47933333D01*
X120818973Y-47924252D01*
X120832878Y-47865928D01*
X120829206Y-47840433D01*
X120867311Y-47759252D01*
X121021914Y-47759252D01*
X121038570Y-47777504D01*
X121130465Y-47702596D01*
X121236893Y-47598841D01*
X121255591Y-47553206D01*
X121171821Y-47573913D01*
X121123173Y-47603095D01*
X121035619Y-47718083D01*
X121021914Y-47759252D01*
X120867311Y-47759252D01*
X120879785Y-47732677D01*
X120995610Y-47594134D01*
X121047519Y-47540200D01*
X121156569Y-47409452D01*
X121200000Y-47328205D01*
X121199949Y-47324265D01*
X121161699Y-47267438D01*
X121068735Y-47307121D01*
X120945244Y-47433333D01*
X120829243Y-47562434D01*
X120756375Y-47590249D01*
X120733334Y-47502842D01*
X120741863Y-47470049D01*
X120824537Y-47353151D01*
X120966665Y-47219508D01*
X121029990Y-47165843D01*
X121151676Y-47039184D01*
X121199998Y-46950000D01*
X121186017Y-46890681D01*
X121107823Y-46872417D01*
X120975705Y-46948798D01*
X120806618Y-47112806D01*
X120751853Y-47175932D01*
X120648540Y-47322471D01*
X120615168Y-47458903D01*
X120454205Y-47458903D01*
X120425119Y-47255231D01*
X120428410Y-46952240D01*
X120431290Y-46943687D01*
X120600000Y-46943687D01*
X120600000Y-47148848D01*
X120883334Y-46895161D01*
X120923935Y-46858417D01*
X121018100Y-46767094D01*
X121305305Y-46767094D01*
X121355193Y-47330275D01*
X121476961Y-47947536D01*
X121667249Y-48594263D01*
X121667638Y-48595400D01*
X121773521Y-48893558D01*
X121869605Y-49143541D01*
X121945326Y-49319169D01*
X121990117Y-49394263D01*
X122040709Y-49463549D01*
X122135850Y-49628986D01*
X122261156Y-49865091D01*
X122402842Y-50146730D01*
X122403421Y-50147910D01*
X122497704Y-50335364D01*
X122542351Y-50424131D01*
X122662126Y-50649594D01*
X122749980Y-50801113D01*
X122793143Y-50855502D01*
X122839492Y-50852385D01*
X122915077Y-50872594D01*
X122877165Y-50925434D01*
X122834549Y-50970171D01*
X122839221Y-51061582D01*
X122913162Y-51226783D01*
X123026495Y-51447693D01*
X123038660Y-51471405D01*
X123112976Y-51268746D01*
X123275490Y-51268746D01*
X123319789Y-51355712D01*
X123403935Y-51400000D01*
X123416378Y-51398751D01*
X123466667Y-51337267D01*
X123446555Y-51280746D01*
X123366863Y-51217195D01*
X123288889Y-51222222D01*
X123275490Y-51268746D01*
X123112976Y-51268746D01*
X123180615Y-51084295D01*
X123374925Y-51084295D01*
X123446011Y-51170946D01*
X123566832Y-51248535D01*
X123654511Y-51237068D01*
X123749391Y-51116666D01*
X123788767Y-51054092D01*
X123880835Y-50847946D01*
X123872252Y-50676820D01*
X123763979Y-50500000D01*
X123725817Y-50455301D01*
X123636277Y-50371322D01*
X123600331Y-50373000D01*
X123633896Y-50451945D01*
X123733742Y-50567036D01*
X123762735Y-50594265D01*
X123836551Y-50691725D01*
X123798642Y-50719969D01*
X123655710Y-50670142D01*
X123500000Y-50596148D01*
X123650000Y-50706205D01*
X123744712Y-50786454D01*
X123796617Y-50866783D01*
X123751948Y-50885373D01*
X123616667Y-50821585D01*
X123433334Y-50706763D01*
X123580265Y-50871078D01*
X123591435Y-50883756D01*
X123680151Y-51024977D01*
X123662379Y-51134363D01*
X123647780Y-51155771D01*
X123591429Y-51193793D01*
X123528016Y-51115264D01*
X123473706Y-51053303D01*
X123391913Y-51038331D01*
X123374925Y-51084295D01*
X123180615Y-51084295D01*
X123277886Y-50819036D01*
X123299588Y-50758147D01*
X123366863Y-50536178D01*
X123427137Y-50337309D01*
X123553002Y-49825869D01*
X123636277Y-49423781D01*
X123670172Y-49260121D01*
X123771641Y-48676362D01*
X123850399Y-48110890D01*
X123899438Y-47600000D01*
X123903625Y-47538411D01*
X123924852Y-47236386D01*
X123945166Y-46961483D01*
X123960675Y-46766666D01*
X123964604Y-46710788D01*
X123958933Y-46319029D01*
X123909005Y-45870521D01*
X123822920Y-45421219D01*
X123708782Y-45027077D01*
X123566424Y-44646987D01*
X123373003Y-44178321D01*
X123192236Y-43795290D01*
X123029776Y-43508632D01*
X122891276Y-43329084D01*
X122782388Y-43267383D01*
X122761742Y-43275817D01*
X122668804Y-43365574D01*
X122535706Y-43532571D01*
X122383956Y-43750717D01*
X122332205Y-43829287D01*
X122180756Y-44054183D01*
X122055433Y-44233246D01*
X121979255Y-44333333D01*
X121953726Y-44364661D01*
X121825915Y-44584846D01*
X121692034Y-44905775D01*
X121560897Y-45301439D01*
X121441320Y-45745830D01*
X121342120Y-46212940D01*
X121330658Y-46282601D01*
X121305305Y-46767094D01*
X121018100Y-46767094D01*
X121086938Y-46700334D01*
X121107823Y-46675979D01*
X121181671Y-46589861D01*
X121197881Y-46540887D01*
X121125316Y-46567304D01*
X121023150Y-46638764D01*
X120883596Y-46754625D01*
X120881284Y-46756695D01*
X120762065Y-46835447D01*
X120683596Y-46839035D01*
X120677691Y-46827748D01*
X120711671Y-46743453D01*
X120820384Y-46627661D01*
X120856160Y-46595890D01*
X120943360Y-46503727D01*
X120949622Y-46466666D01*
X120871946Y-46490107D01*
X120743985Y-46604206D01*
X120641777Y-46771172D01*
X120600000Y-46943687D01*
X120431290Y-46943687D01*
X120504936Y-46724988D01*
X120663774Y-46549050D01*
X120858042Y-46433333D01*
X121066667Y-46433333D01*
X121100000Y-46466666D01*
X121133334Y-46433333D01*
X121100000Y-46400000D01*
X121066667Y-46433333D01*
X120858042Y-46433333D01*
X120914002Y-46400000D01*
X120915780Y-46399144D01*
X120949622Y-46380676D01*
X121100000Y-46298615D01*
X121124718Y-46285126D01*
X121232047Y-46185493D01*
X121255591Y-46104114D01*
X121263641Y-46076289D01*
X121279277Y-45920949D01*
X121341904Y-45631212D01*
X121440456Y-45295602D01*
X121562228Y-44949381D01*
X121694512Y-44627814D01*
X121824604Y-44366164D01*
X121939798Y-44199694D01*
X121999136Y-44127800D01*
X122117497Y-43963276D01*
X122250120Y-43762821D01*
X122345698Y-43620864D01*
X122503936Y-43412257D01*
X122638665Y-43262821D01*
X122782388Y-43128759D01*
X122813219Y-43100000D01*
X123030502Y-43350186D01*
G37*
D12*
X111378550Y-68500000D02*
X111378550Y-69100000D01*
X112078550Y-69800000D02*
X113478550Y-69800000D01*
X113478550Y-67800000D02*
X112078550Y-67800000D01*
X114178550Y-69100000D02*
X114178550Y-68500000D01*
X111378550Y-68500000D02*
G75*
G02*
X112078550Y-67800000I699999J1D01*
G01*
X112078550Y-69800000D02*
G75*
G02*
X111378550Y-69100000I-1J699999D01*
G01*
X113478550Y-67800000D02*
G75*
G02*
X114178550Y-68500000I0J-700000D01*
G01*
X114178550Y-69100000D02*
G75*
G02*
X113478550Y-69800000I-700000J0D01*
G01*
X114600000Y-71100000D02*
G75*
G02*
X113200000Y-71100000I-700000J0D01*
G01*
X113200000Y-71100000D02*
G75*
G02*
X114600000Y-71100000I700000J0D01*
G01*
X114900000Y-34900000D02*
G75*
G02*
X113500000Y-34900000I-700000J0D01*
G01*
X113500000Y-34900000D02*
G75*
G02*
X114900000Y-34900000I700000J0D01*
G01*
X113100000Y-34900000D02*
G75*
G02*
X111700000Y-34900000I-700000J0D01*
G01*
X111700000Y-34900000D02*
G75*
G02*
X113100000Y-34900000I700000J0D01*
G01*
X105450000Y-74471852D02*
G75*
G02*
X104050000Y-74471852I-700000J0D01*
G01*
X104050000Y-74471852D02*
G75*
G02*
X105450000Y-74471852I700000J0D01*
G01*
X106450000Y-45250000D02*
G75*
G02*
X105050000Y-45250000I-700000J0D01*
G01*
X105050000Y-45250000D02*
G75*
G02*
X106450000Y-45250000I700000J0D01*
G01*
X103700000Y-80250000D02*
G75*
G02*
X102300000Y-80250000I-700000J0D01*
G01*
X102300000Y-80250000D02*
G75*
G02*
X103700000Y-80250000I700000J0D01*
G01*
%LPC*%
G36*
X112628550Y-69550000D02*
G01*
X112928550Y-69550000D01*
X112928550Y-68050000D01*
X112628550Y-68050000D01*
X112628550Y-69550000D01*
G37*
D14*
X127210000Y-41984505D03*
D15*
X129750000Y-41984505D03*
X132290000Y-41984505D03*
D14*
X129790000Y-45734505D03*
D15*
X127250000Y-45734505D03*
D16*
X95250000Y-34000000D03*
X95909010Y-32409010D03*
X95909010Y-35590990D03*
X97500000Y-31750000D03*
D17*
X97500000Y-34000000D03*
D16*
X97500000Y-36250000D03*
X99090990Y-32409010D03*
X99090990Y-35590990D03*
X99750000Y-34000000D03*
D18*
X116390000Y-35215990D03*
X110610000Y-35215990D03*
D19*
X117820000Y-35715990D03*
X109180000Y-35715990D03*
D20*
X117820000Y-31535990D03*
X109180000Y-31535990D03*
D21*
X131100990Y-52204505D03*
D22*
X131100990Y-54744505D03*
D16*
X127250000Y-34000000D03*
X127909010Y-32409010D03*
X127909010Y-35590990D03*
X129500000Y-31750000D03*
D17*
X129500000Y-34000000D03*
D16*
X129500000Y-36250000D03*
X131090990Y-32409010D03*
X131090990Y-35590990D03*
X131750000Y-34000000D03*
D23*
X103000000Y-82250000D03*
X108000000Y-45250000D03*
X113900000Y-73300000D03*
D24*
X112128550Y-68800000D03*
D25*
X113428550Y-68800000D03*
D23*
X113900000Y-71100000D03*
X114200000Y-34900000D03*
X112400000Y-34900000D03*
X104750000Y-74471852D03*
X105750000Y-45250000D03*
X103000000Y-80250000D03*
D26*
X100750000Y-86500000D03*
X96250000Y-86500000D03*
X94250000Y-86500000D03*
X99210000Y-86500000D03*
%LPD*%
M02*
